<svg width="27" height="18" viewBox="0 0 27 18" fill="none" xmlns="http://www.w3.org/2000/svg">
<mask id="path-1-inside-1" fill="white">
<path d="M0 14.5C3.13011e-07 10.6544 1.42232 6.96623 3.95406 4.24695C6.4858 1.52767 9.91958 4.12577e-07 13.5 0C17.0804 -4.12577e-07 20.5142 1.52767 23.0459 4.24695C25.5777 6.96623 27 10.6544 27 14.5L13.5 14.5L0 14.5Z"/>
</mask>
<path d="M0 14.5C3.13011e-07 10.6544 1.42232 6.96623 3.95406 4.24695C6.4858 1.52767 9.91958 4.12577e-07 13.5 0C17.0804 -4.12577e-07 20.5142 1.52767 23.0459 4.24695C25.5777 6.96623 27 10.6544 27 14.5L13.5 14.5L0 14.5Z" stroke="#111111" stroke-width="2" mask="url(#path-1-inside-1)"/>
<line y1="17" x2="27" y2="17" stroke="#111111" stroke-width="2"/>
<path d="M12 14C12 13.7374 12.0388 13.4773 12.1142 13.2346C12.1896 12.992 12.3001 12.7715 12.4393 12.5858C12.5786 12.4001 12.744 12.2528 12.926 12.1522C13.108 12.0517 13.303 12 13.5 12C13.697 12 13.892 12.0517 14.074 12.1522C14.256 12.2528 14.4214 12.4001 14.5607 12.5858C14.6999 12.7715 14.8104 12.992 14.8858 13.2346C14.9612 13.4773 15 13.7374 15 14L13.5 14L12 14Z" fill="#111111"/>
<path d="M8.51353 4.31269L13.4133 12.1802L12.5238 12.7218L8.51353 4.31269Z" fill="#111111"/>
</svg>
