<svg width="158" height="154" viewBox="0 0 158 154" fill="none" xmlns="http://www.w3.org/2000/svg">
<path d="M92.4977 60L93.1477 65.6078L92.4977 71L91.8477 65.6078L92.4977 60Z" fill="#FAFF02"/>
<path d="M86 65.4988L92.6275 64.6303L99 65.4988L92.6275 66.3672L86 65.4988Z" fill="#FAFF02"/>
<ellipse cx="79" cy="77" rx="79" ry="77" fill="#D1D4BB"/>
<ellipse cx="79" cy="72" rx="79" ry="72" fill="#FFF5C2"/>
<ellipse cx="90.0863" cy="27.7933" rx="18" ry="9" transform="rotate(20 90.0863 27.7933)" fill="#FDFFA8"/>
<ellipse cx="125.473" cy="45.9829" rx="13.974" ry="7.62605" transform="rotate(15 125.473 45.9829)" fill="#FDFFA8"/>
<ellipse cx="59.6862" cy="31.9829" rx="7.60162" ry="5.19242" transform="rotate(15 59.6862 31.9829)" fill="#FDFFA8"/>
<ellipse cx="87.9961" cy="50" rx="10.173" ry="4.52108" transform="rotate(15 87.9961 50)" fill="#FDFFA8"/>
<path d="M92.4977 60L93.1477 65.6078L92.4977 71L91.8477 65.6078L92.4977 60Z" fill="#FAFF02"/>
<path d="M86 65.4988L92.6275 64.6303L99 65.4988L92.6275 66.3672L86 65.4988Z" fill="#FAFF02"/>
<ellipse cx="79" cy="77" rx="79" ry="77" fill="#D1D4BB"/>
<ellipse cx="79" cy="72" rx="79" ry="72" fill="#FFF5C2"/>
<ellipse cx="90.0863" cy="27.7933" rx="18" ry="9" transform="rotate(20 90.0863 27.7933)" fill="#FDFFA8"/>
<ellipse cx="125.473" cy="45.9829" rx="13.974" ry="7.62605" transform="rotate(15 125.473 45.9829)" fill="#FDFFA8"/>
<ellipse cx="59.6862" cy="31.9829" rx="7.60162" ry="5.19242" transform="rotate(15 59.6862 31.9829)" fill="#FDFFA8"/>
<ellipse cx="87.9961" cy="50" rx="10.173" ry="4.52108" transform="rotate(15 87.9961 50)" fill="#FDFFA8"/>
</svg>
