<svg width="210" height="338" viewBox="0 0 210 338" fill="none" xmlns="http://www.w3.org/2000/svg">
<rect y="20" width="210" height="318" fill="#141526"/>
<rect x="22.5" y="113.5" width="69" height="44" fill="#141526" stroke="#4ED4F1"/>
<path d="M91.5 157.5H22.5V137.414C22.5998 137.51 22.7081 137.612 22.8252 137.719C23.6396 138.461 24.8763 139.436 26.5793 140.384C29.9895 142.282 35.253 144.062 42.7083 143.667C50.1682 143.271 54.3267 141.284 58.1622 138.857C58.951 138.358 59.7222 137.844 60.503 137.323C63.5038 135.321 66.6472 133.224 71.4826 131.54C77.5963 129.411 82.6572 129.049 86.1528 129.989C87.8958 130.458 89.2294 131.244 90.125 132.274C91.0159 133.298 91.5 134.595 91.5 136.142V136.181V136.22V136.259V136.299V136.339V136.379V136.419V136.459V136.5V136.54V136.581V136.622V136.663V136.705V136.746V136.788V136.83V136.872V136.915V136.957V137V137.043V137.086V137.129V137.172V137.216V137.26V137.304V137.348V137.392V137.436V137.481V137.525V137.57V137.615V137.661V137.706V137.751V137.797V137.843V137.889V137.935V137.981V138.028V138.074V138.121V138.168V138.215V138.262V138.309V138.357V138.404V138.452V138.5V138.548V138.596V138.644V138.693V138.741V138.79V138.839V138.888V138.937V138.986V139.035V139.085V139.135V139.184V139.234V139.284V139.334V139.384V139.435V139.485V139.536V139.586V139.637V139.688V139.739V139.79V139.842V139.893V139.944V139.996V140.048V140.099V140.151V140.203V140.255V140.308V140.36V140.412V140.465V140.517V140.57V140.623V140.676V140.729V140.782V140.835V140.888V140.942V140.995V141.049V141.102V141.156V141.21V141.264V141.318V141.372V141.426V141.48V141.534V141.588V141.643V141.697V141.752V141.806V141.861V141.916V141.971V142.026V142.081V142.136V142.191V142.246V142.301V142.356V142.412V142.467V142.523V142.578V142.634V142.689V142.745V142.801V142.857V142.913V142.968V143.024V143.08V143.136V143.192V143.249V143.305V143.361V143.417V143.473V143.53V143.586V143.643V143.699V143.756V143.812V143.869V143.925V143.982V144.038V144.095V144.152V144.208V144.265V144.322V144.379V144.436V144.492V144.549V144.606V144.663V144.72V144.777V144.834V144.891V144.948V145.005V145.062V145.119V145.176V145.233V145.29V145.347V145.404V145.461V145.518V145.575V145.632V145.689V145.746V145.803V145.86V145.917V145.974V146.031V146.088V146.145V146.202V146.259V146.316V146.373V146.43V146.486V146.543V146.6V146.657V146.714V146.771V146.827V146.884V146.941V146.998V147.054V147.111V147.167V147.224V147.281V147.337V147.394V147.45V147.506V147.563V147.619V147.675V147.732V147.788V147.844V147.9V147.956V148.012V148.068V148.124V148.18V148.236V148.292V148.348V148.403V148.459V148.515V148.57V148.626V148.681V148.737V148.792V148.847V148.902V148.957V149.012V149.067V149.122V149.177V149.232V149.287V149.341V149.396V149.45V149.505V149.559V149.613V149.668V149.722V149.776V149.83V149.884V149.938V149.991V150.045V150.098V150.152V150.205V150.259V150.312V150.365V150.418V150.471V150.524V150.576V150.629V150.682V150.734V150.786V150.839V150.891V150.943V150.995V151.046V151.098V151.15V151.201V151.253V151.304V151.355V151.406V151.457V151.508V151.559V151.609V151.66V151.71V151.76V151.811V151.861V151.91V151.96V152.01V152.059V152.109V152.158V152.207V152.256V152.305V152.354V152.402V152.451V152.499V152.547V152.595V152.643V152.691V152.739V152.786V152.834V152.881V152.928V152.975V153.021V153.068V153.115V153.161V153.207V153.253V153.299V153.345V153.39V153.436V153.481V153.526V153.571V153.616V153.66V153.705V153.749V153.793V153.837V153.881V153.924V153.968V154.011V154.054V154.097V154.14V154.182V154.225V154.267V154.309V154.351V154.392V154.434V154.475V154.516V154.557V154.598V154.639V154.679V154.719V154.759V154.799V154.839V154.878V154.917V154.956V154.995V155.034V155.072V155.111V155.149V155.186V155.224V155.261V155.299V155.336V155.373V155.409V155.446V155.482V155.518V155.554V155.589V155.624V155.66V155.694V155.729V155.764V155.798V155.832V155.866V155.899V155.933V155.966V155.999V156.031V156.064V156.096V156.128V156.16V156.191V156.223V156.254V156.285V156.315V156.346V156.376V156.406V156.435V156.465V156.494V156.523V156.551V156.58V156.608V156.636V156.664V156.691V156.718V156.745V156.772V156.798V156.824V156.85V156.876V156.901V156.926V156.951V156.976V157V157.024V157.048V157.072V157.095V157.118V157.141V157.163V157.185V157.207V157.229V157.25V157.271V157.292V157.313V157.333V157.353V157.373V157.392V157.411V157.43V157.449V157.467V157.485V157.5Z" fill="#4ED4F1" fill-opacity="0.2" stroke="#4ED4F1"/>
<path d="M115.856 126.208C114.149 126.208 112.848 125.76 111.952 124.864C111.056 123.957 110.608 122.56 110.608 120.672C110.608 118.827 111.035 117.435 111.888 116.496C112.752 115.557 114.075 115.088 115.856 115.088C116.421 115.088 116.992 115.163 117.568 115.312C118.144 115.451 118.704 115.637 119.248 115.872V118.128C118.693 117.765 118.16 117.504 117.648 117.344C117.136 117.184 116.656 117.104 116.208 117.104C115.579 117.104 115.045 117.216 114.608 117.44C114.171 117.664 113.84 118.037 113.616 118.56C113.392 119.083 113.28 119.787 113.28 120.672C113.28 121.557 113.392 122.256 113.616 122.768C113.851 123.28 114.192 123.648 114.64 123.872C115.099 124.085 115.659 124.192 116.32 124.192C116.715 124.192 117.163 124.117 117.664 123.968C118.165 123.819 118.693 123.563 119.248 123.2V125.456C118.811 125.68 118.277 125.861 117.648 126C117.019 126.139 116.421 126.208 115.856 126.208ZM124.926 122.496V126H122.334V115.328H127.134C128.382 115.328 129.363 115.611 130.078 116.176C130.793 116.741 131.15 117.616 131.15 118.8C131.15 119.984 130.793 120.896 130.078 121.536C129.363 122.176 128.382 122.496 127.134 122.496H124.926ZM124.926 120.496H126.814C127.369 120.496 127.763 120.352 127.998 120.064C128.233 119.776 128.35 119.413 128.35 118.976C128.35 118.485 128.233 118.091 127.998 117.792C127.763 117.493 127.369 117.344 126.814 117.344H124.926V120.496ZM138.991 126.32C137.348 126.32 136.116 125.973 135.295 125.28C134.484 124.587 134.079 123.499 134.079 122.016V115.328H136.783V121.904C136.783 122.725 136.948 123.333 137.279 123.728C137.61 124.123 138.138 124.32 138.863 124.32C139.524 124.32 140.036 124.123 140.399 123.728C140.772 123.333 140.959 122.725 140.959 121.904V115.328H143.423V122.016C143.423 123.008 143.231 123.824 142.847 124.464C142.474 125.093 141.951 125.563 141.279 125.872C140.618 126.171 139.855 126.32 138.991 126.32Z" fill="white"/>
<path d="M112.92 146.08C111.407 146.08 110.65 145.037 110.65 142.95C110.65 142.283 110.723 141.727 110.87 141.28C111.023 140.827 111.22 140.467 111.46 140.2C111.7 139.927 111.957 139.723 112.23 139.59C112.503 139.45 112.77 139.357 113.03 139.31C113.29 139.263 113.51 139.24 113.69 139.24C113.877 139.24 114.05 139.253 114.21 139.28C114.377 139.3 114.527 139.33 114.66 139.37V140.04C114.533 140.007 114.397 139.98 114.25 139.96C114.103 139.933 113.943 139.92 113.77 139.92C113.663 139.92 113.52 139.937 113.34 139.97C113.167 140.003 112.977 140.063 112.77 140.15C112.57 140.237 112.373 140.367 112.18 140.54C111.993 140.707 111.827 140.923 111.68 141.19C111.54 141.457 111.447 141.787 111.4 142.18C111.553 142.087 111.763 141.99 112.03 141.89C112.303 141.783 112.6 141.73 112.92 141.73C113.62 141.73 114.173 141.92 114.58 142.3C114.987 142.673 115.19 143.183 115.19 143.83C115.19 144.09 115.15 144.353 115.07 144.62C114.99 144.88 114.86 145.123 114.68 145.35C114.5 145.57 114.267 145.747 113.98 145.88C113.693 146.013 113.34 146.08 112.92 146.08ZM112.92 142.4C112.553 142.4 112.237 142.467 111.97 142.6C111.703 142.733 111.503 142.853 111.37 142.96C111.383 143.48 111.43 143.9 111.51 144.22C111.597 144.54 111.71 144.787 111.85 144.96C111.99 145.133 112.15 145.25 112.33 145.31C112.51 145.37 112.707 145.4 112.92 145.4C113.28 145.4 113.563 145.337 113.77 145.21C113.983 145.083 114.137 144.93 114.23 144.75C114.33 144.57 114.393 144.393 114.42 144.22C114.453 144.047 114.47 143.913 114.47 143.82C114.47 143.367 114.337 143.017 114.07 142.77C113.803 142.523 113.42 142.4 112.92 142.4ZM119.47 146.08C119.023 146.08 118.643 146.04 118.33 145.96C118.023 145.873 117.767 145.777 117.56 145.67V144.92C117.693 145.007 117.913 145.107 118.22 145.22C118.533 145.327 118.933 145.38 119.42 145.38C119.76 145.38 120.027 145.337 120.22 145.25C120.42 145.157 120.567 145.04 120.66 144.9C120.753 144.753 120.813 144.6 120.84 144.44C120.867 144.273 120.88 144.113 120.88 143.96C120.88 143.54 120.807 143.233 120.66 143.04C120.52 142.84 120.337 142.71 120.11 142.65C119.89 142.59 119.66 142.56 119.42 142.56C119.067 142.56 118.773 142.587 118.54 142.64C118.307 142.687 118.133 142.737 118.02 142.79C117.907 142.843 117.85 142.87 117.85 142.87L117.4 142.41L117.74 139.33H121.17V140.04H118.36L118.19 142.01C118.597 141.897 119.023 141.84 119.47 141.84C119.71 141.84 119.953 141.87 120.2 141.93C120.453 141.99 120.683 142.097 120.89 142.25C121.103 142.397 121.273 142.61 121.4 142.89C121.527 143.163 121.59 143.52 121.59 143.96C121.59 144.4 121.527 144.76 121.4 145.04C121.273 145.313 121.103 145.527 120.89 145.68C120.683 145.827 120.453 145.93 120.2 145.99C119.953 146.05 119.71 146.08 119.47 146.08ZM124.794 142.91C123.847 142.91 123.374 142.297 123.374 141.07C123.374 139.843 123.847 139.23 124.794 139.23C125.734 139.23 126.204 139.843 126.204 141.07C126.204 142.297 125.734 142.91 124.794 142.91ZM124.794 142.41C124.881 142.41 124.984 142.38 125.104 142.32C125.231 142.26 125.344 142.133 125.444 141.94C125.544 141.747 125.594 141.457 125.594 141.07C125.594 140.677 125.544 140.387 125.444 140.2C125.344 140.007 125.231 139.88 125.104 139.82C124.984 139.76 124.881 139.73 124.794 139.73C124.707 139.73 124.601 139.76 124.474 139.82C124.347 139.88 124.234 140.007 124.134 140.2C124.034 140.387 123.984 140.677 123.984 141.07C123.984 141.457 124.034 141.747 124.134 141.94C124.234 142.133 124.347 142.26 124.474 142.32C124.601 142.38 124.707 142.41 124.794 142.41ZM128.614 146.05C127.667 146.05 127.194 145.437 127.194 144.21C127.194 142.983 127.667 142.37 128.614 142.37C129.554 142.37 130.024 142.983 130.024 144.21C130.024 145.437 129.554 146.05 128.614 146.05ZM128.614 145.55C128.701 145.55 128.804 145.52 128.924 145.46C129.051 145.4 129.164 145.273 129.264 145.08C129.364 144.887 129.414 144.597 129.414 144.21C129.414 143.817 129.364 143.527 129.264 143.34C129.164 143.147 129.051 143.02 128.924 142.96C128.804 142.9 128.701 142.87 128.614 142.87C128.527 142.87 128.421 142.9 128.294 142.96C128.167 143.02 128.054 143.147 127.954 143.34C127.854 143.527 127.804 143.817 127.804 144.21C127.804 144.597 127.854 144.887 127.954 145.08C128.054 145.273 128.167 145.4 128.294 145.46C128.421 145.52 128.527 145.55 128.614 145.55ZM124.284 146.22L128.354 139.15H129.034L124.964 146.22H124.284ZM142.773 146V145.37C142.999 145.203 143.259 144.997 143.553 144.75C143.853 144.503 144.153 144.233 144.453 143.94C144.759 143.64 145.039 143.33 145.293 143.01C145.553 142.683 145.763 142.36 145.923 142.04C146.083 141.72 146.163 141.413 146.163 141.12C146.163 140.94 146.123 140.763 146.043 140.59C145.963 140.41 145.809 140.26 145.583 140.14C145.356 140.02 145.026 139.96 144.593 139.96C144.193 139.96 143.843 140.027 143.543 140.16C143.249 140.293 143.016 140.42 142.843 140.54V139.75C143.056 139.617 143.313 139.5 143.613 139.4C143.919 139.293 144.266 139.24 144.653 139.24C145.199 139.24 145.636 139.333 145.963 139.52C146.289 139.707 146.523 139.943 146.663 140.23C146.809 140.517 146.883 140.813 146.883 141.12C146.883 141.467 146.786 141.83 146.593 142.21C146.399 142.59 146.149 142.967 145.843 143.34C145.536 143.707 145.209 144.057 144.863 144.39C144.516 144.723 144.189 145.02 143.883 145.28H146.983V146H142.773ZM149.313 146V145H150.313V146H149.313ZM154.171 146V140.08L152.841 140.96V140.11L154.071 139.33H154.891V146H154.171ZM159.963 146.08C159.516 146.08 159.136 146.04 158.823 145.96C158.516 145.873 158.259 145.777 158.053 145.67V144.92C158.186 145.007 158.406 145.107 158.713 145.22C159.026 145.327 159.426 145.38 159.913 145.38C160.253 145.38 160.519 145.337 160.713 145.25C160.913 145.157 161.059 145.04 161.153 144.9C161.246 144.753 161.306 144.6 161.333 144.44C161.359 144.273 161.373 144.113 161.373 143.96C161.373 143.54 161.299 143.233 161.153 143.04C161.013 142.84 160.829 142.71 160.603 142.65C160.383 142.59 160.153 142.56 159.913 142.56C159.559 142.56 159.266 142.587 159.033 142.64C158.799 142.687 158.626 142.737 158.513 142.79C158.399 142.843 158.343 142.87 158.343 142.87L157.893 142.41L158.233 139.33H161.663V140.04H158.853L158.683 142.01C159.089 141.897 159.516 141.84 159.963 141.84C160.203 141.84 160.446 141.87 160.693 141.93C160.946 141.99 161.176 142.097 161.383 142.25C161.596 142.397 161.766 142.61 161.893 142.89C162.019 143.163 162.083 143.52 162.083 143.96C162.083 144.4 162.019 144.76 161.893 145.04C161.766 145.313 161.596 145.527 161.383 145.68C161.176 145.827 160.946 145.93 160.693 145.99C160.446 146.05 160.203 146.08 159.963 146.08ZM170.677 146.1C169.65 146.1 168.877 145.81 168.357 145.23C167.844 144.65 167.587 143.793 167.587 142.66C167.587 140.38 168.617 139.24 170.677 139.24C171.044 139.24 171.404 139.277 171.757 139.35C172.11 139.423 172.45 139.537 172.777 139.69V140.44C172.464 140.3 172.137 140.18 171.797 140.08C171.457 139.973 171.11 139.92 170.757 139.92C169.91 139.92 169.29 140.143 168.897 140.59C168.504 141.03 168.307 141.72 168.307 142.66C168.307 143.607 168.504 144.303 168.897 144.75C169.29 145.19 169.91 145.41 170.757 145.41C171.29 145.41 171.8 145.33 172.287 145.17V143.27H170.677V142.57H173.007V145.58C172.287 145.927 171.51 146.1 170.677 146.1ZM175.352 146V138.8H176.072V141.34C176.319 141.213 176.572 141.113 176.832 141.04C177.092 140.96 177.342 140.92 177.582 140.92C178.196 140.92 178.669 141.093 179.002 141.44C179.336 141.78 179.502 142.313 179.502 143.04V146H178.782V143.04C178.782 142.573 178.676 142.213 178.462 141.96C178.249 141.707 177.929 141.58 177.502 141.58C177.036 141.58 176.559 141.713 176.072 141.98V146H175.352ZM181.454 146V145.35L184.244 141.63H181.524V141.01H185.104V141.64L182.284 145.36H185.104V146H181.454Z" fill="white"/>
<rect x="22.5" y="182.5" width="69" height="44" fill="#141526" stroke="#FD5C79"/>
<path d="M22.5 202.634C22.5391 202.568 22.5973 202.473 22.6754 202.353C22.8411 202.097 23.0962 201.727 23.4488 201.278C24.154 200.38 25.2479 199.169 26.7938 197.933C29.8812 195.464 34.7831 192.883 42.0265 192.499C49.0058 192.129 52.7736 195.525 56.3258 198.728C56.4041 198.798 56.4822 198.869 56.5603 198.939C58.3608 200.56 60.157 202.141 62.3028 203.023C64.4798 203.918 66.9781 204.082 70.1644 202.972C76.3021 200.835 81.7227 199.862 85.5773 200.22C87.504 200.399 88.9878 200.906 89.9808 201.714C90.9536 202.505 91.5 203.62 91.5 205.142V205.181V205.22V205.259V205.299V205.338V205.378V205.419V205.459V205.499V205.54V205.581V205.622V205.663V205.705V205.746V205.788V205.83V205.872V205.915V205.957V206V206.043V206.086V206.129V206.172V206.216V206.26V206.303V206.347V206.392V206.436V206.481V206.525V206.57V206.615V206.66V206.706V206.751V206.797V206.843V206.889V206.935V206.981V207.028V207.074V207.121V207.168V207.215V207.262V207.309V207.357V207.404V207.452V207.5V207.548V207.596V207.644V207.693V207.741V207.79V207.839V207.888V207.937V207.986V208.035V208.085V208.134V208.184V208.234V208.284V208.334V208.384V208.435V208.485V208.536V208.586V208.637V208.688V208.739V208.79V208.841V208.893V208.944V208.996V209.048V209.099V209.151V209.203V209.255V209.308V209.36V209.412V209.465V209.517V209.57V209.623V209.676V209.729V209.782V209.835V209.888V209.942V209.995V210.049V210.102V210.156V210.21V210.263V210.317V210.371V210.426V210.48V210.534V210.588V210.643V210.697V210.752V210.806V210.861V210.916V210.971V211.026V211.081V211.136V211.191V211.246V211.301V211.356V211.412V211.467V211.523V211.578V211.634V211.689V211.745V211.801V211.857V211.912V211.968V212.024V212.08V212.136V212.192V212.248V212.305V212.361V212.417V212.473V212.53V212.586V212.642V212.699V212.755V212.812V212.868V212.925V212.982V213.038V213.095V213.152V213.208V213.265V213.322V213.379V213.435V213.492V213.549V213.606V213.663V213.72V213.777V213.834V213.891V213.948V214.005V214.062V214.118V214.176V214.233V214.29V214.347V214.404V214.461V214.518V214.575V214.632V214.689V214.746V214.803V214.86V214.917V214.974V215.031V215.088V215.145V215.202V215.259V215.316V215.372V215.429V215.486V215.543V215.6V215.657V215.714V215.77V215.827V215.884V215.941V215.997V216.054V216.111V216.167V216.224V216.28V216.337V216.393V216.45V216.506V216.563V216.619V216.675V216.732V216.788V216.844V216.9V216.956V217.012V217.068V217.124V217.18V217.236V217.292V217.348V217.403V217.459V217.515V217.57V217.626V217.681V217.736V217.792V217.847V217.902V217.957V218.012V218.067V218.122V218.177V218.232V218.287V218.341V218.396V218.45V218.505V218.559V218.613V218.668V218.722V218.776V218.83V218.884V218.937V218.991V219.045V219.098V219.152V219.205V219.258V219.312V219.365V219.418V219.471V219.523V219.576V219.629V219.681V219.734V219.786V219.838V219.891V219.943V219.995V220.046V220.098V220.15V220.201V220.253V220.304V220.355V220.406V220.457V220.508V220.559V220.609V220.66V220.71V220.76V220.81V220.86V220.91V220.96V221.01V221.059V221.109V221.158V221.207V221.256V221.305V221.354V221.402V221.451V221.499V221.547V221.595V221.643V221.691V221.739V221.786V221.833V221.881V221.928V221.975V222.021V222.068V222.114V222.161V222.207V222.253V222.299V222.345V222.39V222.435V222.481V222.526V222.571V222.615V222.66V222.704V222.749V222.793V222.837V222.881V222.924V222.968V223.011V223.054V223.097V223.14V223.182V223.225V223.267V223.309V223.351V223.392V223.434V223.475V223.516V223.557V223.598V223.638V223.679V223.719V223.759V223.799V223.839V223.878V223.917V223.956V223.995V224.034V224.072V224.11V224.148V224.186V224.224V224.261V224.299V224.336V224.372V224.409V224.445V224.482V224.518V224.553V224.589V224.624V224.659V224.694V224.729V224.764V224.798V224.832V224.866V224.899V224.933V224.966V224.999V225.031V225.064V225.096V225.128V225.16V225.191V225.223V225.254V225.285V225.315V225.346V225.376V225.406V225.435V225.465V225.494V225.523V225.551V225.58V225.608V225.636V225.664V225.691V225.718V225.745V225.772V225.798V225.824V225.85V225.876V225.901V225.926V225.951V225.976V226V226.024V226.048V226.072V226.095V226.118V226.141V226.163V226.185V226.207V226.229V226.25V226.271V226.292V226.313V226.333V226.353V226.373V226.392V226.411V226.43V226.448V226.467V226.485V226.5H22.5V202.634Z" fill="#FD5C79" fill-opacity="0.2" stroke="#FD5C79"/>
<path d="M115.888 195.208C114.843 195.208 113.925 195.021 113.136 194.648C112.357 194.275 111.755 193.683 111.328 192.872C110.901 192.061 110.688 190.995 110.688 189.672C110.688 188.371 110.901 187.309 111.328 186.488C111.755 185.667 112.357 185.064 113.136 184.68C113.915 184.285 114.832 184.088 115.888 184.088C116.56 184.088 117.211 184.157 117.84 184.296C118.48 184.435 119.099 184.627 119.696 184.872V187.224C119.056 186.883 118.459 186.611 117.904 186.408C117.36 186.205 116.795 186.104 116.208 186.104C115.6 186.104 115.077 186.216 114.64 186.44C114.213 186.653 113.888 187.021 113.664 187.544C113.44 188.056 113.328 188.76 113.328 189.656C113.328 190.541 113.44 191.245 113.664 191.768C113.899 192.28 114.224 192.648 114.64 192.872C115.056 193.096 115.541 193.208 116.096 193.208C116.384 193.208 116.651 193.192 116.896 193.16C117.152 193.117 117.376 193.048 117.568 192.952V191.064H115.808V189.048H120.16V194.072C119.499 194.445 118.805 194.728 118.08 194.92C117.365 195.112 116.635 195.208 115.888 195.208ZM126.145 191.496V195H123.553V184.328H128.353C129.601 184.328 130.582 184.611 131.297 185.176C132.012 185.741 132.369 186.616 132.369 187.8C132.369 188.984 132.012 189.896 131.297 190.536C130.582 191.176 129.601 191.496 128.353 191.496H126.145ZM126.145 189.496H128.033C128.588 189.496 128.982 189.352 129.217 189.064C129.452 188.776 129.569 188.413 129.569 187.976C129.569 187.485 129.452 187.091 129.217 186.792C128.982 186.493 128.588 186.344 128.033 186.344H126.145V189.496ZM140.21 195.32C138.567 195.32 137.335 194.973 136.514 194.28C135.703 193.587 135.298 192.499 135.298 191.016V184.328H138.002V190.904C138.002 191.725 138.167 192.333 138.498 192.728C138.829 193.123 139.357 193.32 140.082 193.32C140.743 193.32 141.255 193.123 141.618 192.728C141.991 192.333 142.178 191.725 142.178 190.904V184.328H144.642V191.016C144.642 192.008 144.45 192.824 144.066 193.464C143.693 194.093 143.17 194.563 142.498 194.872C141.837 195.171 141.074 195.32 140.21 195.32Z" fill="white"/>
<path d="M111.56 215L114.44 209.05H110.7V208.33H115.25V209L112.36 215H111.56ZM117.212 215V214.37C117.439 214.203 117.699 213.997 117.992 213.75C118.292 213.503 118.592 213.233 118.892 212.94C119.199 212.64 119.479 212.33 119.732 212.01C119.992 211.683 120.202 211.36 120.362 211.04C120.522 210.72 120.602 210.413 120.602 210.12C120.602 209.94 120.562 209.763 120.482 209.59C120.402 209.41 120.249 209.26 120.022 209.14C119.796 209.02 119.466 208.96 119.032 208.96C118.632 208.96 118.282 209.027 117.982 209.16C117.689 209.293 117.456 209.42 117.282 209.54V208.75C117.496 208.617 117.752 208.5 118.052 208.4C118.359 208.293 118.706 208.24 119.092 208.24C119.639 208.24 120.076 208.333 120.402 208.52C120.729 208.707 120.962 208.943 121.102 209.23C121.249 209.517 121.322 209.813 121.322 210.12C121.322 210.467 121.226 210.83 121.032 211.21C120.839 211.59 120.589 211.967 120.282 212.34C119.976 212.707 119.649 213.057 119.302 213.39C118.956 213.723 118.629 214.02 118.322 214.28H121.422V215H117.212ZM124.853 211.91C123.906 211.91 123.433 211.297 123.433 210.07C123.433 208.843 123.906 208.23 124.853 208.23C125.793 208.23 126.263 208.843 126.263 210.07C126.263 211.297 125.793 211.91 124.853 211.91ZM124.853 211.41C124.939 211.41 125.043 211.38 125.163 211.32C125.289 211.26 125.403 211.133 125.503 210.94C125.603 210.747 125.653 210.457 125.653 210.07C125.653 209.677 125.603 209.387 125.503 209.2C125.403 209.007 125.289 208.88 125.163 208.82C125.043 208.76 124.939 208.73 124.853 208.73C124.766 208.73 124.659 208.76 124.533 208.82C124.406 208.88 124.293 209.007 124.193 209.2C124.093 209.387 124.043 209.677 124.043 210.07C124.043 210.457 124.093 210.747 124.193 210.94C124.293 211.133 124.406 211.26 124.533 211.32C124.659 211.38 124.766 211.41 124.853 211.41ZM128.673 215.05C127.726 215.05 127.253 214.437 127.253 213.21C127.253 211.983 127.726 211.37 128.673 211.37C129.613 211.37 130.083 211.983 130.083 213.21C130.083 214.437 129.613 215.05 128.673 215.05ZM128.673 214.55C128.759 214.55 128.863 214.52 128.983 214.46C129.109 214.4 129.223 214.273 129.323 214.08C129.423 213.887 129.473 213.597 129.473 213.21C129.473 212.817 129.423 212.527 129.323 212.34C129.223 212.147 129.109 212.02 128.983 211.96C128.863 211.9 128.759 211.87 128.673 211.87C128.586 211.87 128.479 211.9 128.353 211.96C128.226 212.02 128.113 212.147 128.013 212.34C127.913 212.527 127.863 212.817 127.863 213.21C127.863 213.597 127.913 213.887 128.013 214.08C128.113 214.273 128.226 214.4 128.353 214.46C128.479 214.52 128.586 214.55 128.673 214.55ZM124.343 215.22L128.413 208.15H129.093L125.023 215.22H124.343Z" fill="white"/>
<rect x="22.5" y="251.5" width="69" height="44" fill="#141526" stroke="#8AF4A2"/>
<path d="M22.5 279.102C22.5027 279.096 22.5056 279.089 22.5086 279.082C22.5409 279.01 22.5912 278.9 22.6609 278.76C22.8004 278.478 23.0175 278.07 23.3241 277.577C23.9375 276.589 24.9072 275.259 26.3267 273.904C29.1594 271.201 33.7991 268.383 41.0265 267.999C48.0072 267.629 52.0118 271.264 55.8194 274.72C55.8994 274.793 55.9792 274.865 56.059 274.938C57.9841 276.684 59.9024 278.387 62.1365 279.363C64.4029 280.353 66.9672 280.586 70.1644 279.472C76.4487 277.284 82.024 272.043 85.9695 268.263C86.095 268.142 86.2187 268.024 86.3408 267.907C87.1847 267.097 87.947 266.366 88.6255 265.752C89.4069 265.045 90.05 264.518 90.5554 264.212C90.8087 264.058 90.9991 263.978 91.1346 263.948C91.1995 263.934 91.2411 263.933 91.2644 263.936C91.2852 263.938 91.2928 263.943 91.2959 263.945C91.3004 263.947 91.3561 263.984 91.4099 264.161C91.4637 264.339 91.5 264.609 91.5 265V265.039V265.079V265.118V265.159V265.199V265.24V265.282V265.324V265.366V265.409V265.452V265.495V265.539V265.583V265.628V265.673V265.718V265.764V265.81V265.856V265.903V265.95V265.998V266.046V266.094V266.142V266.191V266.241V266.29V266.34V266.391V266.442V266.493V266.544V266.596V266.648V266.7V266.753V266.806V266.86V266.913V266.968V267.022V267.077V267.132V267.187V267.243V267.299V267.355V267.412V267.469V267.526V267.584V267.642V267.7V267.758V267.817V267.876V267.936V267.995V268.055V268.116V268.176V268.237V268.298V268.36V268.421V268.483V268.546V268.608V268.671V268.734V268.797V268.861V268.925V268.989V269.053V269.118V269.183V269.248V269.314V269.379V269.445V269.512V269.578V269.645V269.712V269.779V269.846V269.914V269.982V270.05V270.118V270.187V270.256V270.325V270.394V270.464V270.533V270.603V270.673V270.744V270.814V270.885V270.956V271.027V271.099V271.17V271.242V271.314V271.387V271.459V271.532V271.604V271.677V271.751V271.824V271.898V271.971V272.045V272.119V272.194V272.268V272.343V272.418V272.493V272.568V272.643V272.719V272.794V272.87V272.946V273.022V273.098V273.175V273.251V273.328V273.405V273.482V273.559V273.637V273.714V273.792V273.869V273.947V274.025V274.103V274.182V274.26V274.339V274.417V274.496V274.575V274.654V274.733V274.812V274.892V274.971V275.051V275.13V275.21V275.29V275.37V275.45V275.53V275.61V275.691V275.771V275.852V275.932V276.013V276.094V276.175V276.256V276.337V276.418V276.499V276.58V276.662V276.743V276.824V276.906V276.988V277.069V277.151V277.233V277.315V277.396V277.478V277.56V277.642V277.725V277.807V277.889V277.971V278.053V278.136V278.218V278.3V278.383V278.465V278.547V278.63V278.712V278.795V278.878V278.96V279.043V279.125V279.208V279.29V279.373V279.456V279.538V279.621V279.704V279.786V279.869V279.951V280.034V280.117V280.199V280.282V280.364V280.447V280.53V280.612V280.695V280.777V280.859V280.942V281.024V281.107V281.189V281.271V281.354V281.436V281.518V281.6V281.682V281.764V281.846V281.928V282.01V282.092V282.174V282.255V282.337V282.419V282.5V282.582V282.663V282.745V282.826V282.907V282.988V283.069V283.15V283.231V283.312V283.393V283.473V283.554V283.634V283.715V283.795V283.875V283.955V284.035V284.115V284.195V284.275V284.354V284.434V284.513V284.593V284.672V284.751V284.83V284.908V284.987V285.066V285.144V285.222V285.301V285.379V285.456V285.534V285.612V285.689V285.767V285.844V285.921V285.998V286.075V286.151V286.228V286.304V286.38V286.456V286.532V286.608V286.683V286.759V286.834V286.909V286.984V287.059V287.133V287.208V287.282V287.356V287.429V287.503V287.577V287.65V287.723V287.796V287.868V287.941V288.013V288.085V288.157V288.229V288.3V288.372V288.443V288.514V288.584V288.655V288.725V288.795V288.865V288.934V289.004V289.073V289.142V289.21V289.279V289.347V289.415V289.483V289.55V289.617V289.684V289.751V289.818V289.884V289.95V290.016V290.081V290.146V290.211V290.276V290.341V290.405V290.469V290.533V290.596V290.659V290.722V290.785V290.847V290.909V290.971V291.032V291.094V291.155V291.215V291.276V291.336V291.395V291.455V291.514V291.573V291.632V291.69V291.748V291.805V291.863V291.92V291.977V292.033V292.089V292.145V292.201V292.256V292.311V292.365V292.419V292.473V292.527V292.58V292.633V292.685V292.737V292.789V292.841V292.892V292.943V292.993V293.043V293.093V293.143V293.192V293.24V293.289V293.337V293.384V293.432V293.479V293.525V293.571V293.617V293.663V293.708V293.752V293.797V293.841V293.884V293.927V293.97V294.012V294.054V294.096V294.137V294.178V294.218V294.258V294.298V294.337V294.376V294.414V294.452V294.49V294.527V294.564V294.6V294.636V294.671V294.706V294.741V294.775V294.809V294.842V294.875V294.908V294.94V294.972V295.003V295.033V295.064V295.094V295.123V295.152V295.18V295.209V295.236V295.263V295.29V295.316V295.342V295.367V295.392V295.416V295.44V295.464V295.487V295.5H22.5V279.102Z" fill="#8AF4A2" fill-opacity="0.2" stroke="#8AF4A2"/>
<path d="M111.136 264V253.328H116.336C117.541 253.328 118.485 253.611 119.168 254.176C119.851 254.731 120.192 255.573 120.192 256.704C120.192 257.152 120.107 257.589 119.936 258.016C119.776 258.432 119.531 258.805 119.2 259.136C118.88 259.456 118.48 259.685 118 259.824L120.736 264H117.44L115.328 260.32H113.728V264H111.136ZM113.728 258.416H115.904C116.363 258.416 116.725 258.293 116.992 258.048C117.259 257.803 117.392 257.397 117.392 256.832C117.392 256.341 117.275 255.968 117.04 255.712C116.805 255.456 116.464 255.328 116.016 255.328H113.728V258.416ZM122.672 264L126.704 253.328H129.536L133.312 264H130.656L129.872 261.696H125.888L125.12 264H122.672ZM126.512 259.792H129.232L127.856 255.744L126.512 259.792ZM135.782 264V253.328H138.422L141.414 257.488L144.47 253.328H147.046V264H144.454V256.768L141.318 260.96L138.262 256.784V264H135.782Z" fill="white"/>
<path d="M111.56 284L114.44 278.05H110.7V277.33H115.25V278L112.36 284H111.56ZM117.242 284V283H118.242V284H117.242ZM122.68 284.08C122.233 284.08 121.853 284.04 121.54 283.96C121.233 283.873 120.977 283.777 120.77 283.67V282.92C120.903 283.007 121.123 283.107 121.43 283.22C121.743 283.327 122.143 283.38 122.63 283.38C122.97 283.38 123.237 283.337 123.43 283.25C123.63 283.157 123.777 283.04 123.87 282.9C123.963 282.753 124.023 282.6 124.05 282.44C124.077 282.273 124.09 282.113 124.09 281.96C124.09 281.54 124.017 281.233 123.87 281.04C123.73 280.84 123.547 280.71 123.32 280.65C123.1 280.59 122.87 280.56 122.63 280.56C122.277 280.56 121.983 280.587 121.75 280.64C121.517 280.687 121.343 280.737 121.23 280.79C121.117 280.843 121.06 280.87 121.06 280.87L120.61 280.41L120.95 277.33H124.38V278.04H121.57L121.4 280.01C121.807 279.897 122.233 279.84 122.68 279.84C122.92 279.84 123.163 279.87 123.41 279.93C123.663 279.99 123.893 280.097 124.1 280.25C124.313 280.397 124.483 280.61 124.61 280.89C124.737 281.163 124.8 281.52 124.8 281.96C124.8 282.4 124.737 282.76 124.61 283.04C124.483 283.313 124.313 283.527 124.1 283.68C123.893 283.827 123.663 283.93 123.41 283.99C123.163 284.05 122.92 284.08 122.68 284.08ZM129.794 284.1C128.767 284.1 127.994 283.81 127.474 283.23C126.961 282.65 126.704 281.793 126.704 280.66C126.704 278.38 127.734 277.24 129.794 277.24C130.161 277.24 130.521 277.277 130.874 277.35C131.227 277.423 131.567 277.537 131.894 277.69V278.44C131.581 278.3 131.254 278.18 130.914 278.08C130.574 277.973 130.227 277.92 129.874 277.92C129.027 277.92 128.407 278.143 128.014 278.59C127.621 279.03 127.424 279.72 127.424 280.66C127.424 281.607 127.621 282.303 128.014 282.75C128.407 283.19 129.027 283.41 129.874 283.41C130.407 283.41 130.917 283.33 131.404 283.17V281.27H129.794V280.57H132.124V283.58C131.404 283.927 130.627 284.1 129.794 284.1ZM134.519 284V277.33H136.729C137.309 277.33 137.759 277.413 138.079 277.58C138.399 277.74 138.622 277.957 138.749 278.23C138.882 278.497 138.949 278.793 138.949 279.12C138.949 279.387 138.909 279.6 138.829 279.76C138.756 279.913 138.662 280.04 138.549 280.14C138.436 280.24 138.326 280.337 138.219 280.43C138.392 280.503 138.566 280.61 138.739 280.75C138.912 280.89 139.056 281.073 139.169 281.3C139.289 281.52 139.349 281.79 139.349 282.11C139.349 282.777 139.132 283.26 138.699 283.56C138.272 283.853 137.682 284 136.929 284H134.519ZM135.239 280.22H136.889C137.109 280.22 137.319 280.2 137.519 280.16C137.726 280.113 137.896 280.017 138.029 279.87C138.162 279.717 138.229 279.483 138.229 279.17C138.229 278.717 138.102 278.413 137.849 278.26C137.596 278.1 137.246 278.02 136.799 278.02H135.239V280.22ZM135.239 283.33H136.989C137.276 283.33 137.542 283.3 137.789 283.24C138.042 283.18 138.246 283.06 138.399 282.88C138.552 282.693 138.629 282.423 138.629 282.07C138.629 281.803 138.579 281.593 138.479 281.44C138.379 281.28 138.246 281.163 138.079 281.09C137.919 281.01 137.739 280.96 137.539 280.94C137.346 280.913 137.152 280.9 136.959 280.9H135.239V283.33ZM146.289 285.13C146.162 284.897 146.009 284.573 145.829 284.16C145.655 283.753 145.502 283.277 145.369 282.73C145.242 282.183 145.179 281.59 145.179 280.95C145.179 280.303 145.242 279.707 145.369 279.16C145.502 278.613 145.655 278.137 145.829 277.73C146.009 277.317 146.162 276.993 146.289 276.76H147.049C146.989 276.86 146.895 277.037 146.769 277.29C146.649 277.537 146.519 277.843 146.379 278.21C146.245 278.577 146.132 278.993 146.039 279.46C145.945 279.92 145.899 280.417 145.899 280.95C145.899 281.477 145.945 281.973 146.039 282.44C146.132 282.9 146.245 283.317 146.379 283.69C146.519 284.057 146.649 284.363 146.769 284.61C146.895 284.857 146.989 285.03 147.049 285.13H146.289ZM150.546 284.08C150.359 284.08 150.183 284.067 150.016 284.04C149.856 284.02 149.709 283.99 149.576 283.95V283.28C149.703 283.307 149.839 283.333 149.986 283.36C150.139 283.387 150.299 283.4 150.466 283.4C150.573 283.4 150.713 283.383 150.886 283.35C151.066 283.317 151.256 283.257 151.456 283.17C151.663 283.083 151.859 282.957 152.046 282.79C152.239 282.617 152.406 282.397 152.546 282.13C152.693 281.863 152.789 281.533 152.836 281.14C152.683 281.233 152.469 281.333 152.196 281.44C151.929 281.54 151.636 281.59 151.316 281.59C150.616 281.59 150.063 281.403 149.656 281.03C149.249 280.65 149.046 280.137 149.046 279.49C149.046 279.23 149.086 278.97 149.166 278.71C149.246 278.443 149.376 278.2 149.556 277.98C149.736 277.753 149.969 277.573 150.256 277.44C150.543 277.307 150.896 277.24 151.316 277.24C152.829 277.24 153.586 278.283 153.586 280.37C153.586 281.037 153.509 281.597 153.356 282.05C153.209 282.497 153.016 282.857 152.776 283.13C152.536 283.397 152.279 283.6 152.006 283.74C151.733 283.873 151.466 283.963 151.206 284.01C150.946 284.057 150.726 284.08 150.546 284.08ZM149.766 279.5C149.766 279.953 149.899 280.303 150.166 280.55C150.433 280.797 150.816 280.92 151.316 280.92C151.683 280.92 151.999 280.853 152.266 280.72C152.533 280.587 152.733 280.467 152.866 280.36C152.853 279.84 152.803 279.42 152.716 279.1C152.636 278.78 152.526 278.533 152.386 278.36C152.246 278.187 152.086 278.07 151.906 278.01C151.726 277.95 151.529 277.92 151.316 277.92C150.956 277.92 150.669 277.983 150.456 278.11C150.249 278.237 150.096 278.39 149.996 278.57C149.903 278.75 149.839 278.927 149.806 279.1C149.779 279.273 149.766 279.407 149.766 279.5ZM158.585 284V282H155.345V281.23L158.495 277.33H159.305V281.33H160.255V282H159.305V284H158.585ZM156.145 281.33H158.585V278.36L156.145 281.33ZM163.473 280.91C162.527 280.91 162.053 280.297 162.053 279.07C162.053 277.843 162.527 277.23 163.473 277.23C164.413 277.23 164.883 277.843 164.883 279.07C164.883 280.297 164.413 280.91 163.473 280.91ZM163.473 280.41C163.56 280.41 163.663 280.38 163.783 280.32C163.91 280.26 164.023 280.133 164.123 279.94C164.223 279.747 164.273 279.457 164.273 279.07C164.273 278.677 164.223 278.387 164.123 278.2C164.023 278.007 163.91 277.88 163.783 277.82C163.663 277.76 163.56 277.73 163.473 277.73C163.387 277.73 163.28 277.76 163.153 277.82C163.027 277.88 162.913 278.007 162.813 278.2C162.713 278.387 162.663 278.677 162.663 279.07C162.663 279.457 162.713 279.747 162.813 279.94C162.913 280.133 163.027 280.26 163.153 280.32C163.28 280.38 163.387 280.41 163.473 280.41ZM167.293 284.05C166.347 284.05 165.873 283.437 165.873 282.21C165.873 280.983 166.347 280.37 167.293 280.37C168.233 280.37 168.703 280.983 168.703 282.21C168.703 283.437 168.233 284.05 167.293 284.05ZM167.293 283.55C167.38 283.55 167.483 283.52 167.603 283.46C167.73 283.4 167.843 283.273 167.943 283.08C168.043 282.887 168.093 282.597 168.093 282.21C168.093 281.817 168.043 281.527 167.943 281.34C167.843 281.147 167.73 281.02 167.603 280.96C167.483 280.9 167.38 280.87 167.293 280.87C167.207 280.87 167.1 280.9 166.973 280.96C166.847 281.02 166.733 281.147 166.633 281.34C166.533 281.527 166.483 281.817 166.483 282.21C166.483 282.597 166.533 282.887 166.633 283.08C166.733 283.273 166.847 283.4 166.973 283.46C167.1 283.52 167.207 283.55 167.293 283.55ZM162.963 284.22L167.033 277.15H167.713L163.643 284.22H162.963ZM170.531 285.13C170.591 285.03 170.684 284.853 170.811 284.6C170.938 284.353 171.068 284.047 171.201 283.68C171.334 283.313 171.448 282.897 171.541 282.43C171.641 281.963 171.691 281.467 171.691 280.94C171.691 280.413 171.641 279.92 171.541 279.46C171.448 278.993 171.334 278.577 171.201 278.21C171.068 277.837 170.938 277.527 170.811 277.28C170.684 277.033 170.591 276.86 170.531 276.76H171.301C171.434 276.993 171.588 277.317 171.761 277.73C171.934 278.137 172.084 278.613 172.211 279.16C172.344 279.707 172.411 280.3 172.411 280.94C172.411 281.58 172.344 282.177 172.211 282.73C172.084 283.277 171.934 283.753 171.761 284.16C171.588 284.573 171.434 284.897 171.301 285.13H170.531Z" fill="white"/>
<path d="M22.948 64V55.996H26.5C27.332 55.996 27.972 56.2 28.42 56.608C28.868 57.008 29.092 57.612 29.092 58.42C29.092 58.98 28.936 59.48 28.624 59.92C28.32 60.352 27.892 60.628 27.34 60.748L29.476 64H27.832L25.96 60.976H24.268V64H22.948ZM24.268 59.896H26.128C27.176 59.896 27.7 59.428 27.7 58.492C27.7 58.06 27.596 57.724 27.388 57.484C27.18 57.236 26.832 57.112 26.344 57.112H24.268V59.896ZM34.3005 64.18C33.4125 64.18 32.7045 63.912 32.1765 63.376C31.6565 62.832 31.3965 62.048 31.3965 61.024C31.3965 59.976 31.6405 59.184 32.1285 58.648C32.6245 58.104 33.3125 57.832 34.1925 57.832C34.8405 57.832 35.3645 57.976 35.7645 58.264C36.1645 58.552 36.4525 58.956 36.6285 59.476C36.8125 59.988 36.9005 60.588 36.8925 61.276H32.6565C32.6965 61.868 32.8725 62.32 33.1845 62.632C33.4965 62.936 33.9365 63.088 34.5045 63.088C34.9045 63.088 35.2685 63.04 35.5965 62.944C35.9325 62.84 36.2165 62.724 36.4485 62.596V63.772C36.1605 63.9 35.8405 64 35.4885 64.072C35.1365 64.144 34.7405 64.18 34.3005 64.18ZM34.1565 58.864C33.7485 58.864 33.4205 58.972 33.1725 59.188C32.9245 59.396 32.7645 59.78 32.6925 60.34H35.6085C35.5605 59.828 35.4165 59.456 35.1765 59.224C34.9445 58.984 34.6045 58.864 34.1565 58.864ZM40.9213 64.18C40.4893 64.18 40.1213 64.136 39.8173 64.048C39.5213 63.96 39.2293 63.844 38.9413 63.7V62.512C39.2533 62.704 39.5573 62.864 39.8533 62.992C40.1573 63.112 40.5133 63.172 40.9213 63.172C41.2733 63.172 41.5453 63.104 41.7373 62.968C41.9293 62.824 42.0253 62.64 42.0253 62.416C42.0253 62.232 41.9613 62.088 41.8333 61.984C41.7133 61.872 41.5573 61.784 41.3653 61.72C41.1733 61.648 40.9733 61.576 40.7653 61.504C40.4773 61.432 40.1893 61.336 39.9013 61.216C39.6213 61.088 39.3893 60.908 39.2053 60.676C39.0213 60.444 38.9293 60.124 38.9293 59.716C38.9293 59.268 39.0453 58.908 39.2773 58.636C39.5093 58.364 39.7973 58.168 40.1413 58.048C40.4933 57.92 40.8413 57.856 41.1853 57.856C41.6093 57.864 41.9533 57.916 42.2173 58.012C42.4893 58.108 42.7573 58.22 43.0213 58.348V59.44C42.7253 59.288 42.4493 59.156 42.1933 59.044C41.9453 58.932 41.6533 58.876 41.3173 58.876C40.9973 58.876 40.7333 58.936 40.5253 59.056C40.3253 59.168 40.2253 59.336 40.2253 59.56C40.2253 59.752 40.2813 59.904 40.3933 60.016C40.5133 60.128 40.6653 60.22 40.8493 60.292C41.0413 60.356 41.2453 60.416 41.4613 60.472C41.6613 60.528 41.8693 60.596 42.0853 60.676C42.3013 60.748 42.5013 60.848 42.6853 60.976C42.8693 61.096 43.0173 61.26 43.1293 61.468C43.2493 61.676 43.3093 61.944 43.3093 62.272C43.3093 62.728 43.1893 63.096 42.9493 63.376C42.7173 63.656 42.4213 63.86 42.0613 63.988C41.7013 64.116 41.3213 64.18 40.9213 64.18ZM48.2028 64.18C47.2268 64.18 46.4988 63.904 46.0188 63.352C45.5468 62.8 45.3108 62.012 45.3108 60.988C45.3108 59.908 45.5548 59.112 46.0428 58.6C46.5388 58.088 47.2548 57.832 48.1908 57.832C49.1748 57.832 49.9068 58.108 50.3868 58.66C50.8668 59.204 51.1068 59.98 51.1068 60.988C51.1068 62.004 50.8548 62.792 50.3508 63.352C49.8468 63.904 49.1308 64.18 48.2028 64.18ZM48.1908 63.112C48.7988 63.112 49.2268 62.916 49.4748 62.524C49.7228 62.132 49.8468 61.62 49.8468 60.988C49.8468 60.3 49.7188 59.78 49.4628 59.428C49.2068 59.068 48.7828 58.888 48.1908 58.888C47.5828 58.888 47.1588 59.076 46.9188 59.452C46.6788 59.82 46.5588 60.332 46.5588 60.988C46.5588 61.652 46.6828 62.172 46.9308 62.548C47.1788 62.924 47.5988 63.112 48.1908 63.112ZM56.0643 64.18C55.2403 64.18 54.5883 63.976 54.1083 63.568C53.6363 63.16 53.4003 62.556 53.4003 61.756V57.976H54.6603V61.576C54.6603 62.088 54.7723 62.468 54.9963 62.716C55.2203 62.956 55.5763 63.076 56.0643 63.076C56.5443 63.076 56.8963 62.956 57.1203 62.716C57.3523 62.468 57.4683 62.088 57.4683 61.576V57.976H58.6803V61.756C58.6803 62.556 58.4483 63.16 57.9843 63.568C57.5203 63.976 56.8803 64.18 56.0643 64.18ZM61.295 64V58.528C61.399 58.464 61.591 58.38 61.871 58.276C62.151 58.164 62.479 58.064 62.855 57.976C63.239 57.888 63.631 57.844 64.031 57.844C64.231 57.844 64.395 57.86 64.523 57.892C64.651 57.924 64.759 57.96 64.847 58V59.008C64.487 58.952 64.095 58.936 63.671 58.96C63.247 58.984 62.875 59.024 62.555 59.08V64H61.295ZM69.2519 64.12C68.8839 64.12 68.5239 64.068 68.1719 63.964C67.8199 63.86 67.4999 63.692 67.2119 63.46C66.9319 63.22 66.7079 62.904 66.5399 62.512C66.3719 62.112 66.2879 61.616 66.2879 61.024C66.2879 60.416 66.3679 59.908 66.5279 59.5C66.6879 59.092 66.9079 58.768 67.1879 58.528C67.4679 58.28 67.7839 58.104 68.1359 58C68.4959 57.896 68.8639 57.844 69.2399 57.844C69.8959 57.844 70.5119 57.964 71.0879 58.204V59.332C70.8159 59.212 70.5439 59.12 70.2719 59.056C69.9999 58.984 69.7159 58.948 69.4199 58.948C68.7959 58.948 68.3239 59.104 68.0039 59.416C67.6919 59.728 67.5359 60.232 67.5359 60.928C67.5359 61.648 67.6839 62.176 67.9799 62.512C68.2839 62.84 68.7759 63.004 69.4559 63.004C69.7519 63.004 70.0399 62.968 70.3199 62.896C70.5999 62.816 70.8599 62.72 71.0999 62.608V63.736C70.8119 63.864 70.5159 63.96 70.2119 64.024C69.9159 64.088 69.5959 64.12 69.2519 64.12ZM75.985 64.18C75.097 64.18 74.389 63.912 73.861 63.376C73.341 62.832 73.081 62.048 73.081 61.024C73.081 59.976 73.325 59.184 73.813 58.648C74.309 58.104 74.997 57.832 75.877 57.832C76.525 57.832 77.049 57.976 77.449 58.264C77.849 58.552 78.137 58.956 78.313 59.476C78.497 59.988 78.585 60.588 78.577 61.276H74.341C74.381 61.868 74.557 62.32 74.869 62.632C75.181 62.936 75.621 63.088 76.189 63.088C76.589 63.088 76.953 63.04 77.281 62.944C77.617 62.84 77.901 62.724 78.133 62.596V63.772C77.845 63.9 77.525 64 77.173 64.072C76.821 64.144 76.425 64.18 75.985 64.18ZM75.841 58.864C75.433 58.864 75.105 58.972 74.857 59.188C74.609 59.396 74.449 59.78 74.377 60.34H77.293C77.245 59.828 77.101 59.456 76.861 59.224C76.629 58.984 76.289 58.864 75.841 58.864ZM88.548 64.168C87.452 64.168 86.616 63.892 86.04 63.34C85.464 62.788 85.176 61.96 85.176 60.856V55.996H86.532V60.844C86.532 61.596 86.696 62.156 87.024 62.524C87.352 62.884 87.844 63.064 88.5 63.064C89.14 63.064 89.628 62.884 89.964 62.524C90.308 62.156 90.48 61.596 90.48 60.844V55.996H91.752V60.856C91.752 61.96 91.464 62.788 90.888 63.34C90.312 63.892 89.532 64.168 88.548 64.168ZM96.1686 64.18C95.7366 64.18 95.3686 64.136 95.0646 64.048C94.7686 63.96 94.4766 63.844 94.1886 63.7V62.512C94.5006 62.704 94.8046 62.864 95.1006 62.992C95.4046 63.112 95.7606 63.172 96.1686 63.172C96.5206 63.172 96.7926 63.104 96.9846 62.968C97.1766 62.824 97.2726 62.64 97.2726 62.416C97.2726 62.232 97.2086 62.088 97.0806 61.984C96.9606 61.872 96.8046 61.784 96.6126 61.72C96.4206 61.648 96.2206 61.576 96.0126 61.504C95.7246 61.432 95.4366 61.336 95.1486 61.216C94.8686 61.088 94.6366 60.908 94.4526 60.676C94.2686 60.444 94.1766 60.124 94.1766 59.716C94.1766 59.268 94.2926 58.908 94.5246 58.636C94.7566 58.364 95.0446 58.168 95.3886 58.048C95.7406 57.92 96.0886 57.856 96.4326 57.856C96.8566 57.864 97.2006 57.916 97.4646 58.012C97.7366 58.108 98.0046 58.22 98.2686 58.348V59.44C97.9726 59.288 97.6966 59.156 97.4406 59.044C97.1926 58.932 96.9006 58.876 96.5646 58.876C96.2446 58.876 95.9806 58.936 95.7726 59.056C95.5726 59.168 95.4726 59.336 95.4726 59.56C95.4726 59.752 95.5286 59.904 95.6406 60.016C95.7606 60.128 95.9126 60.22 96.0966 60.292C96.2886 60.356 96.4926 60.416 96.7086 60.472C96.9086 60.528 97.1166 60.596 97.3326 60.676C97.5486 60.748 97.7486 60.848 97.9326 60.976C98.1166 61.096 98.2646 61.26 98.3766 61.468C98.4966 61.676 98.5566 61.944 98.5566 62.272C98.5566 62.728 98.4366 63.096 98.1966 63.376C97.9646 63.656 97.6686 63.86 97.3086 63.988C96.9486 64.116 96.5686 64.18 96.1686 64.18ZM103.054 64.18C102.646 64.18 102.254 64.124 101.878 64.012C101.502 63.9 101.194 63.704 100.954 63.424C100.714 63.144 100.594 62.752 100.594 62.248C100.594 61.584 100.786 61.092 101.17 60.772C101.562 60.444 102.098 60.28 102.778 60.28C103.17 60.28 103.514 60.32 103.81 60.4C104.114 60.48 104.37 60.58 104.578 60.7V60.136C104.578 59.712 104.446 59.404 104.182 59.212C103.926 59.012 103.566 58.912 103.102 58.912C102.758 58.912 102.406 58.968 102.046 59.08C101.694 59.184 101.402 59.332 101.17 59.524V58.348C101.394 58.204 101.718 58.084 102.142 57.988C102.566 57.892 103.01 57.844 103.474 57.844C103.85 57.844 104.218 57.904 104.578 58.024C104.946 58.144 105.246 58.352 105.478 58.648C105.718 58.944 105.838 59.344 105.838 59.848L105.826 62.728C105.826 63.12 105.702 63.42 105.454 63.628C105.214 63.836 104.886 63.98 104.47 64.06C104.054 64.14 103.582 64.18 103.054 64.18ZM101.842 62.188C101.842 62.428 101.91 62.624 102.046 62.776C102.182 62.92 102.35 63.028 102.55 63.1C102.758 63.164 102.974 63.196 103.198 63.196C103.662 63.196 104.006 63.164 104.23 63.1C104.462 63.028 104.578 62.88 104.578 62.656V61.492C104.394 61.412 104.186 61.348 103.954 61.3C103.73 61.252 103.49 61.228 103.234 61.228C102.306 61.228 101.842 61.548 101.842 62.188ZM110.836 64.18C109.956 64.164 109.284 63.896 108.82 63.376C108.364 62.856 108.136 62.116 108.136 61.156C108.136 60.476 108.22 59.92 108.388 59.488C108.564 59.056 108.8 58.72 109.096 58.48C109.4 58.24 109.74 58.076 110.116 57.988C110.5 57.892 110.896 57.844 111.304 57.844C111.728 57.844 112.12 57.9 112.48 58.012C112.84 58.124 113.124 58.296 113.332 58.528C113.548 58.752 113.656 59.044 113.656 59.404V64.18C113.656 64.596 113.564 64.98 113.38 65.332C113.204 65.692 112.908 65.976 112.492 66.184C112.084 66.392 111.536 66.496 110.848 66.496C110.416 66.496 110.036 66.46 109.708 66.388C109.388 66.324 109.12 66.256 108.904 66.184V65.032C109.096 65.104 109.356 65.18 109.684 65.26C110.02 65.348 110.376 65.392 110.752 65.392C111.224 65.392 111.576 65.332 111.808 65.212C112.048 65.1 112.208 64.948 112.288 64.756C112.368 64.572 112.408 64.372 112.408 64.156V63.736C112.192 63.872 111.944 63.98 111.664 64.06C111.384 64.14 111.108 64.18 110.836 64.18ZM111.04 63.148C111.272 63.148 111.508 63.12 111.748 63.064C111.988 63.008 112.208 62.92 112.408 62.8V59.644C112.408 59.34 112.288 59.144 112.048 59.056C111.808 58.96 111.536 58.912 111.232 58.912C110.736 58.912 110.356 59.012 110.092 59.212C109.836 59.412 109.66 59.68 109.564 60.016C109.468 60.344 109.42 60.712 109.42 61.12C109.42 61.728 109.552 62.22 109.816 62.596C110.08 62.964 110.488 63.148 111.04 63.148ZM118.83 64.18C117.942 64.18 117.234 63.912 116.706 63.376C116.186 62.832 115.926 62.048 115.926 61.024C115.926 59.976 116.17 59.184 116.658 58.648C117.154 58.104 117.842 57.832 118.722 57.832C119.37 57.832 119.894 57.976 120.294 58.264C120.694 58.552 120.982 58.956 121.158 59.476C121.342 59.988 121.43 60.588 121.422 61.276H117.186C117.226 61.868 117.402 62.32 117.714 62.632C118.026 62.936 118.466 63.088 119.034 63.088C119.434 63.088 119.798 63.04 120.126 62.944C120.462 62.84 120.746 62.724 120.978 62.596V63.772C120.69 63.9 120.37 64 120.018 64.072C119.666 64.144 119.27 64.18 118.83 64.18ZM118.686 58.864C118.278 58.864 117.95 58.972 117.702 59.188C117.454 59.396 117.294 59.78 117.222 60.34H120.138C120.09 59.828 119.946 59.456 119.706 59.224C119.474 58.984 119.134 58.864 118.686 58.864ZM129.449 64L127.445 57.976H128.789L130.133 62.512L131.405 57.976H132.449L133.757 62.56L135.125 57.976H136.421L134.417 64H133.217L131.921 59.704L130.637 64H129.449ZM138.504 57.016V55.876H139.848V57.016H138.504ZM138.54 64V58.012H139.8L139.812 64H138.54ZM144.609 64.156C144.057 64.156 143.625 64.012 143.313 63.724C143.001 63.428 142.845 63.004 142.845 62.452V59.02H141.873V57.976H142.845V56.296H144.141V57.976H145.605V59.02H144.141V62.2C144.141 62.48 144.189 62.692 144.285 62.836C144.389 62.972 144.577 63.04 144.849 63.04C145.137 63.04 145.389 62.976 145.605 62.848V63.964C145.461 64.028 145.297 64.076 145.113 64.108C144.937 64.14 144.769 64.156 144.609 64.156ZM147.906 64V55.432H149.166V58.336C149.446 58.184 149.738 58.064 150.042 57.976C150.346 57.888 150.646 57.844 150.942 57.844C151.646 57.844 152.202 58.032 152.61 58.408C153.018 58.784 153.222 59.404 153.222 60.268V64H151.962V60.424C151.962 59.424 151.502 58.924 150.582 58.924C150.086 58.924 149.614 59.056 149.166 59.32L149.154 64H147.906ZM158.416 64.18C157.44 64.18 156.712 63.904 156.232 63.352C155.76 62.8 155.524 62.012 155.524 60.988C155.524 59.908 155.768 59.112 156.256 58.6C156.752 58.088 157.468 57.832 158.404 57.832C159.388 57.832 160.12 58.108 160.6 58.66C161.08 59.204 161.32 59.98 161.32 60.988C161.32 62.004 161.068 62.792 160.564 63.352C160.06 63.904 159.344 64.18 158.416 64.18ZM158.404 63.112C159.012 63.112 159.44 62.916 159.688 62.524C159.936 62.132 160.06 61.62 160.06 60.988C160.06 60.3 159.932 59.78 159.676 59.428C159.42 59.068 158.996 58.888 158.404 58.888C157.796 58.888 157.372 59.076 157.132 59.452C156.892 59.82 156.772 60.332 156.772 60.988C156.772 61.652 156.896 62.172 157.144 62.548C157.392 62.924 157.812 63.112 158.404 63.112ZM166.278 64.18C165.454 64.18 164.802 63.976 164.322 63.568C163.85 63.16 163.614 62.556 163.614 61.756V57.976H164.874V61.576C164.874 62.088 164.986 62.468 165.21 62.716C165.434 62.956 165.79 63.076 166.278 63.076C166.758 63.076 167.11 62.956 167.334 62.716C167.566 62.468 167.682 62.088 167.682 61.576V57.976H168.894V61.756C168.894 62.556 168.662 63.16 168.198 63.568C167.734 63.976 167.094 64.18 166.278 64.18ZM173.656 64.156C173.104 64.156 172.672 64.012 172.36 63.724C172.048 63.428 171.892 63.004 171.892 62.452V59.02H170.92V57.976H171.892V56.296H173.188V57.976H174.652V59.02H173.188V62.2C173.188 62.48 173.236 62.692 173.332 62.836C173.436 62.972 173.624 63.04 173.896 63.04C174.184 63.04 174.436 62.976 174.652 62.848V63.964C174.508 64.028 174.344 64.076 174.16 64.108C173.984 64.14 173.816 64.156 173.656 64.156ZM22.948 82V73.996H28.084V75.112H24.268V77.5H27.604V78.628H24.268V82H22.948ZM30.3491 82V76.528C30.4531 76.464 30.6451 76.38 30.9251 76.276C31.2051 76.164 31.5331 76.064 31.9091 75.976C32.2931 75.888 32.6851 75.844 33.0851 75.844C33.2851 75.844 33.4491 75.86 33.5771 75.892C33.7051 75.924 33.8131 75.96 33.9011 76V77.008C33.5411 76.952 33.1491 76.936 32.7251 76.96C32.3011 76.984 31.9291 77.024 31.6091 77.08V82H30.3491ZM38.1661 82.18C37.7581 82.18 37.3661 82.124 36.9901 82.012C36.6141 81.9 36.3061 81.704 36.0661 81.424C35.8261 81.144 35.7061 80.752 35.7061 80.248C35.7061 79.584 35.8981 79.092 36.2821 78.772C36.6741 78.444 37.2101 78.28 37.8901 78.28C38.2821 78.28 38.6261 78.32 38.9221 78.4C39.2261 78.48 39.4821 78.58 39.6901 78.7V78.136C39.6901 77.712 39.5581 77.404 39.2941 77.212C39.0381 77.012 38.6781 76.912 38.2141 76.912C37.8701 76.912 37.5181 76.968 37.1581 77.08C36.8061 77.184 36.5141 77.332 36.2821 77.524V76.348C36.5061 76.204 36.8301 76.084 37.2541 75.988C37.6781 75.892 38.1221 75.844 38.5861 75.844C38.9621 75.844 39.3301 75.904 39.6901 76.024C40.0581 76.144 40.3581 76.352 40.5901 76.648C40.8301 76.944 40.9501 77.344 40.9501 77.848L40.9381 80.728C40.9381 81.12 40.8141 81.42 40.5661 81.628C40.3261 81.836 39.9981 81.98 39.5821 82.06C39.1661 82.14 38.6941 82.18 38.1661 82.18ZM36.9541 80.188C36.9541 80.428 37.0221 80.624 37.1581 80.776C37.2941 80.92 37.4621 81.028 37.6621 81.1C37.8701 81.164 38.0861 81.196 38.3101 81.196C38.7741 81.196 39.1181 81.164 39.3421 81.1C39.5741 81.028 39.6901 80.88 39.6901 80.656V79.492C39.5061 79.412 39.2981 79.348 39.0661 79.3C38.8421 79.252 38.6021 79.228 38.3461 79.228C37.4181 79.228 36.9541 79.548 36.9541 80.188ZM46.2123 82.12C45.8443 82.12 45.4843 82.068 45.1323 81.964C44.7803 81.86 44.4603 81.692 44.1723 81.46C43.8923 81.22 43.6683 80.904 43.5003 80.512C43.3323 80.112 43.2483 79.616 43.2483 79.024C43.2483 78.416 43.3283 77.908 43.4883 77.5C43.6483 77.092 43.8683 76.768 44.1483 76.528C44.4283 76.28 44.7443 76.104 45.0963 76C45.4563 75.896 45.8243 75.844 46.2003 75.844C46.8563 75.844 47.4723 75.964 48.0483 76.204V77.332C47.7763 77.212 47.5043 77.12 47.2323 77.056C46.9603 76.984 46.6763 76.948 46.3803 76.948C45.7563 76.948 45.2843 77.104 44.9643 77.416C44.6523 77.728 44.4963 78.232 44.4963 78.928C44.4963 79.648 44.6443 80.176 44.9403 80.512C45.2443 80.84 45.7363 81.004 46.4163 81.004C46.7123 81.004 47.0003 80.968 47.2803 80.896C47.5603 80.816 47.8203 80.72 48.0603 80.608V81.736C47.7723 81.864 47.4763 81.96 47.1723 82.024C46.8763 82.088 46.5563 82.12 46.2123 82.12ZM52.5015 82.156C51.9495 82.156 51.5175 82.012 51.2055 81.724C50.8935 81.428 50.7375 81.004 50.7375 80.452V77.02H49.7655V75.976H50.7375V74.296H52.0335V75.976H53.4975V77.02H52.0335V80.2C52.0335 80.48 52.0815 80.692 52.1775 80.836C52.2815 80.972 52.4695 81.04 52.7415 81.04C53.0295 81.04 53.2815 80.976 53.4975 80.848V81.964C53.3535 82.028 53.1895 82.076 53.0055 82.108C52.8295 82.14 52.6615 82.156 52.5015 82.156ZM57.9829 82.18C57.5749 82.18 57.1829 82.124 56.8069 82.012C56.4309 81.9 56.1229 81.704 55.8829 81.424C55.6429 81.144 55.5229 80.752 55.5229 80.248C55.5229 79.584 55.7149 79.092 56.0989 78.772C56.4909 78.444 57.0269 78.28 57.7069 78.28C58.0989 78.28 58.4429 78.32 58.7389 78.4C59.0429 78.48 59.2989 78.58 59.5069 78.7V78.136C59.5069 77.712 59.3749 77.404 59.1109 77.212C58.8549 77.012 58.4949 76.912 58.0309 76.912C57.6869 76.912 57.3349 76.968 56.9749 77.08C56.6229 77.184 56.3309 77.332 56.0989 77.524V76.348C56.3229 76.204 56.6469 76.084 57.0709 75.988C57.4949 75.892 57.9389 75.844 58.4029 75.844C58.7789 75.844 59.1469 75.904 59.5069 76.024C59.8749 76.144 60.1749 76.352 60.4069 76.648C60.6469 76.944 60.7669 77.344 60.7669 77.848L60.7549 80.728C60.7549 81.12 60.6309 81.42 60.3829 81.628C60.1429 81.836 59.8149 81.98 59.3989 82.06C58.9829 82.14 58.5109 82.18 57.9829 82.18ZM56.7709 80.188C56.7709 80.428 56.8389 80.624 56.9749 80.776C57.1109 80.92 57.2789 81.028 57.4789 81.1C57.6869 81.164 57.9029 81.196 58.1269 81.196C58.5909 81.196 58.9349 81.164 59.1589 81.1C59.3909 81.028 59.5069 80.88 59.5069 80.656V79.492C59.3229 79.412 59.1149 79.348 58.8829 79.3C58.6589 79.252 58.4189 79.228 58.1629 79.228C57.2349 79.228 56.7709 79.548 56.7709 80.188ZM64.6252 82H63.3772V73.696H64.6252V82Z" fill="white"/>
<path d="M0 0H210V21H0V0Z" fill="#141526"/>
<circle cx="12" cy="11" r="4" fill="#ED1414"/>
<circle cx="30" cy="11" r="4" fill="#FFF968"/>
<circle cx="48" cy="11" r="4" fill="#3AF236"/>
</svg>
