<svg width="192" height="149" viewBox="0 0 192 149" fill="none" xmlns="http://www.w3.org/2000/svg">
<path d="M160 136.703L161 142.821L160 148.703L159 142.821L160 136.703Z" fill="#FAFF02"/>
<path d="M153 142.703L160.137 141.703L167 142.703L160.137 143.703L153 142.703Z" fill="#FAFF02"/>
<ellipse cx="95" cy="59" rx="48" ry="46" fill="#CC46E2"/>
<path d="M50.5 76.0041C49 73.5041 49 71.0041 49 71.0041C49 71.0041 78 65.0041 89.5 57.5041C101 50.0041 123 23.0041 123 22.0041C123 21.0041 124 22.0041 125.5 23.5041C127 25.0041 128.5 25 128 26.0041C127.5 27.0082 104 55.5041 94.5 62C85 68.4959 52.5 80.0041 52.5 80.0041C52.5 80.0041 52 78.5041 50.5 76.0041Z" fill="#942A7C"/>
<path d="M41.085 77.9832C26.1621 88.8286 15.3588 98.3683 10.2694 105.194C5.17998 112.021 6.07402 115.772 12.8196 115.894C19.5651 116.017 31.8049 112.504 47.7327 105.875C63.6605 99.2459 82.4326 89.8511 101.279 79.0769C120.125 68.3028 138.048 56.7201 152.401 46.0381C166.755 35.356 176.78 26.1405 180.996 19.7513C185.212 13.362 183.397 10.1376 175.818 10.5538C168.238 10.97 155.297 15.0047 138.903 22.0627L131.575 28.9478C145.226 23.0709 156.002 19.7114 162.313 19.3648C168.624 19.0183 170.136 21.7031 166.625 27.0232C163.114 32.3432 154.767 40.0167 142.815 48.9112C130.864 57.8058 115.94 67.4502 100.248 76.4214C84.5549 85.3926 68.924 93.2154 55.6616 98.7353C42.3991 104.255 32.2075 107.18 26.5907 107.078C20.974 106.976 20.2295 103.852 24.4673 98.1685C28.7051 92.4846 37.7005 84.5413 50.1263 75.5107L41.085 77.9832Z" fill="#CEB0FF"/>
<path d="M160 136.703L161 142.821L160 148.703L159 142.821L160 136.703Z" fill="#FAFF02"/>
<path d="M153 142.703L160.137 141.703L167 142.703L160.137 143.703L153 142.703Z" fill="#FAFF02"/>
<ellipse cx="95" cy="59" rx="48" ry="46" fill="#CC46E2"/>
<path d="M50.5 76.0041C49 73.5041 49 71.0041 49 71.0041C49 71.0041 78 65.0041 89.5 57.5041C101 50.0041 123 23.0041 123 22.0041C123 21.0041 124 22.0041 125.5 23.5041C127 25.0041 128.5 25 128 26.0041C127.5 27.0082 104 55.5041 94.5 62C85 68.4959 52.5 80.0041 52.5 80.0041C52.5 80.0041 52 78.5041 50.5 76.0041Z" fill="#942A7C"/>
<path d="M41.085 77.9832C26.1621 88.8286 15.3588 98.3683 10.2694 105.194C5.17998 112.021 6.07402 115.772 12.8196 115.894C19.5651 116.017 31.8049 112.504 47.7327 105.875C63.6605 99.2459 82.4326 89.8511 101.279 79.0769C120.125 68.3028 138.048 56.7201 152.401 46.0381C166.755 35.356 176.78 26.1405 180.996 19.7513C185.212 13.362 183.397 10.1376 175.818 10.5538C168.238 10.97 155.297 15.0047 138.903 22.0627L131.575 28.9478C145.226 23.0709 156.002 19.7114 162.313 19.3648C168.624 19.0183 170.136 21.7031 166.625 27.0232C163.114 32.3432 154.767 40.0167 142.815 48.9112C130.864 57.8058 115.94 67.4502 100.248 76.4214C84.5549 85.3926 68.924 93.2154 55.6616 98.7353C42.3991 104.255 32.2075 107.18 26.5907 107.078C20.974 106.976 20.2295 103.852 24.4673 98.1685C28.7051 92.4846 37.7005 84.5413 50.1263 75.5107L41.085 77.9832Z" fill="#CEB0FF"/>
</svg>
