<svg width="158" height="154" viewBox="0 0 158 154" fill="none" xmlns="http://www.w3.org/2000/svg">
<ellipse cx="79" cy="77" rx="79" ry="77" fill="#97264E"/>
<ellipse cx="79" cy="72" rx="79" ry="72" fill="#D35884"/>
<ellipse cx="90.0863" cy="27.7933" rx="18" ry="9" transform="rotate(20 90.0863 27.7933)" fill="#E2739B"/>
<ellipse cx="125.473" cy="45.9829" rx="13.974" ry="7.62605" transform="rotate(15 125.473 45.9829)" fill="#E2739B"/>
<ellipse cx="59.6862" cy="31.9829" rx="7.60162" ry="5.19242" transform="rotate(15 59.6862 31.9829)" fill="#E2739B"/>
<ellipse cx="87.9961" cy="50" rx="10.173" ry="4.52108" transform="rotate(15 87.9961 50)" fill="#E2739B"/>
<ellipse cx="79" cy="77" rx="79" ry="77" fill="#97264E"/>
<ellipse cx="79" cy="72" rx="79" ry="72" fill="#D35884"/>
<ellipse cx="90.0863" cy="27.7933" rx="18" ry="9" transform="rotate(20 90.0863 27.7933)" fill="#E2739B"/>
<ellipse cx="125.473" cy="45.9829" rx="13.974" ry="7.62605" transform="rotate(15 125.473 45.9829)" fill="#E2739B"/>
<ellipse cx="59.6862" cy="31.9829" rx="7.60162" ry="5.19242" transform="rotate(15 59.6862 31.9829)" fill="#E2739B"/>
<ellipse cx="87.9961" cy="50" rx="10.173" ry="4.52108" transform="rotate(15 87.9961 50)" fill="#E2739B"/>
</svg>
