<svg width="103" height="101" viewBox="0 0 103 101" fill="none" xmlns="http://www.w3.org/2000/svg">
<ellipse cx="51.5" cy="50.5" rx="51.5" ry="50.5" fill="#E4D2F7"/>
<ellipse cx="51.5" cy="47" rx="51.5" ry="47" fill="#F5ECFF"/>
<ellipse rx="11.7425" ry="5.89845" transform="matrix(0.939026 0.343846 -0.340201 0.940353 58.7269 18.2288)" fill="#DDBED6"/>
<ellipse rx="9.11334" ry="4.99949" transform="matrix(0.965533 0.26028 -0.257365 0.966314 81.7977 30.1562)" fill="#DDBED6"/>
<ellipse rx="4.9575" ry="3.40405" transform="matrix(0.965533 0.26028 -0.257365 0.966314 38.9105 20.9742)" fill="#DDBED6"/>
<ellipse rx="6.63448" ry="2.96393" transform="matrix(0.965533 0.26028 -0.257365 0.966314 57.3657 32.794)" fill="#DDBED6"/>
<ellipse cx="51.5" cy="50.5" rx="51.5" ry="50.5" fill="#E4D2F7"/>
<ellipse cx="51.5" cy="47" rx="51.5" ry="47" fill="#F5ECFF"/>
<ellipse rx="11.7425" ry="5.89845" transform="matrix(0.939026 0.343846 -0.340201 0.940353 58.7269 18.2288)" fill="#DDBED6"/>
<ellipse rx="9.11334" ry="4.99949" transform="matrix(0.965533 0.26028 -0.257365 0.966314 81.7977 30.1562)" fill="#DDBED6"/>
<ellipse rx="4.9575" ry="3.40405" transform="matrix(0.965533 0.26028 -0.257365 0.966314 38.9105 20.9742)" fill="#DDBED6"/>
<ellipse rx="6.63448" ry="2.96393" transform="matrix(0.965533 0.26028 -0.257365 0.966314 57.3657 32.794)" fill="#DDBED6"/>
</svg>
