<svg width="210" height="338" viewBox="0 0 210 338" fill="none" xmlns="http://www.w3.org/2000/svg">
<rect y="20" width="210" height="318" fill="white"/>
<rect x="22.5" y="113.5" width="69" height="44" fill="white" stroke="#B4D4F2"/>
<path d="M91.5 157.5H22.5V146.824C22.6294 146.895 22.7751 146.972 22.9374 147.053C23.7513 147.463 24.983 147.998 26.6757 148.518C30.0618 149.558 35.287 150.533 42.6964 150.316C50.1098 150.099 54.2371 149.012 58.0597 147.678C58.844 147.404 59.6122 147.121 60.3912 146.834C63.3933 145.729 66.5551 144.565 71.4125 143.632C77.5454 142.453 82.6552 142.247 86.2093 142.774C87.9902 143.038 89.342 143.481 90.2344 144.047C91.1173 144.608 91.5 145.25 91.5 145.94V145.962V145.983V146.005V146.027V146.049V146.071V146.093V146.115V146.138V146.16V146.183V146.205V146.228V146.251V146.274V146.297V146.32V146.343V146.367V146.39V146.414V146.437V146.461V146.485V146.509V146.533V146.557V146.581V146.606V146.63V146.654V146.679V146.704V146.728V146.753V146.778V146.803V146.828V146.854V146.879V146.904V146.93V146.955V146.981V147.006V147.032V147.058V147.084V147.11V147.136V147.162V147.189V147.215V147.241V147.268V147.294V147.321V147.348V147.375V147.401V147.428V147.455V147.482V147.51V147.537V147.564V147.591V147.619V147.646V147.674V147.702V147.729V147.757V147.785V147.813V147.841V147.869V147.897V147.925V147.953V147.982V148.01V148.038V148.067V148.095V148.124V148.152V148.181V148.21V148.239V148.268V148.296V148.325V148.354V148.384V148.413V148.442V148.471V148.5V148.53V148.559V148.589V148.618V148.648V148.677V148.707V148.736V148.766V148.796V148.826V148.856V148.885V148.915V148.945V148.975V149.005V149.036V149.066V149.096V149.126V149.156V149.187V149.217V149.247V149.278V149.308V149.339V149.369V149.4V149.43V149.461V149.491V149.522V149.553V149.584V149.614V149.645V149.676V149.707V149.738V149.768V149.799V149.83V149.861V149.892V149.923V149.954V149.985V150.016V150.048V150.079V150.11V150.141V150.172V150.203V150.235V150.266V150.297V150.328V150.36V150.391V150.422V150.453V150.485V150.516V150.548V150.579V150.61V150.642V150.673V150.704V150.736V150.767V150.799V150.83V150.862V150.893V150.924V150.956V150.987V151.019V151.05V151.082V151.113V151.145V151.176V151.208V151.239V151.271V151.302V151.333V151.365V151.396V151.428V151.459V151.491V151.522V151.553V151.585V151.616V151.648V151.679V151.71V151.742V151.773V151.804V151.836V151.867V151.898V151.93V151.961V151.992V152.023V152.055V152.086V152.117V152.148V152.179V152.21V152.242V152.273V152.304V152.335V152.366V152.397V152.428V152.459V152.49V152.521V152.551V152.582V152.613V152.644V152.675V152.705V152.736V152.767V152.797V152.828V152.859V152.889V152.92V152.95V152.981V153.011V153.041V153.072V153.102V153.132V153.162V153.193V153.223V153.253V153.283V153.313V153.343V153.373V153.403V153.433V153.463V153.492V153.522V153.552V153.581V153.611V153.641V153.67V153.699V153.729V153.758V153.787V153.817V153.846V153.875V153.904V153.933V153.962V153.991V154.02V154.049V154.078V154.106V154.135V154.164V154.192V154.221V154.249V154.277V154.306V154.334V154.362V154.39V154.418V154.446V154.474V154.502V154.53V154.557V154.585V154.613V154.64V154.668V154.695V154.722V154.75V154.777V154.804V154.831V154.858V154.885V154.912V154.938V154.965V154.992V155.018V155.045V155.071V155.097V155.123V155.15V155.176V155.202V155.227V155.253V155.279V155.305V155.33V155.356V155.381V155.406V155.432V155.457V155.482V155.507V155.532V155.556V155.581V155.606V155.63V155.655V155.679V155.703V155.727V155.751V155.775V155.799V155.823V155.847V155.87V155.894V155.917V155.94V155.964V155.987V156.01V156.032V156.055V156.078V156.101V156.123V156.145V156.168V156.19V156.212V156.234V156.256V156.278V156.299V156.321V156.342V156.363V156.385V156.406V156.427V156.448V156.468V156.489V156.51V156.53V156.55V156.571V156.591V156.611V156.63V156.65V156.67V156.689V156.709V156.728V156.747V156.766V156.785V156.804V156.822V156.841V156.859V156.878V156.896V156.914V156.932V156.95V156.967V156.985V157.002V157.019V157.037V157.054V157.071V157.087V157.104V157.12V157.137V157.153V157.169V157.185V157.201V157.216V157.232V157.247V157.263V157.278V157.293V157.308V157.322V157.337V157.351V157.366V157.38V157.394V157.408V157.421V157.435V157.448V157.462V157.475V157.488V157.5Z" fill="#B4D4F2" fill-opacity="0.2" stroke="#B4D4F2"/>
<path d="M115.856 126.208C114.149 126.208 112.848 125.76 111.952 124.864C111.056 123.957 110.608 122.56 110.608 120.672C110.608 118.827 111.035 117.435 111.888 116.496C112.752 115.557 114.075 115.088 115.856 115.088C116.421 115.088 116.992 115.163 117.568 115.312C118.144 115.451 118.704 115.637 119.248 115.872V118.128C118.693 117.765 118.16 117.504 117.648 117.344C117.136 117.184 116.656 117.104 116.208 117.104C115.579 117.104 115.045 117.216 114.608 117.44C114.171 117.664 113.84 118.037 113.616 118.56C113.392 119.083 113.28 119.787 113.28 120.672C113.28 121.557 113.392 122.256 113.616 122.768C113.851 123.28 114.192 123.648 114.64 123.872C115.099 124.085 115.659 124.192 116.32 124.192C116.715 124.192 117.163 124.117 117.664 123.968C118.165 123.819 118.693 123.563 119.248 123.2V125.456C118.811 125.68 118.277 125.861 117.648 126C117.019 126.139 116.421 126.208 115.856 126.208ZM124.926 122.496V126H122.334V115.328H127.134C128.382 115.328 129.363 115.611 130.078 116.176C130.793 116.741 131.15 117.616 131.15 118.8C131.15 119.984 130.793 120.896 130.078 121.536C129.363 122.176 128.382 122.496 127.134 122.496H124.926ZM124.926 120.496H126.814C127.369 120.496 127.763 120.352 127.998 120.064C128.233 119.776 128.35 119.413 128.35 118.976C128.35 118.485 128.233 118.091 127.998 117.792C127.763 117.493 127.369 117.344 126.814 117.344H124.926V120.496ZM138.991 126.32C137.348 126.32 136.116 125.973 135.295 125.28C134.484 124.587 134.079 123.499 134.079 122.016V115.328H136.783V121.904C136.783 122.725 136.948 123.333 137.279 123.728C137.61 124.123 138.138 124.32 138.863 124.32C139.524 124.32 140.036 124.123 140.399 123.728C140.772 123.333 140.959 122.725 140.959 121.904V115.328H143.423V122.016C143.423 123.008 143.231 123.824 142.847 124.464C142.474 125.093 141.951 125.563 141.279 125.872C140.618 126.171 139.855 126.32 138.991 126.32Z" fill="black"/>
<path d="M112.36 146V140.08L111.03 140.96V140.11L112.26 139.33H113.08V146H112.36ZM118.152 146.08C117.705 146.08 117.325 146.04 117.012 145.96C116.705 145.873 116.448 145.777 116.242 145.67V144.92C116.375 145.007 116.595 145.107 116.902 145.22C117.215 145.327 117.615 145.38 118.102 145.38C118.442 145.38 118.708 145.337 118.902 145.25C119.102 145.157 119.248 145.04 119.342 144.9C119.435 144.753 119.495 144.6 119.522 144.44C119.548 144.273 119.562 144.113 119.562 143.96C119.562 143.54 119.488 143.233 119.342 143.04C119.202 142.84 119.018 142.71 118.792 142.65C118.572 142.59 118.342 142.56 118.102 142.56C117.748 142.56 117.455 142.587 117.222 142.64C116.988 142.687 116.815 142.737 116.702 142.79C116.588 142.843 116.532 142.87 116.532 142.87L116.082 142.41L116.422 139.33H119.852V140.04H117.042L116.872 142.01C117.278 141.897 117.705 141.84 118.152 141.84C118.392 141.84 118.635 141.87 118.882 141.93C119.135 141.99 119.365 142.097 119.572 142.25C119.785 142.397 119.955 142.61 120.082 142.89C120.208 143.163 120.272 143.52 120.272 143.96C120.272 144.4 120.208 144.76 120.082 145.04C119.955 145.313 119.785 145.527 119.572 145.68C119.365 145.827 119.135 145.93 118.882 145.99C118.635 146.05 118.392 146.08 118.152 146.08ZM123.476 142.91C122.529 142.91 122.056 142.297 122.056 141.07C122.056 139.843 122.529 139.23 123.476 139.23C124.416 139.23 124.886 139.843 124.886 141.07C124.886 142.297 124.416 142.91 123.476 142.91ZM123.476 142.41C123.562 142.41 123.666 142.38 123.786 142.32C123.912 142.26 124.026 142.133 124.126 141.94C124.226 141.747 124.276 141.457 124.276 141.07C124.276 140.677 124.226 140.387 124.126 140.2C124.026 140.007 123.912 139.88 123.786 139.82C123.666 139.76 123.562 139.73 123.476 139.73C123.389 139.73 123.282 139.76 123.156 139.82C123.029 139.88 122.916 140.007 122.816 140.2C122.716 140.387 122.666 140.677 122.666 141.07C122.666 141.457 122.716 141.747 122.816 141.94C122.916 142.133 123.029 142.26 123.156 142.32C123.282 142.38 123.389 142.41 123.476 142.41ZM127.296 146.05C126.349 146.05 125.876 145.437 125.876 144.21C125.876 142.983 126.349 142.37 127.296 142.37C128.236 142.37 128.706 142.983 128.706 144.21C128.706 145.437 128.236 146.05 127.296 146.05ZM127.296 145.55C127.382 145.55 127.486 145.52 127.606 145.46C127.732 145.4 127.846 145.273 127.946 145.08C128.046 144.887 128.096 144.597 128.096 144.21C128.096 143.817 128.046 143.527 127.946 143.34C127.846 143.147 127.732 143.02 127.606 142.96C127.486 142.9 127.382 142.87 127.296 142.87C127.209 142.87 127.102 142.9 126.976 142.96C126.849 143.02 126.736 143.147 126.636 143.34C126.536 143.527 126.486 143.817 126.486 144.21C126.486 144.597 126.536 144.887 126.636 145.08C126.736 145.273 126.849 145.4 126.976 145.46C127.102 145.52 127.209 145.55 127.296 145.55ZM122.966 146.22L127.036 139.15H127.716L123.646 146.22H122.966ZM143.044 146V140.08L141.714 140.96V140.11L142.944 139.33H143.764V146H143.044ZM146.696 146V145H147.696V146H146.696ZM151.554 146V140.08L150.224 140.96V140.11L151.454 139.33H152.274V146H151.554ZM157.345 146.08C156.899 146.08 156.519 146.04 156.205 145.96C155.899 145.873 155.642 145.777 155.435 145.67V144.92C155.569 145.007 155.789 145.107 156.095 145.22C156.409 145.327 156.809 145.38 157.295 145.38C157.635 145.38 157.902 145.337 158.095 145.25C158.295 145.157 158.442 145.04 158.535 144.9C158.629 144.753 158.689 144.6 158.715 144.44C158.742 144.273 158.755 144.113 158.755 143.96C158.755 143.54 158.682 143.233 158.535 143.04C158.395 142.84 158.212 142.71 157.985 142.65C157.765 142.59 157.535 142.56 157.295 142.56C156.942 142.56 156.649 142.587 156.415 142.64C156.182 142.687 156.009 142.737 155.895 142.79C155.782 142.843 155.725 142.87 155.725 142.87L155.275 142.41L155.615 139.33H159.045V140.04H156.235L156.065 142.01C156.472 141.897 156.899 141.84 157.345 141.84C157.585 141.84 157.829 141.87 158.075 141.93C158.329 141.99 158.559 142.097 158.765 142.25C158.979 142.397 159.149 142.61 159.275 142.89C159.402 143.163 159.465 143.52 159.465 143.96C159.465 144.4 159.402 144.76 159.275 145.04C159.149 145.313 158.979 145.527 158.765 145.68C158.559 145.827 158.329 145.93 158.075 145.99C157.829 146.05 157.585 146.08 157.345 146.08ZM168.06 146.1C167.033 146.1 166.26 145.81 165.74 145.23C165.227 144.65 164.97 143.793 164.97 142.66C164.97 140.38 166 139.24 168.06 139.24C168.427 139.24 168.787 139.277 169.14 139.35C169.493 139.423 169.833 139.537 170.16 139.69V140.44C169.847 140.3 169.52 140.18 169.18 140.08C168.84 139.973 168.493 139.92 168.14 139.92C167.293 139.92 166.673 140.143 166.28 140.59C165.887 141.03 165.69 141.72 165.69 142.66C165.69 143.607 165.887 144.303 166.28 144.75C166.673 145.19 167.293 145.41 168.14 145.41C168.673 145.41 169.183 145.33 169.67 145.17V143.27H168.06V142.57H170.39V145.58C169.67 145.927 168.893 146.1 168.06 146.1ZM172.735 146V138.8H173.455V141.34C173.702 141.213 173.955 141.113 174.215 141.04C174.475 140.96 174.725 140.92 174.965 140.92C175.578 140.92 176.052 141.093 176.385 141.44C176.718 141.78 176.885 142.313 176.885 143.04V146H176.165V143.04C176.165 142.573 176.058 142.213 175.845 141.96C175.632 141.707 175.312 141.58 174.885 141.58C174.418 141.58 173.942 141.713 173.455 141.98V146H172.735ZM178.837 146V145.35L181.627 141.63H178.907V141.01H182.487V141.64L179.667 145.36H182.487V146H178.837Z" fill="black"/>
<rect x="22.5" y="182.5" width="69" height="44" fill="white" stroke="#F4CFFA"/>
<path d="M22.5 218.9C22.6624 218.814 22.9117 218.691 23.2555 218.541C23.958 218.234 25.0557 217.818 26.6136 217.391C29.7295 216.537 34.6877 215.643 42.0091 215.51C49.1171 215.38 52.963 216.568 56.4929 217.659C56.578 217.685 56.6628 217.711 56.7475 217.737C60.3975 218.863 63.7954 219.851 70.0592 219.103C76.2122 218.369 81.6844 218.03 85.6077 218.155C87.5748 218.218 89.1212 218.396 90.1621 218.686C90.6853 218.832 91.0428 218.996 91.2594 219.159C91.4673 219.316 91.5 219.433 91.5 219.512V219.525V219.539V219.552V219.566V219.579V219.593V219.607V219.621V219.634V219.648V219.662V219.676V219.691V219.705V219.719V219.733V219.748V219.762V219.777V219.791V219.806V219.821V219.835V219.85V219.865V219.88V219.895V219.91V219.925V219.94V219.955V219.971V219.986V220.001V220.017V220.032V220.048V220.063V220.079V220.095V220.11V220.126V220.142V220.158V220.174V220.19V220.206V220.222V220.238V220.254V220.271V220.287V220.303V220.32V220.336V220.353V220.369V220.386V220.402V220.419V220.436V220.453V220.469V220.486V220.503V220.52V220.537V220.554V220.571V220.588V220.605V220.623V220.64V220.657V220.675V220.692V220.709V220.727V220.744V220.762V220.779V220.797V220.815V220.832V220.85V220.868V220.885V220.903V220.921V220.939V220.957V220.975V220.993V221.011V221.029V221.047V221.065V221.083V221.101V221.12V221.138V221.156V221.174V221.193V221.211V221.23V221.248V221.266V221.285V221.303V221.322V221.341V221.359V221.378V221.396V221.415V221.434V221.452V221.471V221.49V221.509V221.528V221.546V221.565V221.584V221.603V221.622V221.641V221.66V221.679V221.698V221.717V221.736V221.755V221.774V221.793V221.812V221.831V221.85V221.87V221.889V221.908V221.927V221.946V221.966V221.985V222.004V222.024V222.043V222.062V222.081V222.101V222.12V222.14V222.159V222.178V222.198V222.217V222.236V222.256V222.275V222.295V222.314V222.334V222.353V222.373V222.392V222.412V222.431V222.451V222.47V222.49V222.509V222.529V222.548V222.568V222.587V222.607V222.626V222.646V222.665V222.685V222.704V222.724V222.743V222.763V222.782V222.802V222.822V222.841V222.861V222.88V222.9V222.919V222.939V222.958V222.978V222.997V223.017V223.036V223.056V223.075V223.095V223.114V223.134V223.153V223.172V223.192V223.211V223.231V223.25V223.27V223.289V223.308V223.328V223.347V223.366V223.386V223.405V223.424V223.444V223.463V223.482V223.502V223.521V223.54V223.559V223.578V223.598V223.617V223.636V223.655V223.674V223.693V223.712V223.731V223.751V223.77V223.789V223.808V223.827V223.845V223.864V223.883V223.902V223.921V223.94V223.959V223.977V223.996V224.015V224.034V224.052V224.071V224.09V224.108V224.127V224.146V224.164V224.183V224.201V224.22V224.238V224.256V224.275V224.293V224.311V224.33V224.348V224.366V224.384V224.403V224.421V224.439V224.457V224.475V224.493V224.511V224.529V224.547V224.564V224.582V224.6V224.618V224.636V224.653V224.671V224.689V224.706V224.724V224.741V224.759V224.776V224.793V224.811V224.828V224.845V224.862V224.88V224.897V224.914V224.931V224.948V224.965V224.982V224.999V225.015V225.032V225.049V225.066V225.082V225.099V225.116V225.132V225.148V225.165V225.181V225.198V225.214V225.23V225.246V225.262V225.278V225.294V225.31V225.326V225.342V225.358V225.374V225.39V225.405V225.421V225.436V225.452V225.467V225.483V225.498V225.513V225.528V225.544V225.559V225.574V225.589V225.604V225.619V225.633V225.648V225.663V225.678V225.692V225.707V225.721V225.736V225.75V225.764V225.778V225.792V225.807V225.821V225.835V225.848V225.862V225.876V225.89V225.903V225.917V225.93V225.944V225.957V225.971V225.984V225.997V226.01V226.023V226.036V226.049V226.062V226.075V226.087V226.1V226.112V226.125V226.137V226.15V226.162V226.174V226.186V226.198V226.21V226.222V226.234V226.246V226.257V226.269V226.28V226.292V226.303V226.314V226.326V226.337V226.348V226.359V226.37V226.38V226.391V226.402V226.412V226.423V226.433V226.444V226.454V226.464V226.474V226.484V226.494V226.5H22.5V218.9Z" fill="#F4CFFA" fill-opacity="0.2" stroke="#F4CFFA"/>
<path d="M115.888 195.208C114.843 195.208 113.925 195.021 113.136 194.648C112.357 194.275 111.755 193.683 111.328 192.872C110.901 192.061 110.688 190.995 110.688 189.672C110.688 188.371 110.901 187.309 111.328 186.488C111.755 185.667 112.357 185.064 113.136 184.68C113.915 184.285 114.832 184.088 115.888 184.088C116.56 184.088 117.211 184.157 117.84 184.296C118.48 184.435 119.099 184.627 119.696 184.872V187.224C119.056 186.883 118.459 186.611 117.904 186.408C117.36 186.205 116.795 186.104 116.208 186.104C115.6 186.104 115.077 186.216 114.64 186.44C114.213 186.653 113.888 187.021 113.664 187.544C113.44 188.056 113.328 188.76 113.328 189.656C113.328 190.541 113.44 191.245 113.664 191.768C113.899 192.28 114.224 192.648 114.64 192.872C115.056 193.096 115.541 193.208 116.096 193.208C116.384 193.208 116.651 193.192 116.896 193.16C117.152 193.117 117.376 193.048 117.568 192.952V191.064H115.808V189.048H120.16V194.072C119.499 194.445 118.805 194.728 118.08 194.92C117.365 195.112 116.635 195.208 115.888 195.208ZM126.145 191.496V195H123.553V184.328H128.353C129.601 184.328 130.582 184.611 131.297 185.176C132.012 185.741 132.369 186.616 132.369 187.8C132.369 188.984 132.012 189.896 131.297 190.536C130.582 191.176 129.601 191.496 128.353 191.496H126.145ZM126.145 189.496H128.033C128.588 189.496 128.982 189.352 129.217 189.064C129.452 188.776 129.569 188.413 129.569 187.976C129.569 187.485 129.452 187.091 129.217 186.792C128.982 186.493 128.588 186.344 128.033 186.344H126.145V189.496ZM140.21 195.32C138.567 195.32 137.335 194.973 136.514 194.28C135.703 193.587 135.298 192.499 135.298 191.016V184.328H138.002V190.904C138.002 191.725 138.167 192.333 138.498 192.728C138.829 193.123 139.357 193.32 140.082 193.32C140.743 193.32 141.255 193.123 141.618 192.728C141.991 192.333 142.178 191.725 142.178 190.904V184.328H144.642V191.016C144.642 192.008 144.45 192.824 144.066 193.464C143.693 194.093 143.17 194.563 142.498 194.872C141.837 195.171 141.074 195.32 140.21 195.32Z" fill="black"/>
<path d="M112.15 215.08C111.963 215.08 111.787 215.067 111.62 215.04C111.46 215.02 111.313 214.99 111.18 214.95V214.28C111.307 214.307 111.443 214.333 111.59 214.36C111.743 214.387 111.903 214.4 112.07 214.4C112.177 214.4 112.317 214.383 112.49 214.35C112.67 214.317 112.86 214.257 113.06 214.17C113.267 214.083 113.463 213.957 113.65 213.79C113.843 213.617 114.01 213.397 114.15 213.13C114.297 212.863 114.393 212.533 114.44 212.14C114.287 212.233 114.073 212.333 113.8 212.44C113.533 212.54 113.24 212.59 112.92 212.59C112.22 212.59 111.667 212.403 111.26 212.03C110.853 211.65 110.65 211.137 110.65 210.49C110.65 210.23 110.69 209.97 110.77 209.71C110.85 209.443 110.98 209.2 111.16 208.98C111.34 208.753 111.573 208.573 111.86 208.44C112.147 208.307 112.5 208.24 112.92 208.24C114.433 208.24 115.19 209.283 115.19 211.37C115.19 212.037 115.113 212.597 114.96 213.05C114.813 213.497 114.62 213.857 114.38 214.13C114.14 214.397 113.883 214.6 113.61 214.74C113.337 214.873 113.07 214.963 112.81 215.01C112.55 215.057 112.33 215.08 112.15 215.08ZM111.37 210.5C111.37 210.953 111.503 211.303 111.77 211.55C112.037 211.797 112.42 211.92 112.92 211.92C113.287 211.92 113.603 211.853 113.87 211.72C114.137 211.587 114.337 211.467 114.47 211.36C114.457 210.84 114.407 210.42 114.32 210.1C114.24 209.78 114.13 209.533 113.99 209.36C113.85 209.187 113.69 209.07 113.51 209.01C113.33 208.95 113.133 208.92 112.92 208.92C112.56 208.92 112.273 208.983 112.06 209.11C111.853 209.237 111.7 209.39 111.6 209.57C111.507 209.75 111.443 209.927 111.41 210.1C111.383 210.273 111.37 210.407 111.37 210.5ZM118.469 211.91C117.522 211.91 117.049 211.297 117.049 210.07C117.049 208.843 117.522 208.23 118.469 208.23C119.409 208.23 119.879 208.843 119.879 210.07C119.879 211.297 119.409 211.91 118.469 211.91ZM118.469 211.41C118.556 211.41 118.659 211.38 118.779 211.32C118.906 211.26 119.019 211.133 119.119 210.94C119.219 210.747 119.269 210.457 119.269 210.07C119.269 209.677 119.219 209.387 119.119 209.2C119.019 209.007 118.906 208.88 118.779 208.82C118.659 208.76 118.556 208.73 118.469 208.73C118.382 208.73 118.276 208.76 118.149 208.82C118.022 208.88 117.909 209.007 117.809 209.2C117.709 209.387 117.659 209.677 117.659 210.07C117.659 210.457 117.709 210.747 117.809 210.94C117.909 211.133 118.022 211.26 118.149 211.32C118.276 211.38 118.382 211.41 118.469 211.41ZM122.289 215.05C121.342 215.05 120.869 214.437 120.869 213.21C120.869 211.983 121.342 211.37 122.289 211.37C123.229 211.37 123.699 211.983 123.699 213.21C123.699 214.437 123.229 215.05 122.289 215.05ZM122.289 214.55C122.376 214.55 122.479 214.52 122.599 214.46C122.726 214.4 122.839 214.273 122.939 214.08C123.039 213.887 123.089 213.597 123.089 213.21C123.089 212.817 123.039 212.527 122.939 212.34C122.839 212.147 122.726 212.02 122.599 211.96C122.479 211.9 122.376 211.87 122.289 211.87C122.202 211.87 122.096 211.9 121.969 211.96C121.842 212.02 121.729 212.147 121.629 212.34C121.529 212.527 121.479 212.817 121.479 213.21C121.479 213.597 121.529 213.887 121.629 214.08C121.729 214.273 121.842 214.4 121.969 214.46C122.096 214.52 122.202 214.55 122.289 214.55ZM117.959 215.22L122.029 208.15H122.709L118.639 215.22H117.959Z" fill="black"/>
<rect x="22.5" y="251.5" width="69" height="44" fill="white" stroke="#8AF4A2"/>
<path d="M22.3763 288.499C22.3761 288.499 22.3762 288.499 22.3765 288.499L22.3763 288.499ZM22.5 288.373C22.5161 288.358 22.5339 288.341 22.5534 288.323C22.6859 288.2 22.8965 288.017 23.1972 287.794C23.7984 287.348 24.7613 286.738 26.1827 286.114C29.025 284.864 33.7093 283.551 41.0122 283.372C48.0962 283.199 52.1606 284.899 55.9389 286.479C56.0268 286.516 56.1145 286.553 56.2022 286.589C60.0989 288.217 63.7754 289.674 70.0792 288.663C76.3143 287.663 81.8671 285.262 85.8254 283.515C85.9423 283.463 86.0575 283.412 86.1713 283.362C88.0048 282.553 89.4373 281.92 90.4307 281.643C90.9746 281.491 91.2799 281.479 91.4224 281.52C91.45 281.528 91.4624 281.536 91.466 281.538C91.4687 281.54 91.4693 281.541 91.4706 281.543C91.474 281.548 91.5 281.592 91.5 281.721V281.739V281.757V281.776V281.794V281.813V281.832V281.851V281.87V281.89V281.909V281.929V281.949V281.969V281.99V282.01V282.031V282.052V282.073V282.094V282.115V282.137V282.159V282.181V282.203V282.225V282.247V282.27V282.293V282.315V282.338V282.362V282.385V282.409V282.432V282.456V282.48V282.504V282.529V282.553V282.578V282.602V282.627V282.652V282.678V282.703V282.728V282.754V282.78V282.806V282.832V282.858V282.885V282.911V282.938V282.965V282.992V283.019V283.046V283.073V283.101V283.128V283.156V283.184V283.212V283.24V283.269V283.297V283.325V283.354V283.383V283.412V283.441V283.47V283.499V283.529V283.558V283.588V283.618V283.648V283.678V283.708V283.738V283.769V283.799V283.83V283.86V283.891V283.922V283.953V283.984V284.016V284.047V284.079V284.11V284.142V284.174V284.206V284.238V284.27V284.302V284.334V284.367V284.399V284.432V284.465V284.497V284.53V284.563V284.596V284.629V284.663V284.696V284.73V284.763V284.797V284.83V284.864V284.898V284.932V284.966V285V285.035V285.069V285.103V285.138V285.172V285.207V285.242V285.276V285.311V285.346V285.381V285.416V285.451V285.486V285.522V285.557V285.592V285.628V285.664V285.699V285.735V285.771V285.806V285.842V285.878V285.914V285.95V285.986V286.022V286.059V286.095V286.131V286.168V286.204V286.241V286.277V286.314V286.35V286.387V286.424V286.461V286.497V286.534V286.571V286.608V286.645V286.682V286.719V286.757V286.794V286.831V286.868V286.906V286.943V286.98V287.018V287.055V287.093V287.13V287.168V287.205V287.243V287.28V287.318V287.356V287.393V287.431V287.469V287.507V287.544V287.582V287.62V287.658V287.696V287.734V287.771V287.809V287.847V287.885V287.923V287.961V287.999V288.037V288.075V288.113V288.151V288.189V288.227V288.265V288.303V288.341V288.38V288.418V288.456V288.494V288.532V288.57V288.608V288.646V288.684V288.722V288.76V288.798V288.836V288.874V288.912V288.95V288.988V289.026V289.064V289.102V289.14V289.178V289.216V289.254V289.292V289.329V289.367V289.405V289.443V289.481V289.518V289.556V289.594V289.631V289.669V289.707V289.744V289.782V289.819V289.857V289.894V289.932V289.969V290.007V290.044V290.081V290.119V290.156V290.193V290.23V290.267V290.304V290.341V290.378V290.415V290.452V290.489V290.526V290.563V290.599V290.636V290.673V290.709V290.746V290.782V290.818V290.855V290.891V290.927V290.964V291V291.036V291.072V291.108V291.144V291.179V291.215V291.251V291.286V291.322V291.358V291.393V291.428V291.464V291.499V291.534V291.569V291.604V291.639V291.674V291.709V291.743V291.778V291.813V291.847V291.882V291.916V291.95V291.984V292.018V292.052V292.086V292.12V292.154V292.187V292.221V292.255V292.288V292.321V292.354V292.388V292.421V292.453V292.486V292.519V292.552V292.584V292.617V292.649V292.681V292.713V292.745V292.777V292.809V292.841V292.873V292.904V292.936V292.967V292.998V293.029V293.06V293.091V293.122V293.152V293.183V293.213V293.244V293.274V293.304V293.334V293.364V293.393V293.423V293.452V293.482V293.511V293.54V293.569V293.598V293.627V293.655V293.684V293.712V293.74V293.768V293.796V293.824V293.852V293.879V293.907V293.934V293.961V293.988V294.015V294.041V294.068V294.094V294.121V294.147V294.173V294.199V294.224V294.25V294.275V294.301V294.326V294.351V294.376V294.4V294.425V294.449V294.473V294.497V294.521V294.545V294.568V294.592V294.615V294.638V294.661V294.684V294.707V294.729V294.751V294.773V294.795V294.817V294.839V294.86V294.881V294.902V294.923V294.944V294.965V294.985V295.005V295.025V295.045V295.065V295.085V295.104V295.123V295.142V295.161V295.179V295.198V295.216V295.234V295.252V295.27V295.287V295.304V295.322V295.339V295.355V295.372V295.388V295.404V295.42V295.436V295.452V295.467V295.482V295.497V295.5H22.5V288.373Z" fill="#8AF4A2" fill-opacity="0.2" stroke="#8AF4A2"/>
<path d="M111.136 264V253.328H116.336C117.541 253.328 118.485 253.611 119.168 254.176C119.851 254.731 120.192 255.573 120.192 256.704C120.192 257.152 120.107 257.589 119.936 258.016C119.776 258.432 119.531 258.805 119.2 259.136C118.88 259.456 118.48 259.685 118 259.824L120.736 264H117.44L115.328 260.32H113.728V264H111.136ZM113.728 258.416H115.904C116.363 258.416 116.725 258.293 116.992 258.048C117.259 257.803 117.392 257.397 117.392 256.832C117.392 256.341 117.275 255.968 117.04 255.712C116.805 255.456 116.464 255.328 116.016 255.328H113.728V258.416ZM122.672 264L126.704 253.328H129.536L133.312 264H130.656L129.872 261.696H125.888L125.12 264H122.672ZM126.512 259.792H129.232L127.856 255.744L126.512 259.792ZM135.782 264V253.328H138.422L141.414 257.488L144.47 253.328H147.046V264H144.454V256.768L141.318 260.96L138.262 256.784V264H135.782Z" fill="black"/>
<path d="M113.23 284.11C111.477 284.11 110.6 282.97 110.6 280.69C110.6 278.41 111.477 277.27 113.23 277.27C114.983 277.27 115.86 278.41 115.86 280.69C115.86 282.97 114.983 284.11 113.23 284.11ZM113.23 283.45C113.45 283.45 113.673 283.42 113.9 283.36C114.127 283.3 114.333 283.177 114.52 282.99C114.707 282.803 114.857 282.527 114.97 282.16C115.083 281.793 115.14 281.303 115.14 280.69C115.14 280.077 115.083 279.587 114.97 279.22C114.857 278.853 114.707 278.58 114.52 278.4C114.333 278.213 114.127 278.09 113.9 278.03C113.673 277.963 113.45 277.93 113.23 277.93C113.01 277.93 112.787 277.963 112.56 278.03C112.333 278.09 112.127 278.213 111.94 278.4C111.753 278.58 111.603 278.853 111.49 279.22C111.377 279.587 111.32 280.077 111.32 280.69C111.32 281.303 111.377 281.793 111.49 282.16C111.603 282.527 111.753 282.803 111.94 282.99C112.127 283.177 112.333 283.3 112.56 283.36C112.787 283.42 113.01 283.45 113.23 283.45ZM117.965 284V283H118.965V284H117.965ZM121.232 284V283.37C121.459 283.203 121.719 282.997 122.012 282.75C122.312 282.503 122.612 282.233 122.912 281.94C123.219 281.64 123.499 281.33 123.752 281.01C124.012 280.683 124.222 280.36 124.382 280.04C124.542 279.72 124.622 279.413 124.622 279.12C124.622 278.94 124.582 278.763 124.502 278.59C124.422 278.41 124.269 278.26 124.042 278.14C123.816 278.02 123.486 277.96 123.052 277.96C122.652 277.96 122.302 278.027 122.002 278.16C121.709 278.293 121.476 278.42 121.302 278.54V277.75C121.516 277.617 121.772 277.5 122.072 277.4C122.379 277.293 122.726 277.24 123.112 277.24C123.659 277.24 124.096 277.333 124.422 277.52C124.749 277.707 124.982 277.943 125.122 278.23C125.269 278.517 125.342 278.813 125.342 279.12C125.342 279.467 125.246 279.83 125.052 280.21C124.859 280.59 124.609 280.967 124.302 281.34C123.996 281.707 123.669 282.057 123.322 282.39C122.976 282.723 122.649 283.02 122.342 283.28H125.442V284H121.232ZM130.663 284.1C129.636 284.1 128.863 283.81 128.343 283.23C127.83 282.65 127.573 281.793 127.573 280.66C127.573 278.38 128.603 277.24 130.663 277.24C131.03 277.24 131.39 277.277 131.743 277.35C132.096 277.423 132.436 277.537 132.763 277.69V278.44C132.45 278.3 132.123 278.18 131.783 278.08C131.443 277.973 131.096 277.92 130.743 277.92C129.896 277.92 129.276 278.143 128.883 278.59C128.49 279.03 128.293 279.72 128.293 280.66C128.293 281.607 128.49 282.303 128.883 282.75C129.276 283.19 129.896 283.41 130.743 283.41C131.276 283.41 131.786 283.33 132.273 283.17V281.27H130.663V280.57H132.993V283.58C132.273 283.927 131.496 284.1 130.663 284.1ZM135.388 284V277.33H137.598C138.178 277.33 138.628 277.413 138.948 277.58C139.268 277.74 139.492 277.957 139.618 278.23C139.752 278.497 139.818 278.793 139.818 279.12C139.818 279.387 139.778 279.6 139.698 279.76C139.625 279.913 139.532 280.04 139.418 280.14C139.305 280.24 139.195 280.337 139.088 280.43C139.262 280.503 139.435 280.61 139.608 280.75C139.782 280.89 139.925 281.073 140.038 281.3C140.158 281.52 140.218 281.79 140.218 282.11C140.218 282.777 140.002 283.26 139.568 283.56C139.142 283.853 138.552 284 137.798 284H135.388ZM136.108 280.22H137.758C137.978 280.22 138.188 280.2 138.388 280.16C138.595 280.113 138.765 280.017 138.898 279.87C139.032 279.717 139.098 279.483 139.098 279.17C139.098 278.717 138.972 278.413 138.718 278.26C138.465 278.1 138.115 278.02 137.668 278.02H136.108V280.22ZM136.108 283.33H137.858C138.145 283.33 138.412 283.3 138.658 283.24C138.912 283.18 139.115 283.06 139.268 282.88C139.422 282.693 139.498 282.423 139.498 282.07C139.498 281.803 139.448 281.593 139.348 281.44C139.248 281.28 139.115 281.163 138.948 281.09C138.788 281.01 138.608 280.96 138.408 280.94C138.215 280.913 138.022 280.9 137.828 280.9H136.108V283.33ZM147.158 285.13C147.031 284.897 146.878 284.573 146.698 284.16C146.525 283.753 146.371 283.277 146.238 282.73C146.111 282.183 146.048 281.59 146.048 280.95C146.048 280.303 146.111 279.707 146.238 279.16C146.371 278.613 146.525 278.137 146.698 277.73C146.878 277.317 147.031 276.993 147.158 276.76H147.918C147.858 276.86 147.765 277.037 147.638 277.29C147.518 277.537 147.388 277.843 147.248 278.21C147.115 278.577 147.001 278.993 146.908 279.46C146.815 279.92 146.768 280.417 146.768 280.95C146.768 281.477 146.815 281.973 146.908 282.44C147.001 282.9 147.115 283.317 147.248 283.69C147.388 284.057 147.518 284.363 147.638 284.61C147.765 284.857 147.858 285.03 147.918 285.13H147.158ZM152.495 284.11C150.742 284.11 149.865 282.97 149.865 280.69C149.865 278.41 150.742 277.27 152.495 277.27C154.249 277.27 155.125 278.41 155.125 280.69C155.125 282.97 154.249 284.11 152.495 284.11ZM152.495 283.45C152.715 283.45 152.939 283.42 153.165 283.36C153.392 283.3 153.599 283.177 153.785 282.99C153.972 282.803 154.122 282.527 154.235 282.16C154.349 281.793 154.405 281.303 154.405 280.69C154.405 280.077 154.349 279.587 154.235 279.22C154.122 278.853 153.972 278.58 153.785 278.4C153.599 278.213 153.392 278.09 153.165 278.03C152.939 277.963 152.715 277.93 152.495 277.93C152.275 277.93 152.052 277.963 151.825 278.03C151.599 278.09 151.392 278.213 151.205 278.4C151.019 278.58 150.869 278.853 150.755 279.22C150.642 279.587 150.585 280.077 150.585 280.69C150.585 281.303 150.642 281.793 150.755 282.16C150.869 282.527 151.019 282.803 151.205 282.99C151.392 283.177 151.599 283.3 151.825 283.36C152.052 283.42 152.275 283.45 152.495 283.45ZM157.23 284V283H158.23V284H157.23ZM162.958 284.11C161.204 284.11 160.328 282.97 160.328 280.69C160.328 278.41 161.204 277.27 162.958 277.27C164.711 277.27 165.588 278.41 165.588 280.69C165.588 282.97 164.711 284.11 162.958 284.11ZM162.958 283.45C163.178 283.45 163.401 283.42 163.628 283.36C163.854 283.3 164.061 283.177 164.248 282.99C164.434 282.803 164.584 282.527 164.698 282.16C164.811 281.793 164.868 281.303 164.868 280.69C164.868 280.077 164.811 279.587 164.698 279.22C164.584 278.853 164.434 278.58 164.248 278.4C164.061 278.213 163.854 278.09 163.628 278.03C163.401 277.963 163.178 277.93 162.958 277.93C162.738 277.93 162.514 277.963 162.288 278.03C162.061 278.09 161.854 278.213 161.668 278.4C161.481 278.58 161.331 278.853 161.218 279.22C161.104 279.587 161.048 280.077 161.048 280.69C161.048 281.303 161.104 281.793 161.218 282.16C161.331 282.527 161.481 282.803 161.668 282.99C161.854 283.177 162.061 283.3 162.288 283.36C162.514 283.42 162.738 283.45 162.958 283.45ZM169.483 284.08C169.116 284.08 168.783 284.04 168.483 283.96C168.189 283.873 167.929 283.773 167.703 283.66V282.92C167.909 283.033 168.153 283.137 168.433 283.23C168.719 283.317 169.039 283.36 169.393 283.36C169.986 283.36 170.439 283.25 170.753 283.03C171.066 282.81 171.223 282.493 171.223 282.08C171.223 281.667 171.063 281.35 170.743 281.13C170.423 280.91 169.959 280.8 169.353 280.8H168.623V280.11H169.383C169.869 280.11 170.239 280.02 170.493 279.84C170.753 279.653 170.883 279.387 170.883 279.04C170.883 278.687 170.746 278.42 170.473 278.24C170.206 278.053 169.816 277.96 169.303 277.96C169.003 277.96 168.733 277.997 168.493 278.07C168.253 278.137 168.043 278.217 167.863 278.31V277.58C168.063 277.487 168.289 277.407 168.543 277.34C168.796 277.273 169.076 277.24 169.383 277.24C169.929 277.24 170.363 277.33 170.683 277.51C171.009 277.69 171.243 277.917 171.383 278.19C171.529 278.463 171.603 278.747 171.603 279.04C171.603 279.287 171.559 279.497 171.473 279.67C171.386 279.843 171.286 279.983 171.173 280.09C171.059 280.197 170.959 280.273 170.873 280.32C170.786 280.367 170.743 280.39 170.743 280.39C170.743 280.39 170.803 280.423 170.923 280.49C171.043 280.55 171.183 280.65 171.343 280.79C171.503 280.923 171.643 281.1 171.763 281.32C171.883 281.533 171.943 281.793 171.943 282.1C171.943 282.42 171.863 282.733 171.703 283.04C171.543 283.34 171.283 283.59 170.923 283.79C170.569 283.983 170.089 284.08 169.483 284.08ZM175.323 280.91C174.376 280.91 173.903 280.297 173.903 279.07C173.903 277.843 174.376 277.23 175.323 277.23C176.263 277.23 176.733 277.843 176.733 279.07C176.733 280.297 176.263 280.91 175.323 280.91ZM175.323 280.41C175.409 280.41 175.513 280.38 175.633 280.32C175.759 280.26 175.873 280.133 175.973 279.94C176.073 279.747 176.123 279.457 176.123 279.07C176.123 278.677 176.073 278.387 175.973 278.2C175.873 278.007 175.759 277.88 175.633 277.82C175.513 277.76 175.409 277.73 175.323 277.73C175.236 277.73 175.129 277.76 175.003 277.82C174.876 277.88 174.763 278.007 174.663 278.2C174.563 278.387 174.513 278.677 174.513 279.07C174.513 279.457 174.563 279.747 174.663 279.94C174.763 280.133 174.876 280.26 175.003 280.32C175.129 280.38 175.236 280.41 175.323 280.41ZM179.143 284.05C178.196 284.05 177.723 283.437 177.723 282.21C177.723 280.983 178.196 280.37 179.143 280.37C180.083 280.37 180.553 280.983 180.553 282.21C180.553 283.437 180.083 284.05 179.143 284.05ZM179.143 283.55C179.229 283.55 179.333 283.52 179.453 283.46C179.579 283.4 179.693 283.273 179.793 283.08C179.893 282.887 179.943 282.597 179.943 282.21C179.943 281.817 179.893 281.527 179.793 281.34C179.693 281.147 179.579 281.02 179.453 280.96C179.333 280.9 179.229 280.87 179.143 280.87C179.056 280.87 178.949 280.9 178.823 280.96C178.696 281.02 178.583 281.147 178.483 281.34C178.383 281.527 178.333 281.817 178.333 282.21C178.333 282.597 178.383 282.887 178.483 283.08C178.583 283.273 178.696 283.4 178.823 283.46C178.949 283.52 179.056 283.55 179.143 283.55ZM174.813 284.22L178.883 277.15H179.563L175.493 284.22H174.813ZM182.38 285.13C182.44 285.03 182.533 284.853 182.66 284.6C182.787 284.353 182.917 284.047 183.05 283.68C183.183 283.313 183.297 282.897 183.39 282.43C183.49 281.963 183.54 281.467 183.54 280.94C183.54 280.413 183.49 279.92 183.39 279.46C183.297 278.993 183.183 278.577 183.05 278.21C182.917 277.837 182.787 277.527 182.66 277.28C182.533 277.033 182.44 276.86 182.38 276.76H183.15C183.283 276.993 183.437 277.317 183.61 277.73C183.783 278.137 183.933 278.613 184.06 279.16C184.193 279.707 184.26 280.3 184.26 280.94C184.26 281.58 184.193 282.177 184.06 282.73C183.933 283.277 183.783 283.753 183.61 284.16C183.437 284.573 183.283 284.897 183.15 285.13H182.38Z" fill="black"/>
<path d="M22.948 64V55.996H26.5C27.332 55.996 27.972 56.2 28.42 56.608C28.868 57.008 29.092 57.612 29.092 58.42C29.092 58.98 28.936 59.48 28.624 59.92C28.32 60.352 27.892 60.628 27.34 60.748L29.476 64H27.832L25.96 60.976H24.268V64H22.948ZM24.268 59.896H26.128C27.176 59.896 27.7 59.428 27.7 58.492C27.7 58.06 27.596 57.724 27.388 57.484C27.18 57.236 26.832 57.112 26.344 57.112H24.268V59.896ZM34.3005 64.18C33.4125 64.18 32.7045 63.912 32.1765 63.376C31.6565 62.832 31.3965 62.048 31.3965 61.024C31.3965 59.976 31.6405 59.184 32.1285 58.648C32.6245 58.104 33.3125 57.832 34.1925 57.832C34.8405 57.832 35.3645 57.976 35.7645 58.264C36.1645 58.552 36.4525 58.956 36.6285 59.476C36.8125 59.988 36.9005 60.588 36.8925 61.276H32.6565C32.6965 61.868 32.8725 62.32 33.1845 62.632C33.4965 62.936 33.9365 63.088 34.5045 63.088C34.9045 63.088 35.2685 63.04 35.5965 62.944C35.9325 62.84 36.2165 62.724 36.4485 62.596V63.772C36.1605 63.9 35.8405 64 35.4885 64.072C35.1365 64.144 34.7405 64.18 34.3005 64.18ZM34.1565 58.864C33.7485 58.864 33.4205 58.972 33.1725 59.188C32.9245 59.396 32.7645 59.78 32.6925 60.34H35.6085C35.5605 59.828 35.4165 59.456 35.1765 59.224C34.9445 58.984 34.6045 58.864 34.1565 58.864ZM40.9213 64.18C40.4893 64.18 40.1213 64.136 39.8173 64.048C39.5213 63.96 39.2293 63.844 38.9413 63.7V62.512C39.2533 62.704 39.5573 62.864 39.8533 62.992C40.1573 63.112 40.5133 63.172 40.9213 63.172C41.2733 63.172 41.5453 63.104 41.7373 62.968C41.9293 62.824 42.0253 62.64 42.0253 62.416C42.0253 62.232 41.9613 62.088 41.8333 61.984C41.7133 61.872 41.5573 61.784 41.3653 61.72C41.1733 61.648 40.9733 61.576 40.7653 61.504C40.4773 61.432 40.1893 61.336 39.9013 61.216C39.6213 61.088 39.3893 60.908 39.2053 60.676C39.0213 60.444 38.9293 60.124 38.9293 59.716C38.9293 59.268 39.0453 58.908 39.2773 58.636C39.5093 58.364 39.7973 58.168 40.1413 58.048C40.4933 57.92 40.8413 57.856 41.1853 57.856C41.6093 57.864 41.9533 57.916 42.2173 58.012C42.4893 58.108 42.7573 58.22 43.0213 58.348V59.44C42.7253 59.288 42.4493 59.156 42.1933 59.044C41.9453 58.932 41.6533 58.876 41.3173 58.876C40.9973 58.876 40.7333 58.936 40.5253 59.056C40.3253 59.168 40.2253 59.336 40.2253 59.56C40.2253 59.752 40.2813 59.904 40.3933 60.016C40.5133 60.128 40.6653 60.22 40.8493 60.292C41.0413 60.356 41.2453 60.416 41.4613 60.472C41.6613 60.528 41.8693 60.596 42.0853 60.676C42.3013 60.748 42.5013 60.848 42.6853 60.976C42.8693 61.096 43.0173 61.26 43.1293 61.468C43.2493 61.676 43.3093 61.944 43.3093 62.272C43.3093 62.728 43.1893 63.096 42.9493 63.376C42.7173 63.656 42.4213 63.86 42.0613 63.988C41.7013 64.116 41.3213 64.18 40.9213 64.18ZM48.2028 64.18C47.2268 64.18 46.4988 63.904 46.0188 63.352C45.5468 62.8 45.3108 62.012 45.3108 60.988C45.3108 59.908 45.5548 59.112 46.0428 58.6C46.5388 58.088 47.2548 57.832 48.1908 57.832C49.1748 57.832 49.9068 58.108 50.3868 58.66C50.8668 59.204 51.1068 59.98 51.1068 60.988C51.1068 62.004 50.8548 62.792 50.3508 63.352C49.8468 63.904 49.1308 64.18 48.2028 64.18ZM48.1908 63.112C48.7988 63.112 49.2268 62.916 49.4748 62.524C49.7228 62.132 49.8468 61.62 49.8468 60.988C49.8468 60.3 49.7188 59.78 49.4628 59.428C49.2068 59.068 48.7828 58.888 48.1908 58.888C47.5828 58.888 47.1588 59.076 46.9188 59.452C46.6788 59.82 46.5588 60.332 46.5588 60.988C46.5588 61.652 46.6828 62.172 46.9308 62.548C47.1788 62.924 47.5988 63.112 48.1908 63.112ZM56.0643 64.18C55.2403 64.18 54.5883 63.976 54.1083 63.568C53.6363 63.16 53.4003 62.556 53.4003 61.756V57.976H54.6603V61.576C54.6603 62.088 54.7723 62.468 54.9963 62.716C55.2203 62.956 55.5763 63.076 56.0643 63.076C56.5443 63.076 56.8963 62.956 57.1203 62.716C57.3523 62.468 57.4683 62.088 57.4683 61.576V57.976H58.6803V61.756C58.6803 62.556 58.4483 63.16 57.9843 63.568C57.5203 63.976 56.8803 64.18 56.0643 64.18ZM61.295 64V58.528C61.399 58.464 61.591 58.38 61.871 58.276C62.151 58.164 62.479 58.064 62.855 57.976C63.239 57.888 63.631 57.844 64.031 57.844C64.231 57.844 64.395 57.86 64.523 57.892C64.651 57.924 64.759 57.96 64.847 58V59.008C64.487 58.952 64.095 58.936 63.671 58.96C63.247 58.984 62.875 59.024 62.555 59.08V64H61.295ZM69.2519 64.12C68.8839 64.12 68.5239 64.068 68.1719 63.964C67.8199 63.86 67.4999 63.692 67.2119 63.46C66.9319 63.22 66.7079 62.904 66.5399 62.512C66.3719 62.112 66.2879 61.616 66.2879 61.024C66.2879 60.416 66.3679 59.908 66.5279 59.5C66.6879 59.092 66.9079 58.768 67.1879 58.528C67.4679 58.28 67.7839 58.104 68.1359 58C68.4959 57.896 68.8639 57.844 69.2399 57.844C69.8959 57.844 70.5119 57.964 71.0879 58.204V59.332C70.8159 59.212 70.5439 59.12 70.2719 59.056C69.9999 58.984 69.7159 58.948 69.4199 58.948C68.7959 58.948 68.3239 59.104 68.0039 59.416C67.6919 59.728 67.5359 60.232 67.5359 60.928C67.5359 61.648 67.6839 62.176 67.9799 62.512C68.2839 62.84 68.7759 63.004 69.4559 63.004C69.7519 63.004 70.0399 62.968 70.3199 62.896C70.5999 62.816 70.8599 62.72 71.0999 62.608V63.736C70.8119 63.864 70.5159 63.96 70.2119 64.024C69.9159 64.088 69.5959 64.12 69.2519 64.12ZM75.985 64.18C75.097 64.18 74.389 63.912 73.861 63.376C73.341 62.832 73.081 62.048 73.081 61.024C73.081 59.976 73.325 59.184 73.813 58.648C74.309 58.104 74.997 57.832 75.877 57.832C76.525 57.832 77.049 57.976 77.449 58.264C77.849 58.552 78.137 58.956 78.313 59.476C78.497 59.988 78.585 60.588 78.577 61.276H74.341C74.381 61.868 74.557 62.32 74.869 62.632C75.181 62.936 75.621 63.088 76.189 63.088C76.589 63.088 76.953 63.04 77.281 62.944C77.617 62.84 77.901 62.724 78.133 62.596V63.772C77.845 63.9 77.525 64 77.173 64.072C76.821 64.144 76.425 64.18 75.985 64.18ZM75.841 58.864C75.433 58.864 75.105 58.972 74.857 59.188C74.609 59.396 74.449 59.78 74.377 60.34H77.293C77.245 59.828 77.101 59.456 76.861 59.224C76.629 58.984 76.289 58.864 75.841 58.864ZM88.548 64.168C87.452 64.168 86.616 63.892 86.04 63.34C85.464 62.788 85.176 61.96 85.176 60.856V55.996H86.532V60.844C86.532 61.596 86.696 62.156 87.024 62.524C87.352 62.884 87.844 63.064 88.5 63.064C89.14 63.064 89.628 62.884 89.964 62.524C90.308 62.156 90.48 61.596 90.48 60.844V55.996H91.752V60.856C91.752 61.96 91.464 62.788 90.888 63.34C90.312 63.892 89.532 64.168 88.548 64.168ZM96.1686 64.18C95.7366 64.18 95.3686 64.136 95.0646 64.048C94.7686 63.96 94.4766 63.844 94.1886 63.7V62.512C94.5006 62.704 94.8046 62.864 95.1006 62.992C95.4046 63.112 95.7606 63.172 96.1686 63.172C96.5206 63.172 96.7926 63.104 96.9846 62.968C97.1766 62.824 97.2726 62.64 97.2726 62.416C97.2726 62.232 97.2086 62.088 97.0806 61.984C96.9606 61.872 96.8046 61.784 96.6126 61.72C96.4206 61.648 96.2206 61.576 96.0126 61.504C95.7246 61.432 95.4366 61.336 95.1486 61.216C94.8686 61.088 94.6366 60.908 94.4526 60.676C94.2686 60.444 94.1766 60.124 94.1766 59.716C94.1766 59.268 94.2926 58.908 94.5246 58.636C94.7566 58.364 95.0446 58.168 95.3886 58.048C95.7406 57.92 96.0886 57.856 96.4326 57.856C96.8566 57.864 97.2006 57.916 97.4646 58.012C97.7366 58.108 98.0046 58.22 98.2686 58.348V59.44C97.9726 59.288 97.6966 59.156 97.4406 59.044C97.1926 58.932 96.9006 58.876 96.5646 58.876C96.2446 58.876 95.9806 58.936 95.7726 59.056C95.5726 59.168 95.4726 59.336 95.4726 59.56C95.4726 59.752 95.5286 59.904 95.6406 60.016C95.7606 60.128 95.9126 60.22 96.0966 60.292C96.2886 60.356 96.4926 60.416 96.7086 60.472C96.9086 60.528 97.1166 60.596 97.3326 60.676C97.5486 60.748 97.7486 60.848 97.9326 60.976C98.1166 61.096 98.2646 61.26 98.3766 61.468C98.4966 61.676 98.5566 61.944 98.5566 62.272C98.5566 62.728 98.4366 63.096 98.1966 63.376C97.9646 63.656 97.6686 63.86 97.3086 63.988C96.9486 64.116 96.5686 64.18 96.1686 64.18ZM103.054 64.18C102.646 64.18 102.254 64.124 101.878 64.012C101.502 63.9 101.194 63.704 100.954 63.424C100.714 63.144 100.594 62.752 100.594 62.248C100.594 61.584 100.786 61.092 101.17 60.772C101.562 60.444 102.098 60.28 102.778 60.28C103.17 60.28 103.514 60.32 103.81 60.4C104.114 60.48 104.37 60.58 104.578 60.7V60.136C104.578 59.712 104.446 59.404 104.182 59.212C103.926 59.012 103.566 58.912 103.102 58.912C102.758 58.912 102.406 58.968 102.046 59.08C101.694 59.184 101.402 59.332 101.17 59.524V58.348C101.394 58.204 101.718 58.084 102.142 57.988C102.566 57.892 103.01 57.844 103.474 57.844C103.85 57.844 104.218 57.904 104.578 58.024C104.946 58.144 105.246 58.352 105.478 58.648C105.718 58.944 105.838 59.344 105.838 59.848L105.826 62.728C105.826 63.12 105.702 63.42 105.454 63.628C105.214 63.836 104.886 63.98 104.47 64.06C104.054 64.14 103.582 64.18 103.054 64.18ZM101.842 62.188C101.842 62.428 101.91 62.624 102.046 62.776C102.182 62.92 102.35 63.028 102.55 63.1C102.758 63.164 102.974 63.196 103.198 63.196C103.662 63.196 104.006 63.164 104.23 63.1C104.462 63.028 104.578 62.88 104.578 62.656V61.492C104.394 61.412 104.186 61.348 103.954 61.3C103.73 61.252 103.49 61.228 103.234 61.228C102.306 61.228 101.842 61.548 101.842 62.188ZM110.836 64.18C109.956 64.164 109.284 63.896 108.82 63.376C108.364 62.856 108.136 62.116 108.136 61.156C108.136 60.476 108.22 59.92 108.388 59.488C108.564 59.056 108.8 58.72 109.096 58.48C109.4 58.24 109.74 58.076 110.116 57.988C110.5 57.892 110.896 57.844 111.304 57.844C111.728 57.844 112.12 57.9 112.48 58.012C112.84 58.124 113.124 58.296 113.332 58.528C113.548 58.752 113.656 59.044 113.656 59.404V64.18C113.656 64.596 113.564 64.98 113.38 65.332C113.204 65.692 112.908 65.976 112.492 66.184C112.084 66.392 111.536 66.496 110.848 66.496C110.416 66.496 110.036 66.46 109.708 66.388C109.388 66.324 109.12 66.256 108.904 66.184V65.032C109.096 65.104 109.356 65.18 109.684 65.26C110.02 65.348 110.376 65.392 110.752 65.392C111.224 65.392 111.576 65.332 111.808 65.212C112.048 65.1 112.208 64.948 112.288 64.756C112.368 64.572 112.408 64.372 112.408 64.156V63.736C112.192 63.872 111.944 63.98 111.664 64.06C111.384 64.14 111.108 64.18 110.836 64.18ZM111.04 63.148C111.272 63.148 111.508 63.12 111.748 63.064C111.988 63.008 112.208 62.92 112.408 62.8V59.644C112.408 59.34 112.288 59.144 112.048 59.056C111.808 58.96 111.536 58.912 111.232 58.912C110.736 58.912 110.356 59.012 110.092 59.212C109.836 59.412 109.66 59.68 109.564 60.016C109.468 60.344 109.42 60.712 109.42 61.12C109.42 61.728 109.552 62.22 109.816 62.596C110.08 62.964 110.488 63.148 111.04 63.148ZM118.83 64.18C117.942 64.18 117.234 63.912 116.706 63.376C116.186 62.832 115.926 62.048 115.926 61.024C115.926 59.976 116.17 59.184 116.658 58.648C117.154 58.104 117.842 57.832 118.722 57.832C119.37 57.832 119.894 57.976 120.294 58.264C120.694 58.552 120.982 58.956 121.158 59.476C121.342 59.988 121.43 60.588 121.422 61.276H117.186C117.226 61.868 117.402 62.32 117.714 62.632C118.026 62.936 118.466 63.088 119.034 63.088C119.434 63.088 119.798 63.04 120.126 62.944C120.462 62.84 120.746 62.724 120.978 62.596V63.772C120.69 63.9 120.37 64 120.018 64.072C119.666 64.144 119.27 64.18 118.83 64.18ZM118.686 58.864C118.278 58.864 117.95 58.972 117.702 59.188C117.454 59.396 117.294 59.78 117.222 60.34H120.138C120.09 59.828 119.946 59.456 119.706 59.224C119.474 58.984 119.134 58.864 118.686 58.864ZM129.449 64L127.445 57.976H128.789L130.133 62.512L131.405 57.976H132.449L133.757 62.56L135.125 57.976H136.421L134.417 64H133.217L131.921 59.704L130.637 64H129.449ZM138.504 57.016V55.876H139.848V57.016H138.504ZM138.54 64V58.012H139.8L139.812 64H138.54ZM144.609 64.156C144.057 64.156 143.625 64.012 143.313 63.724C143.001 63.428 142.845 63.004 142.845 62.452V59.02H141.873V57.976H142.845V56.296H144.141V57.976H145.605V59.02H144.141V62.2C144.141 62.48 144.189 62.692 144.285 62.836C144.389 62.972 144.577 63.04 144.849 63.04C145.137 63.04 145.389 62.976 145.605 62.848V63.964C145.461 64.028 145.297 64.076 145.113 64.108C144.937 64.14 144.769 64.156 144.609 64.156ZM147.906 64V55.432H149.166V58.336C149.446 58.184 149.738 58.064 150.042 57.976C150.346 57.888 150.646 57.844 150.942 57.844C151.646 57.844 152.202 58.032 152.61 58.408C153.018 58.784 153.222 59.404 153.222 60.268V64H151.962V60.424C151.962 59.424 151.502 58.924 150.582 58.924C150.086 58.924 149.614 59.056 149.166 59.32L149.154 64H147.906ZM22.948 82V73.996H28.084V75.112H24.268V77.5H27.604V78.628H24.268V82H22.948ZM30.3491 82V76.528C30.4531 76.464 30.6451 76.38 30.9251 76.276C31.2051 76.164 31.5331 76.064 31.9091 75.976C32.2931 75.888 32.6851 75.844 33.0851 75.844C33.2851 75.844 33.4491 75.86 33.5771 75.892C33.7051 75.924 33.8131 75.96 33.9011 76V77.008C33.5411 76.952 33.1491 76.936 32.7251 76.96C32.3011 76.984 31.9291 77.024 31.6091 77.08V82H30.3491ZM38.1661 82.18C37.7581 82.18 37.3661 82.124 36.9901 82.012C36.6141 81.9 36.3061 81.704 36.0661 81.424C35.8261 81.144 35.7061 80.752 35.7061 80.248C35.7061 79.584 35.8981 79.092 36.2821 78.772C36.6741 78.444 37.2101 78.28 37.8901 78.28C38.2821 78.28 38.6261 78.32 38.9221 78.4C39.2261 78.48 39.4821 78.58 39.6901 78.7V78.136C39.6901 77.712 39.5581 77.404 39.2941 77.212C39.0381 77.012 38.6781 76.912 38.2141 76.912C37.8701 76.912 37.5181 76.968 37.1581 77.08C36.8061 77.184 36.5141 77.332 36.2821 77.524V76.348C36.5061 76.204 36.8301 76.084 37.2541 75.988C37.6781 75.892 38.1221 75.844 38.5861 75.844C38.9621 75.844 39.3301 75.904 39.6901 76.024C40.0581 76.144 40.3581 76.352 40.5901 76.648C40.8301 76.944 40.9501 77.344 40.9501 77.848L40.9381 80.728C40.9381 81.12 40.8141 81.42 40.5661 81.628C40.3261 81.836 39.9981 81.98 39.5821 82.06C39.1661 82.14 38.6941 82.18 38.1661 82.18ZM36.9541 80.188C36.9541 80.428 37.0221 80.624 37.1581 80.776C37.2941 80.92 37.4621 81.028 37.6621 81.1C37.8701 81.164 38.0861 81.196 38.3101 81.196C38.7741 81.196 39.1181 81.164 39.3421 81.1C39.5741 81.028 39.6901 80.88 39.6901 80.656V79.492C39.5061 79.412 39.2981 79.348 39.0661 79.3C38.8421 79.252 38.6021 79.228 38.3461 79.228C37.4181 79.228 36.9541 79.548 36.9541 80.188ZM46.2123 82.12C45.8443 82.12 45.4843 82.068 45.1323 81.964C44.7803 81.86 44.4603 81.692 44.1723 81.46C43.8923 81.22 43.6683 80.904 43.5003 80.512C43.3323 80.112 43.2483 79.616 43.2483 79.024C43.2483 78.416 43.3283 77.908 43.4883 77.5C43.6483 77.092 43.8683 76.768 44.1483 76.528C44.4283 76.28 44.7443 76.104 45.0963 76C45.4563 75.896 45.8243 75.844 46.2003 75.844C46.8563 75.844 47.4723 75.964 48.0483 76.204V77.332C47.7763 77.212 47.5043 77.12 47.2323 77.056C46.9603 76.984 46.6763 76.948 46.3803 76.948C45.7563 76.948 45.2843 77.104 44.9643 77.416C44.6523 77.728 44.4963 78.232 44.4963 78.928C44.4963 79.648 44.6443 80.176 44.9403 80.512C45.2443 80.84 45.7363 81.004 46.4163 81.004C46.7123 81.004 47.0003 80.968 47.2803 80.896C47.5603 80.816 47.8203 80.72 48.0603 80.608V81.736C47.7723 81.864 47.4763 81.96 47.1723 82.024C46.8763 82.088 46.5563 82.12 46.2123 82.12ZM52.5015 82.156C51.9495 82.156 51.5175 82.012 51.2055 81.724C50.8935 81.428 50.7375 81.004 50.7375 80.452V77.02H49.7655V75.976H50.7375V74.296H52.0335V75.976H53.4975V77.02H52.0335V80.2C52.0335 80.48 52.0815 80.692 52.1775 80.836C52.2815 80.972 52.4695 81.04 52.7415 81.04C53.0295 81.04 53.2815 80.976 53.4975 80.848V81.964C53.3535 82.028 53.1895 82.076 53.0055 82.108C52.8295 82.14 52.6615 82.156 52.5015 82.156ZM57.9829 82.18C57.5749 82.18 57.1829 82.124 56.8069 82.012C56.4309 81.9 56.1229 81.704 55.8829 81.424C55.6429 81.144 55.5229 80.752 55.5229 80.248C55.5229 79.584 55.7149 79.092 56.0989 78.772C56.4909 78.444 57.0269 78.28 57.7069 78.28C58.0989 78.28 58.4429 78.32 58.7389 78.4C59.0429 78.48 59.2989 78.58 59.5069 78.7V78.136C59.5069 77.712 59.3749 77.404 59.1109 77.212C58.8549 77.012 58.4949 76.912 58.0309 76.912C57.6869 76.912 57.3349 76.968 56.9749 77.08C56.6229 77.184 56.3309 77.332 56.0989 77.524V76.348C56.3229 76.204 56.6469 76.084 57.0709 75.988C57.4949 75.892 57.9389 75.844 58.4029 75.844C58.7789 75.844 59.1469 75.904 59.5069 76.024C59.8749 76.144 60.1749 76.352 60.4069 76.648C60.6469 76.944 60.7669 77.344 60.7669 77.848L60.7549 80.728C60.7549 81.12 60.6309 81.42 60.3829 81.628C60.1429 81.836 59.8149 81.98 59.3989 82.06C58.9829 82.14 58.5109 82.18 57.9829 82.18ZM56.7709 80.188C56.7709 80.428 56.8389 80.624 56.9749 80.776C57.1109 80.92 57.2789 81.028 57.4789 81.1C57.6869 81.164 57.9029 81.196 58.1269 81.196C58.5909 81.196 58.9349 81.164 59.1589 81.1C59.3909 81.028 59.5069 80.88 59.5069 80.656V79.492C59.3229 79.412 59.1149 79.348 58.8829 79.3C58.6589 79.252 58.4189 79.228 58.1629 79.228C57.2349 79.228 56.7709 79.548 56.7709 80.188ZM64.6252 82H63.3772V73.696H64.6252V82Z" fill="black"/>
<path d="M0 0H210V21H0V0Z" fill="white"/>
<circle cx="12" cy="11" r="4" fill="#ED1414"/>
<circle cx="30" cy="11" r="4" fill="#FFF968"/>
<circle cx="48" cy="11" r="4" fill="#3AF236"/>
</svg>
