<svg width="27" height="18" viewBox="0 0 27 18" fill="none" xmlns="http://www.w3.org/2000/svg">
<mask id="path-1-inside-1" fill="white">
<path d="M0 14.5C3.13011e-07 10.6544 1.42232 6.96623 3.95406 4.24695C6.4858 1.52767 9.91958 4.12577e-07 13.5 0C17.0804 -4.12577e-07 20.5142 1.52767 23.0459 4.24695C25.5777 6.96623 27 10.6544 27 14.5L13.5 14.5L0 14.5Z"/>
</mask>
<path d="M0 14.5C3.13011e-07 10.6544 1.42232 6.96623 3.95406 4.24695C6.4858 1.52767 9.91958 4.12577e-07 13.5 0C17.0804 -4.12577e-07 20.5142 1.52767 23.0459 4.24695C25.5777 6.96623 27 10.6544 27 14.5L13.5 14.5L0 14.5Z" stroke="white" stroke-width="2" mask="url(#path-1-inside-1)"/>
<line y1="17" x2="27" y2="17" stroke="white" stroke-width="2"/>
<path d="M12 13.5C12 13.1717 12.0388 12.8466 12.1142 12.5433C12.1896 12.24 12.3001 11.9644 12.4393 11.7322C12.5786 11.5001 12.744 11.3159 12.926 11.1903C13.108 11.0647 13.303 11 13.5 11C13.697 11 13.892 11.0647 14.074 11.1903C14.256 11.3159 14.4214 11.5001 14.5607 11.7322C14.6999 11.9644 14.8104 12.24 14.8858 12.5433C14.9612 12.8466 15 13.1717 15 13.5L13.5 13.5L12 13.5Z" fill="white"/>
<path d="M8.53306 3.84492L13.4328 11.7125L12.5433 12.2541L8.53306 3.84492Z" fill="white"/>
</svg>
