<svg xmlns="http://www.w3.org/2000/svg" xmlns:xlink="http://www.w3.org/1999/xlink" viewBox="0 0 500 500"><defs><clipPath id="freepik--clip-path--inject-373"><path d="M240.27,330.76H362a0,0,0,0,1,0,0v57.61a7.1,7.1,0,0,1-7.1,7.1H240.27a0,0,0,0,1,0,0V330.76A0,0,0,0,1,240.27,330.76Z" transform="translate(602.25 726.24) rotate(180)" style="fill:#00FFA2"></path></clipPath><clipPath id="freepik--clip-path-2--inject-373"><path d="M362.48,396H239.77V337.86a7.61,7.61,0,0,1,7.59-7.6H362.48Zm-121.71-1H361.48V331.26H247.36a6.6,6.6,0,0,0-6.59,6.6Z" style="fill:#fff;opacity:0.5;clip-path:url(#freepik--clip-path--inject-373)"></path></clipPath></defs><g id="freepik--background-simple--inject-373"><path d="M253.56,85.52c-39.31-4.71-81.76-5.11-119.88,8-42.22,14.57-71.07,50.68-80.75,93.61q-1,4.32-1.74,8.68c-8.34,48,27.13,93.9,11.13,122.41s-11.82,77.2-11.82,77.2H423.29S451.81,360,440,302.28s-51.46-50.08-61.2-83.46c-7.44-25.5-9.61-53.44-20.75-78.08-14-30.9-41.11-41.9-72.45-49.5A276,276,0,0,0,253.56,85.52Z" style="fill:#00FFA2"></path><path d="M253.56,85.52c-39.31-4.71-81.76-5.11-119.88,8-42.22,14.57-71.07,50.68-80.75,93.61q-1,4.32-1.74,8.68c-8.34,48,27.13,93.9,11.13,122.41s-11.82,77.2-11.82,77.2H423.29S451.81,360,440,302.28s-51.46-50.08-61.2-83.46c-7.44-25.5-9.61-53.44-20.75-78.08-14-30.9-41.11-41.9-72.45-49.5A276,276,0,0,0,253.56,85.52Z" style="fill:#fff;opacity:0.7000000000000001"></path></g><g id="freepik--Shadow--inject-373"><ellipse cx="168.92" cy="416.72" rx="54" ry="11.76" style="fill:#00FFA2"></ellipse><ellipse cx="168.92" cy="416.72" rx="54" ry="11.76" style="fill:#fff;opacity:0.30000000000000004"></ellipse></g><g id="freepik--Plant--inject-373"><path d="M88,266.41s-3.19,3.65-5,10.94,6.38,12.77,3.64,20.53-7.75,11.4-6.38,19.15,7.3,8.21,2.74,16.88S74.33,345.76,75.7,354s18.7,18.7,18.7,18.7,11.85-13.23,12.31-21.89-10.49-14.14-8.66-21.89,6.38-14.14,5.92-21.44-9.12-12.77-9.12-18.24,3.65-8.66,3.65-15-8.21-11.86-8.21-15.5a26.89,26.89,0,0,1,1.83-8.21S83.45,255.92,88,266.41Z" style="fill:#00FFA2"></path><path d="M88,266.41s-3.19,3.65-5,10.94,6.38,12.77,3.64,20.53-7.75,11.4-6.38,19.15,7.3,8.21,2.74,16.88S74.33,345.76,75.7,354s18.7,18.7,18.7,18.7,11.85-13.23,12.31-21.89-10.49-14.14-8.66-21.89,6.38-14.14,5.92-21.44-9.12-12.77-9.12-18.24,3.65-8.66,3.65-15-8.21-11.86-8.21-15.5a26.89,26.89,0,0,1,1.83-8.21S83.45,255.92,88,266.41Z" style="fill:#fff;opacity:0.5"></path><line x1="92.57" y1="369.93" x2="91.66" y2="271.43" style="fill:none;stroke:#263238;stroke-linecap:round;stroke-linejoin:round"></line><polyline points="101.77 347.39 92.84 356.32 82.71 347.39" style="fill:none;stroke:#263238;stroke-linecap:round;stroke-linejoin:round"></polyline><polyline points="98.79 308.06 92.24 318.19 86.58 308.96" style="fill:none;stroke:#263238;stroke-linecap:round;stroke-linejoin:round"></polyline><polyline points="88.07 278.28 91.94 283.04 95.22 277.38" style="fill:none;stroke:#263238;stroke-linecap:round;stroke-linejoin:round"></polyline><path d="M81.17,369.93H104a0,0,0,0,1,0,0v16.79a8.75,8.75,0,0,1-8.75,8.75h-5.3a8.75,8.75,0,0,1-8.75-8.75V369.93A0,0,0,0,1,81.17,369.93Z" style="fill:#263238"></path></g><g id="freepik--Windows--inject-373"><path d="M253.56,106.53v165H356.47v-165Zm49.94,4V147H257.31V110.53ZM257.31,187V151H303.5V187Zm46.19,4v36.83H257.31V191Zm-46.19,40.83H303.5v35.68H257.31Zm95.4,35.68H307.26V231.86h45.16v-4H307.26V191h45.16v-4H307.26V151h45.16v-4H307.26V110.53h45.45Z" style="fill:#00FFA2"></path><path d="M68.46,106.53v165H171.38v-165Zm49.94,4V147H72.22V110.53ZM72.22,187V151H118.4V187Zm46.18,4v36.83H72.22V191ZM72.22,231.86H118.4v35.68H72.22Zm95.4,35.68H122.16V231.86h45.17v-4H122.16V191h45.17v-4H122.16V151h45.17v-4H122.16V110.53h45.46Z" style="fill:#00FFA2"></path></g><g id="freepik--Couch--inject-373"><path d="M217.39,293.79h63.94a0,0,0,0,1,0,0v81.27a20.41,20.41,0,0,1-20.41,20.41H217.39a0,0,0,0,1,0,0V293.79A0,0,0,0,1,217.39,293.79Z" transform="translate(498.72 689.26) rotate(180)" style="fill:#00FFA2"></path><path d="M281.83,396H216.89V314.2a20.94,20.94,0,0,1,20.92-20.91h44Zm-63.94-1h62.94V294.29h-43a19.94,19.94,0,0,0-19.92,19.91Z" style="fill:#00FFA2"></path><path d="M281.83,396H216.89V314.2a20.94,20.94,0,0,1,20.92-20.91h44Zm-63.94-1h62.94V294.29h-43a19.94,19.94,0,0,0-19.92,19.91Z" style="fill:#fff;opacity:0.5"></path><path d="M255.57,293.29a20.94,20.94,0,0,0-20.92,20.91V396h64.94V293.29Z" style="fill:#00FFA2"></path><path d="M255.57,293.29a20.94,20.94,0,0,0-20.92,20.91V396h64.94V293.29Z" style="fill:#fff;opacity:0.5"></path><path d="M366.1,241.67H314.49a20.17,20.17,0,0,0-20.15,20.15v71.75h91.91V261.82A20.17,20.17,0,0,0,366.1,241.67Z" style="fill:#00FFA2"></path><path d="M366.1,241.67H314.49a20.17,20.17,0,0,0-20.15,20.15v71.75h91.91V261.82A20.17,20.17,0,0,0,366.1,241.67Z" style="fill:#fff;opacity:0.5"></path><path d="M281,242.17h90.9a0,0,0,0,1,0,0v71.26a19.64,19.64,0,0,1-19.64,19.64H300.62A19.64,19.64,0,0,1,281,313.43V242.17A0,0,0,0,1,281,242.17Z" transform="translate(652.86 575.25) rotate(180)" style="fill:#00FFA2"></path><path d="M372.38,333.57h-91.9V261.82a20.17,20.17,0,0,1,20.14-20.15h51.62a20.17,20.17,0,0,1,20.14,20.15Zm-90.9-1h89.9V261.82a19.17,19.17,0,0,0-19.14-19.15H300.62a19.17,19.17,0,0,0-19.14,19.15Z" style="fill:#00FFA2"></path><path d="M372.38,333.57h-91.9V261.82a20.17,20.17,0,0,1,20.14-20.15h51.62a20.17,20.17,0,0,1,20.14,20.15Zm-90.9-1h89.9V261.82a19.17,19.17,0,0,0-19.14-19.15H300.62a19.17,19.17,0,0,0-19.14,19.15Z" style="fill:#fff;opacity:0.5"></path><path d="M240.27,330.76H362a0,0,0,0,1,0,0v57.61a7.1,7.1,0,0,1-7.1,7.1H240.27a0,0,0,0,1,0,0V330.76A0,0,0,0,1,240.27,330.76Z" transform="translate(602.25 726.24) rotate(180)" style="fill:#00FFA2"></path><path d="M362.48,396H239.77V337.86a7.61,7.61,0,0,1,7.59-7.6H362.48Zm-121.71-1H361.48V331.26H247.36a6.6,6.6,0,0,0-6.59,6.6Z" style="fill:#fff;opacity:0.5"></path><g style="clip-path:url(#freepik--clip-path-2--inject-373)"><path d="M240.27,330.76H362a0,0,0,0,1,0,0v57.61a7.1,7.1,0,0,1-7.1,7.1H240.27a0,0,0,0,1,0,0V330.76A0,0,0,0,1,240.27,330.76Z" transform="translate(602.25 726.24) rotate(180)" style="fill:#fff;opacity:0.5"></path></g><rect x="242.06" y="352.59" width="61.71" height="1" style="fill:#fff;opacity:0.5"></rect><path d="M304,293.79H368a0,0,0,0,1,0,0v81.27a20.41,20.41,0,0,1-20.41,20.41H304a0,0,0,0,1,0,0V293.79A0,0,0,0,1,304,293.79Z" transform="translate(672.03 689.26) rotate(180)" style="fill:#00FFA2"></path><path d="M368.48,396H303.54V314.2a20.94,20.94,0,0,1,20.92-20.91h44Zm-63.94-1h62.94V294.29h-43a19.94,19.94,0,0,0-19.92,19.91Z" style="fill:#00FFA2"></path><path d="M368.48,396H303.54V314.2a20.94,20.94,0,0,1,20.92-20.91h44Zm-63.94-1h62.94V294.29h-43a19.94,19.94,0,0,0-19.92,19.91Z" style="fill:#fff;opacity:0.5"></path><path d="M342.22,293.29a20.93,20.93,0,0,0-20.91,20.91V396h64.94V293.29Z" style="fill:#00FFA2"></path><path d="M342.22,293.29a20.93,20.93,0,0,0-20.91,20.91V396h64.94V293.29Z" style="fill:#fff;opacity:0.5"></path></g><g id="freepik--Character--inject-373"><path d="M173.72,397.44s7.59,5.89,10.85,6.6,9.75-.14,9.28,2.37-3.94,4-7.43,4.85-17.77-1.25-20.77-1.21-5,.32-6-2.16.62-9,.62-9Z" style="fill:#263238;stroke:#263238;stroke-linecap:round;stroke-linejoin:round"></path><path d="M173.72,397.44l-1.62.17-.43,1.77s3,3,5.72,3.92a3.17,3.17,0,0,0,3.35-1A79.24,79.24,0,0,1,173.72,397.44Z" style="fill:#fff;stroke:#263238;stroke-linecap:round;stroke-linejoin:round"></path><path d="M186.42,411.26c3.49-.8,7-2.35,7.43-4.85a1.2,1.2,0,0,0,0-.42,27.6,27.6,0,0,1-6.23,2.5c-4.73,1.32-10.75.16-18.26-.74a64.74,64.74,0,0,0-9.93-.47,3.37,3.37,0,0,0,.18.61c1,2.48,3,2.21,6,2.16S182.93,412.06,186.42,411.26Z" style="fill:#fff;stroke:#263238;stroke-linecap:round;stroke-linejoin:round"></path><path d="M133.25,257.5s-.16,24.25-.28,33.5,2.24,43.24,1.76,44.49-3.52,23.46-1.95,28.94S137,399,137,399l12.5-.43s1.4-42.27,2.86-45.29,2-17.78,2.69-22,3.81-31.06,3.81-31.06,4,32.2,3.32,40.46-4.27,16.06-3.17,23.29,1.24,35,1.24,35l12.45-3.68s2.57-12.78,2.53-15.53-.37-8.75.08-12.26,6.82-30.6,7-38.6.26-69.76.26-69.76S156.12,266.17,133.25,257.5Z" style="fill:#263238;stroke:#263238;stroke-linecap:round;stroke-linejoin:round"></path><path d="M182.53,259.6l-1.93-.09c-6.46,1.42-28.15,5.27-47.35-2,0,0,0,3.4-.06,8.14,2.48,2.32,7.86,5.22,19.52,6.58,14.15,1.65,24.62-1.17,29.95-3.2C182.6,264.3,182.55,260.86,182.53,259.6Z" style="fill:#fff;stroke:#263238;stroke-linecap:round;stroke-linejoin:round"></path><path d="M183.17,198.54s8.29,2.88,9.82,4.61-1.15,25-1.13,26.52,2.51,18.71,1.3,21.23S185.73,256,183,255.79s-2.5-17.71-2.1-24.47S183.4,215,183.35,211,182.42,198.8,183.17,198.54Z" style="fill:#00FFA2;stroke:#263238;stroke-linecap:round;stroke-linejoin:round"></path><path d="M198.41,249a10.45,10.45,0,0,0-8.28-3.47,10.89,10.89,0,0,0-11,10.62c-.23,6.57,4.39,8,8.67,7.94S201.52,260,198.41,249Z" style="fill:#00FFA2;stroke:#263238;stroke-linecap:round;stroke-linejoin:round"></path><path d="M201.92,251.78s-7-1.9-11.75-.34-7.21,3.1-7.65,7.61,7.55,3.39,11.8,3.09,14.12-9,14.12-9Z" style="fill:#fff;stroke:#263238;stroke-linecap:round;stroke-linejoin:round"></path><path d="M197.23,255.84c-1-2.73,2.18-5,2.18-5l-2-3.72s1.47-1.77,3,.46,2.81,4,3.8,3.2-.81-4.24-.81-4.24a1.3,1.3,0,0,1,2.25,0c1.27,1.49,1.8,3.73,3.3,4s5.18-5.33,6.19-4.59,0,2.5-1.2,3.77a6.07,6.07,0,0,1-2,1.53s6-3.34,8.69-4.63,3.72-2,4.24-.56-5.94,3.84-9.42,5.39-10.18,4.89-12.92,5.93a13.26,13.26,0,0,1-3.74,1.05" style="fill:#fff;stroke:#263238;stroke-linecap:round;stroke-linejoin:round"></path><path d="M168.75,275.5s-6.71,2.59-1.91,6,1.1,7-3.13,8.55" style="fill:none;stroke:#fff;stroke-linecap:round;stroke-linejoin:round"></path><path d="M151.47,273.24s-3.51,17.05-16.78,16" style="fill:none;stroke:#fff;stroke-linecap:round;stroke-linejoin:round"></path><line x1="159.11" y1="301.14" x2="165.79" y2="295.54" style="fill:#fff;stroke:#fff;stroke-linecap:round;stroke-linejoin:round"></line><polyline points="136.93 270.69 136.81 261.95 139.06 262.91 139.44 272.41" style="fill:#263238;stroke:#263238;stroke-linecap:round;stroke-linejoin:round"></polyline><polyline points="178.62 272.18 178.5 263.43 180.49 262.9 181.36 271.42" style="fill:#263238;stroke:#263238;stroke-linecap:round;stroke-linejoin:round"></polyline><polyline points="153.06 274.42 152.8 266.6 154.79 266.07 155.66 274.6" style="fill:#263238;stroke:#263238;stroke-linecap:round;stroke-linejoin:round"></polyline><path d="M154.7,189.27S132,195.59,132,197.59s-.23,54.51-.17,58.84,5.94,7.42,13.81,9.48,26,1.46,29.83.07,9-2.79,9.6-5.3.28-27.17.39-31.34,4.26-16.89,2.86-21.54-4.12-8.45-7-10.24-10.43-7.18-15.62-8.28A32.79,32.79,0,0,0,154.7,189.27Z" style="fill:#00FFA2;stroke:#263238;stroke-linecap:round;stroke-linejoin:round"></path><path d="M171,203.37s2.87,15.93,1.51,23.59c-1,5.32,0,22.64,1,26.15s1.91,10.26-.43,11.18" style="fill:none;stroke:#263238;stroke-linecap:round;stroke-linejoin:round"></path><path d="M159.7,180.49s-2.56-.1-3.39,1.33-5.56,8.9-5.56,8.9l6.18,14.7,7.16-6.64,6.89,4.59,2.76-6.15,4.35,6.05s-2.19-13.76-3.66-17.3-8.78-7.55-10.77-7.1A16.58,16.58,0,0,0,159.7,180.49Z" style="fill:#00FFA2;stroke:#263238;stroke-linecap:round;stroke-linejoin:round"></path><path d="M159.7,170.11s-.87,9-.82,12.67,4.16,12.6,5.32,14,6.78,6.58,6.78,6.58.74-7.83,1-10.68.47-6.69.47-6.69-6-5-7.94-8.42S159.7,170.11,159.7,170.11Z" style="fill:#fff;stroke:#263238;stroke-linecap:round;stroke-linejoin:round"></path><path d="M184,149.16c-1.06-4.3-5.74-8.57-11.18-10.39-6.14-2-17,1.81-21.63,9.41s1.68,18.33,1.85,20.17-3.66,2.76-3.64,4.32a6.81,6.81,0,0,0,5.93,6.6c4.84.65,6.24-1.08,6.66-1.94s11.73-14.81,13.42-16.12c.63-.48,1.53-1.07,2.41-1.61.71,3.17,3.35,6.58,4.2,6.35,1.14-.3,6.93-2.65,7.42-8.35C189.78,153.12,185.71,150.21,184,149.16Z" style="fill:#263238;stroke:#263238;stroke-linecap:round;stroke-linejoin:round"></path><path d="M181.47,155.1a8.74,8.74,0,0,0-1-7.92c-2.7-3.79-6.38,6-6.38,6" style="fill:none;stroke:#fff;stroke-linecap:round;stroke-linejoin:round"></path><path d="M154.86,162.65a7.55,7.55,0,0,1-1.51-.39" style="fill:none;stroke:#fff;stroke-linecap:round;stroke-linejoin:round"></path><path d="M172.84,147.58s-3.44,5.93-6.9,10.68a11.23,11.23,0,0,1-7.91,4.45" style="fill:none;stroke:#fff;stroke-linecap:round;stroke-linejoin:round"></path><path d="M172.16,142.78a8.92,8.92,0,0,1,3-.23" style="fill:none;stroke:#fff;stroke-linecap:round;stroke-linejoin:round"></path><path d="M150.89,154.65a15.24,15.24,0,0,0,10.24-3.38c2.89-2.41,5.2-5.38,8-7.16" style="fill:none;stroke:#fff;stroke-linecap:round;stroke-linejoin:round"></path><path d="M182.09,157.15s5-1,4.45,2.58-2,3.56-2,3.56" style="fill:none;stroke:#fff;stroke-linecap:round;stroke-linejoin:round"></path><path d="M183.08,164a5,5,0,0,0,0-.58,12.29,12.29,0,0,0-2.06-6.08c-2.18-3.1-6.31-3.75-8-2s-3.57,8.73-8.52,10.79-7.27-1-7.23,1.52,1.85,10.36,4.74,13.59,6.65,7.59,9.36,8.12,7,0,7.24-1,2.72-9,3.94-12.85S183.08,164,183.08,164Z" style="fill:#fff;stroke:#263238;stroke-linecap:round;stroke-linejoin:round"></path><path d="M158.82,168s-.34-3.41-2.75-3.23-2.21,4.72-.61,7.54,4.28.65,4.28.65" style="fill:#fff;stroke:#263238;stroke-linecap:round;stroke-linejoin:round"></path><path d="M172.31,166.38s-3.43-.95-5,1.2" style="fill:none;stroke:#263238;stroke-linecap:round;stroke-linejoin:round"></path><path d="M177.56,166s3.1-2.18,4.28.93" style="fill:#fff;stroke:#263238;stroke-linecap:round;stroke-linejoin:round"></path><path d="M176.89,168.59s.66,6.67.39,7.39-2.68,1.46-4.12.48" style="fill:none;stroke:#263238;stroke-linecap:round;stroke-linejoin:round"></path><path d="M166.77,177.41s1.18,2.82,5.45,2.91" style="fill:none;stroke:#263238;stroke-linecap:round;stroke-linejoin:round"></path><path d="M171.51,170.51c0,.87-.36,1.57-.83,1.58s-.86-.69-.88-1.55.36-1.57.84-1.58S171.5,169.65,171.51,170.51Z" style="fill:#263238"></path><path d="M179.61,169.83c0,.86-.36,1.57-.83,1.57s-.87-.68-.88-1.55.36-1.57.83-1.57S179.6,169,179.61,169.83Z" style="fill:#263238"></path><path d="M136.16,198a5.44,5.44,0,0,0-6.5.09c-3.22,2.55-4.94,40.07-5.37,45.08s-.88,8-.88,8l18.92-5.26,1.42-6s2.75,0,2.47-2-.45-14.24-.51-18.49-6.18-12.42-6.18-12.42" style="fill:#00FFA2;stroke:#263238;stroke-linecap:round;stroke-linejoin:round"></path><path d="M141.79,238.86s-4.14-2-12.65-.71" style="fill:#fff;stroke:#263238;stroke-linecap:round;stroke-linejoin:round"></path><path d="M135,235.33a10.78,10.78,0,0,1,1.76.36" style="fill:#fff;stroke:#263238;stroke-linecap:round;stroke-linejoin:round"></path><path d="M124.43,237.63a23.22,23.22,0,0,1,6.73-2.2" style="fill:#fff;stroke:#263238;stroke-linecap:round;stroke-linejoin:round"></path><path d="M120.09,246.43s2.66,11.46,4.92,12.18,18.15-7.25,18.11-10,3.16-6.3-.34-6.25S122.29,242.65,120.09,246.43Z" style="fill:#00FFA2;stroke:#263238;stroke-linecap:round;stroke-linejoin:round"></path><path d="M174.05,243.17s-32.71,3.21-38.68,5.29-12.39,7.68-11.62,9.67,5.83,5.17,8.33,5.13,6.23-1.59,7-1.6,33.07-13,33.81-13.22,5.74-.84,8-1.87,5.57-4.33,5.57-4.33,12.41,0,13.66-.56,2.21-2-2.05-2.89-6.21-2.64-9-2.6S174.05,243.17,174.05,243.17Z" style="fill:#fff;stroke:#263238;stroke-linecap:round;stroke-linejoin:round"></path><path d="M184.94,240.43a5.8,5.8,0,0,1,3.45-.59,98.06,98.06,0,0,1,9.87,2" style="fill:none;stroke:#263238;stroke-linecap:round;stroke-linejoin:round"></path><path d="M187.63,238a4.67,4.67,0,0,1,3.1-.23c1.46.53,9.87,2.41,10.06,3" style="fill:none;stroke:#263238;stroke-linecap:round;stroke-linejoin:round"></path><rect x="175.21" y="244.54" width="69.25" height="2.5" transform="translate(-3.45 2.98) rotate(-0.81)" style="fill:#fff;stroke:#263238;stroke-linecap:round;stroke-linejoin:round"></rect><polygon points="253.21 209.92 215.47 210.46 206.47 246.09 244.21 245.56 253.21 209.92" style="fill:#fff;stroke:#263238;stroke-linecap:round;stroke-linejoin:round"></polygon><polygon points="161.63 267.1 161.46 272.6 169.96 272.48 170.13 266.73 161.63 267.1" style="fill:#fff;stroke:#263238;stroke-linecap:round;stroke-linejoin:round"></polygon><path d="M137.88,400.7s-1.13,7.73-1.46,12-3.57,8.94-1.1,11,9.63,1.75,13.66.57,1.15-9.15,1.2-11.65a57.71,57.71,0,0,0-.84-9.43c-.46-2.26-.69-3.51-.69-3.51Z" style="fill:#263238;stroke:#263238;stroke-linecap:round;stroke-linejoin:round"></path><path d="M141.38,402.81s-2.17,11.37.16,11.33,4-.05,4.31-1.72-.47-9.66-.47-9.66Z" style="fill:#fff;stroke:#263238;stroke-linecap:round;stroke-linejoin:round"></path><path d="M141,422.49a21.36,21.36,0,0,1-6.56-.63,2.49,2.49,0,0,0,.89,1.8c2.46,2,9.63,1.75,13.66.57,1.42-.42,2-1.7,2.1-3.28C149.26,421.9,146.21,422.41,141,422.49Z" style="fill:#fff;stroke:#263238;stroke-linecap:round;stroke-linejoin:round"></path><path d="M135.05,396.12l.65,6.74a1.16,1.16,0,0,0,1.23,1l12.55-.81a1.16,1.16,0,0,0,1.08-1.14l.09-7.38a1.15,1.15,0,0,0-1.28-1.16l-13.3,1.45A1.15,1.15,0,0,0,135.05,396.12Z" style="fill:#fff;stroke:#263238;stroke-linecap:round;stroke-linejoin:round"></path><path d="M173.51,389.25l-16.17,5.59a1.29,1.29,0,0,0-.81,1.65l1.88,5.28a1.39,1.39,0,0,0,1.7.85l14.65-4.31a1.28,1.28,0,0,0,.94-1.31l-.35-6.55A1.38,1.38,0,0,0,173.51,389.25Z" style="fill:#fff;stroke:#263238;stroke-linecap:round;stroke-linejoin:round"></path></g><g id="freepik--Cloud--inject-373"><path d="M307.34,106.53a25.81,25.81,0,0,0-39.71-26.22,34.82,34.82,0,0,0-67,13.25c0,.43,0,.85,0,1.28a22.66,22.66,0,0,0,3.1,44.25v.24H306.23a16.42,16.42,0,0,0,1.11-32.8Z" style="fill:#00FFA2;stroke:#263238;stroke-miterlimit:10"></path><polygon points="237.16 70.94 217.28 70.94 226.9 77.35 237.16 70.94" style="fill:#263238"></polygon><polygon points="226.88 78.82 216 71.57 216 85.23 237.78 85.23 237.78 72.01 226.88 78.82" style="fill:#263238"></polygon><path d="M274.43,84.87V99.26a4,4,0,0,0-1.92-.47c-1.87,0-3.38,1.17-3.38,2.6s1.51,2.61,3.38,2.61c3.14,0,3.37-2.15,3.37-2.15V89.18l8.95-1.28v9.67a4.13,4.13,0,0,0-1.92-.47c-1.87,0-3.38,1.17-3.38,2.61s1.51,2.6,3.38,2.6a3.24,3.24,0,0,0,3.31-2.14l.06-12.47V83.18Z" style="fill:#263238"></path><path d="M223.79,97.31a4.06,4.06,0,1,0-4.06-4.06A4.06,4.06,0,0,0,223.79,97.31Z" style="fill:#263238"></path><path d="M226.25,98.17h-4.92a5.13,5.13,0,0,0-5.13,5.13v2.78h15.18V103.3A5.13,5.13,0,0,0,226.25,98.17Z" style="fill:#263238"></path><path d="M302.67,119.11c0-5.22-6.1-9.44-13.63-9.44s-13.62,4.22-13.62,9.44c0,4.89,5.36,8.91,12.23,9.39l-.24.05,7.26,3.64-.31-4.38C299.24,126.37,302.67,123,302.67,119.11Zm-7.27.91H282v-1.09H295.4Zm0,3H282V122H295.4Zm0-5.93H282V116H295.4Z" style="fill:#263238"></path><path d="M248.67,109.33a7.94,7.94,0,0,0-7.95,8c0,4.39,7.95,13.05,7.95,13.05s8-8.66,8-13.05A8,8,0,0,0,248.67,109.33Zm0,12a4,4,0,1,1,4.05-4A4,4,0,0,1,248.67,121.33Z" style="fill:#263238"></path><rect x="198.32" y="112.08" width="19.39" height="16.62" style="fill:#00FFA2;stroke:#263238;stroke-miterlimit:10"></rect><polygon points="217.71 120.03 214.39 117.07 210.23 123.16 205.52 121.5 198.32 128.71 217.71 128.71 217.71 120.03" style="fill:#263238"></polygon><circle cx="204.14" cy="116.24" r="2.22" style="fill:#263238"></circle><rect x="204.14" y="114.02" width="19.39" height="16.62" style="fill:#00FFA2;stroke:#263238;stroke-miterlimit:10"></rect><polygon points="223.53 121.96 220.2 119.01 216.05 125.1 211.34 123.44 204.14 130.65 223.53 130.65 223.53 121.96" style="fill:#263238"></polygon><path d="M212.17,118.18A2.22,2.22,0,1,1,210,116,2.21,2.21,0,0,1,212.17,118.18Z" style="fill:#263238"></path><polygon points="257.8 78 257.8 82.03 262.38 82.03 257.8 78" style="fill:#263238"></polygon><path d="M257.13,78.05H246.65V99.9h15.73V82.6h-5.25Zm1.69,17.06H250a.49.49,0,1,1,0-1h8.8a.49.49,0,1,1,0,1Zm0-3H250a.49.49,0,0,1,0-1h8.8a.49.49,0,0,1,0,1Zm0-3H250a.5.5,0,0,1,0-1h8.8a.5.5,0,0,1,0,1Zm0-4a.5.5,0,0,1,0,1H250a.5.5,0,0,1,0-1Z" style="fill:#263238"></path><line x1="228.65" y1="207.04" x2="228.65" y2="205.54" style="fill:none;stroke:#263238;stroke-miterlimit:10"></line><line x1="228.65" y1="202.63" x2="228.65" y2="145.82" style="fill:none;stroke:#263238;stroke-miterlimit:10;stroke-dasharray:2.913180112838745,2.913180112838745"></line><line x1="228.65" y1="144.36" x2="228.65" y2="142.86" style="fill:none;stroke:#263238;stroke-miterlimit:10"></line><polygon points="228.65 139.83 225.08 146.02 232.22 146.02 228.65 139.83" style="fill:#263238"></polygon><line x1="270.27" y1="142.86" x2="270.27" y2="144.36" style="fill:none;stroke:#263238;stroke-miterlimit:10"></line><line x1="270.27" y1="147.36" x2="270.27" y2="223.83" style="fill:none;stroke:#263238;stroke-miterlimit:10;stroke-dasharray:2.998539924621582,2.998539924621582"></line><polyline points="270.27 225.32 270.27 226.82 268.77 226.82" style="fill:none;stroke:#263238;stroke-miterlimit:10"></polyline><line x1="265.9" y1="226.82" x2="255.84" y2="226.82" style="fill:none;stroke:#263238;stroke-miterlimit:10;stroke-dasharray:2.874229907989502,2.874229907989502"></line><line x1="254.4" y1="226.82" x2="252.9" y2="226.82" style="fill:none;stroke:#263238;stroke-miterlimit:10"></line><polygon points="249.53 226.76 255.72 230.33 255.72 223.19 249.53 226.76" style="fill:#263238"></polygon></g></svg>