<svg id="Layer_5" enable-background="new 0 0 64 64" height="512" viewBox="0 0 64 64" width="512" xmlns="http://www.w3.org/2000/svg" xmlns:xlink="http://www.w3.org/1999/xlink"><linearGradient id="SVGID_1_" gradientUnits="userSpaceOnUse" x1="32" x2="32" y1="62.994" y2="1"><stop offset="0" stop-color="#9f2fff"/><stop offset="1" stop-color="#0bb1d3"/></linearGradient><path d="m31 13c0-.552.448-1 1-1s1 .448 1 1-.448 1-1 1-1-.448-1-1zm-11.728 6.272c.391-.391.391-1.024 0-1.414-.391-.391-1.024-.391-1.414 0-.391.391-.391 1.024 0 1.414.39.391 1.024.391 1.414 0zm-6.272 11.728c-.552 0-1 .448-1 1s.448 1 1 1 1-.448 1-1-.448-1-1-1zm19 19c-.552 0-1 .448-1 1s.448 1 1 1 1-.448 1-1-.448-1-1-1zm12.728-5.272c-.391.391-.391 1.024 0 1.414.391.391 1.024.391 1.414 0 .391-.391.391-1.024 0-1.414-.39-.391-1.024-.391-1.414 0zm6.272-11.728c.552 0 1-.448 1-1s-.448-1-1-1-1 .448-1 1 .448 1 1 1zm-19-13c6.617 0 12 5.383 12 12s-5.383 12-12 12-12-5.383-12-12 5.383-12 12-12zm0 2c-5.514 0-10 4.486-10 10s4.486 10 10 10 10-4.486 10-10-4.486-10-10-10zm25 32h2v-2h-2zm-56-49c0-1.654 1.346-3 3-3 1.302 0 2.402.839 2.816 2h34.045c1.821-1.857 4.354-3 7.139-3 4.824 0 8.904 3.414 9.811 8.068 2.958.419 5.189 2.92 5.189 5.932 0 3.309-2.691 6-6 6h-5.954c1.157 1.999 1.983 4.157 2.463 6.442l2.491.84v7.437l-2.491.84c-.561 2.667-1.593 5.163-3.074 7.435l1.164 2.349-5.258 5.257-2.349-1.164c-2.271 1.481-4.767 2.513-7.435 3.074l-.839 2.49h-4.753c.054.324.092.655.092.994 0 .343-.036.678-.091 1.006h15.313l2-6h6.721v2h-5.279l-1.333 4h8.797c.414-1.161 1.514-2 2.816-2 1.654 0 3 1.346 3 3s-1.346 3-3 3c-1.302 0-2.402-.839-2.816-2h-26.943c-1.04 1.787-2.972 2.994-5.185 2.994h-18c-3.309 0-6-2.691-6-6 0-3.035 2.265-5.55 5.192-5.946.726-3.7 3.461-6.607 6.976-7.641-1.288-2.116-2.222-4.404-2.736-6.849l-2.489-.84v-7.437l2.491-.84c.561-2.668 1.593-5.164 3.074-7.435l-1.165-2.347 5.258-5.258 2.349 1.164c2.271-1.481 4.767-2.513 7.435-3.074l.84-2.491h7.437l.558 1.655c.589-.302 1.235-.509 1.916-.601.216-1.098.613-2.123 1.15-3.054h-21.622l-2 6h-6.721v-2h5.279l1.333-4h-8.796c-.414 1.161-1.514 2-2.816 2-1.654 0-3-1.346-3-3zm58 54c0 .551.449 1 1 1s1-.449 1-1-.449-1-1-1-1 .449-1 1zm-20-38c-2.151 0-4.035-1.141-5.094-2.845-.668-.095-1.303-.155-1.906-.155-7.72 0-14 6.28-14 14s6.28 14 14 14 14-6.28 14-14c0-4.336-1.967-8.321-5.39-11zm-9.942 35.994c0-2.185-1.76-3.966-3.937-4l-.121.006h-.896l-.098-.891c-.446-4.056-3.863-7.115-7.948-7.115s-7.502 3.059-7.948 7.115l-.099.891-1.011-.005c-2.179.031-3.942 1.813-3.942 4 0 2.206 1.794 4 4 4h18c2.205-.001 4-1.795 4-4.001zm19.637-35.994h-5.127c2.829 2.953 4.432 6.83 4.432 11 0 8.822-7.178 16-16 16s-16-7.178-16-16 7.178-16 16-16c.359 0 .726.023 1.098.051-.061-.342-.098-.692-.098-1.051 0-1.569.605-3 1.596-4.07l-.314-.93h-4.563l-.755 2.237-.579.106c-2.803.513-5.404 1.588-7.733 3.197l-.484.335-2.11-1.045-3.227 3.227 1.045 2.11-.335.484c-1.608 2.328-2.684 4.93-3.197 7.733l-.106.579-2.238.755v4.563l2.237.755.106.579c.49 2.677 1.507 5.163 2.998 7.41.237-.017.475-.032.716-.032 4.82 0 8.896 3.407 9.808 8.054 1.875.253 3.469 1.381 4.379 2.952h4.038l.755-2.237.579-.106c2.803-.513 5.404-1.588 7.733-3.197l.484-.335 2.11 1.045 3.227-3.227-1.045-2.11.335-.484c1.609-2.329 2.684-4.93 3.197-7.733l.106-.579 2.237-.754v-4.563l-2.237-.755-.106-.579c-.488-2.665-1.484-5.147-2.962-7.385zm-8.643-10.885-.101.913-1.006-.028c-2.18.03-3.945 1.813-3.945 4 0 2.206 1.794 4 4 4h18c2.206 0 4-1.794 4-4 0-2.186-1.762-3.968-3.94-4l-1.011.028-.101-.913c-.446-4.056-3.863-7.115-7.948-7.115s-7.502 3.059-7.948 7.115zm-37.052-5.115c0 .551.449 1 1 1s1-.449 1-1-.449-1-1-1-1 .449-1 1zm4 5h-2v2h2z" fill="url(#SVGID_1_)"/></svg>