<svg width="100" height="100" viewBox="0 0 100 100" fill="none" xmlns="http://www.w3.org/2000/svg" style="width: 100px; height: 100px;"><style>
     .line-lock3 {animation:line-lock3 2.5s infinite;}
     @keyframes line-lock3 {
         0%{transform:translate3d(0, 0px, 0);}
         20%{transform:translate3d(0, 0px, 0);}
         40%{transform:translate3d(0, 10px, 0);}
         50%{transform:translate3d(0, 8px, 0);}
         80%{transform:translate3d(0, 8px, 0);}
         100%{transform:translate3d(0, 0px, 0);}
     }
     @media (prefers-reduced-motion: reduce) {
         .line-lock3 {
             animation: none;
         }
     }
    </style><path class="line-lock3 stroke2 fill2" d="M36.025 43.0913C36.025 43.0913 36.025 33.5368 36.025 25.2353C36.025 16.5695 41.8839 12 50.7735 12C60.0978 12 65.5219 16.8556 65.5219 25.2353C65.5219 30.9748 65.5219 34.2527 65.5219 35.7486C65.5219 36.3008 65.0742 36.7477 64.5219 36.7477H60.0219C59.4696 36.7477 59.0219 36.3006 59.0219 35.7484C59.0219 33.5019 59.0219 28.0315 59.0219 25.2353C59.0219 21.6623 56.0219 18.3083 50.7735 18.3083C45.525 18.3083 43.0219 21.1756 43.0219 25.2353C43.0219 32.3083 43.0219 43.0913 43.0219 43.0913" stroke="#ffffff" fill="rgba(255,255,255,0)" stroke-width="5px" style="animation-duration: 2.5s;"></path><rect class="stroke1 fill1" x="22" y="42.865" width="56.1965" height="45.0355" rx="7" fill="rgba(255,255,255,0)" stroke="#ffffff" stroke-width="5px" style="animation-duration: 2.5s;"></rect><path class="stroke1 fill1" d="M53.464 74.7222C53.024 75.0579 52.5175 75.399 52.0087 75.6525C51.487 75.9124 51.04 76.041 50.6988 76.041C50.4414 76.041 50.0379 75.9269 49.5128 75.6637C49.0098 75.4116 48.4895 75.0713 48.0268 74.7342C47.4205 74.2923 47.0685 73.5347 47.0685 72.676V67.3063C47.0685 66.1754 46.6811 65.118 46.1026 64.2341C45.7146 63.6412 45.2597 62.8739 44.9048 62.0697C44.5432 61.2505 44.3219 60.4735 44.3219 59.8397C44.3219 58.5678 45.0742 57.3544 46.3352 56.4158C47.5935 55.4791 49.2306 54.9219 50.6988 54.9219C52.1532 54.9219 53.6773 55.4863 54.8293 56.4167C55.9803 57.3464 56.6718 58.5625 56.6718 59.8397C56.6718 60.52 56.4654 61.3388 56.1439 62.1796C55.8274 63.0076 55.4255 63.7901 55.0931 64.3787C54.6331 65.1934 54.3291 66.1381 54.3291 67.1387V72.7772C54.3291 73.5938 54.013 74.3035 53.464 74.7222Z" fill="rgba(255,255,255,0)" stroke="#69F5B2" stroke-width="5px" style="animation-duration: 2.5s;"></path></svg>