<svg id="Layer_5" enable-background="new 0 0 64 64" height="512" viewBox="0 0 64 64" width="512" xmlns="http://www.w3.org/2000/svg" xmlns:xlink="http://www.w3.org/1999/xlink"><linearGradient id="SVGID_1_" gradientUnits="userSpaceOnUse" x1="32" x2="32" y1="63" y2="1"><stop offset="0" stop-color="#9f2fff"/><stop offset="1" stop-color="#0bb1d3"/></linearGradient><path d="m61 57.184v-51.184c0-2.757-2.243-5-5-5h-48c-2.757 0-5 2.243-5 5v51.184c-1.161.414-2 1.514-2 2.816v3h62v-3c0-1.302-.839-2.402-2-2.816zm-53-54.184h48c1.654 0 3 1.346 3 3v51h-2v-50c0-1.103-.897-2-2-2h-46c-1.103 0-2 .897-2 2v50h-2v-51c0-1.654 1.346-3 3-3zm47 4.873-7.53 29.151c-.155-.012-.311-.024-.47-.024-.154 0-.305.012-.457.023l-7.272-30.023h15.729zm-38 31.127c2.206 0 4 1.794 4 4s-1.794 4-4 4-4-1.794-4-4 1.794-4 4-4zm2.392-1.5 2.562-10.929 2.648 10.931c-1.063.466-1.966 1.229-2.602 2.187-.637-.958-1.542-1.723-2.608-2.189zm7.608 1.5c2.206 0 4 1.794 4 4s-1.794 4-4 4-4-1.794-4-4 1.794-4 4-4zm2.392-1.5 2.563-10.928 2.648 10.931c-1.063.466-1.966 1.229-2.602 2.187-.638-.959-1.543-1.724-2.609-2.19zm7.608 1.5c2.206 0 4 1.794 4 4s-1.794 4-4 4-4-1.794-4-4 1.794-4 4-4zm2.394-1.499 2.575-10.87 2.633 10.872c-1.063.466-1.966 1.229-2.602 2.187-.637-.958-1.541-1.723-2.606-2.189zm7.606 1.499c2.206 0 4 1.794 4 4s-1.794 4-4 4-4-1.794-4-4 1.794-4 4-4zm-9.786-32 3.716 15.342-3.478 14.681c-.15-.011-.3-.023-.452-.023-.154 0-.305.012-.457.023l-7.272-30.023zm-10 0 3.697 15.263-3.461 14.76c-.15-.011-.298-.023-.45-.023-.154 0-.305.012-.457.023l-7.272-30.023zm-10 0 3.697 15.262-3.461 14.761c-.149-.011-.298-.023-.45-.023-.154 0-.305.012-.457.023l-7.272-30.023zm-8.214 7.375 5.602 23.128c-2.117.928-3.602 3.041-3.602 5.497 0 3.309 2.691 6 6 6 2.086 0 3.924-1.071 5-2.69 1.076 1.62 2.914 2.69 5 2.69s3.924-1.071 5-2.69c1.076 1.62 2.914 2.69 5 2.69s3.924-1.071 5-2.69c1.076 1.62 2.914 2.69 5 2.69 3.309 0 6-2.691 6-6 0-2.451-1.479-4.56-3.589-5.49l5.589-21.64v41.13h-46zm52 46.625h-58v-1c0-.552.449-1 1-1h56c.551 0 1 .448 1 1z" fill="url(#SVGID_1_)"/></svg>