<svg width="100" height="100" viewBox="0 0 100 100" fill="none" xmlns="http://www.w3.org/2000/svg" style="width: 100px; height: 100px;"><style>
     .line-rocket3 {animation:line-rocket3-flame 200ms infinite linear; transform-origin: 28.5px 70.5px;}
     @keyframes line-rocket3-flame {
         0%{transform:scale(1);}
         50%{transform:scale(1.3);}
     }
     @media (prefers-reduced-motion: reduce) {
         .line-rocket3 {
             animation: none;
         }
     }
    </style><path class="line-rocket3 stroke2 fill2" d="M28.1232 81.9908C31.1219 79.8776 33.6524 72.7296 29.6329 69.1463C25.0398 65.0517 18.3937 70.1463 16.4324 74.1019C13.6272 79.7592 11 88.9241 11 88.9241C11 88.9241 21 87.0103 28.1232 81.9908Z" fill="rgba(255,255,255,0)" stroke="#69F5B2" stroke-width="5px" style="animation-duration: 0.2s;"></path><path class="stroke1 fill1" d="M57.5 77.8235V67.5805C57.5 66.8488 56.7401 66.3649 56.0771 66.6743L43.0771 72.7409C42.725 72.9052 42.5 73.2586 42.5 73.6471V78.7166C42.5 78.9083 42.4449 79.096 42.3412 79.2573L39.6531 83.4387C39.1304 84.2519 39.951 85.2599 40.8533 84.9128L56.859 78.7568C57.2452 78.6083 57.5 78.2372 57.5 77.8235Z" fill="rgba(255,255,255,0)" stroke="#ffffff" stroke-width="5px" style="animation-duration: 0.2s;"></path><path class="stroke1 fill1" d="M22.677 42.5103H33.4298C34.1614 42.5103 34.6454 43.2702 34.336 43.9331L28.2693 56.9331C28.105 57.2852 27.7517 57.5103 27.3631 57.5103H21.3205C21.112 57.5103 20.9088 57.5754 20.7392 57.6965L16.7773 60.5265C15.9646 61.107 14.8966 60.2687 15.2676 59.3414L21.7486 43.1389C21.9004 42.7592 22.2681 42.5103 22.677 42.5103Z" fill="rgba(255,255,255,0)" stroke="#ffffff" stroke-width="5px" style="animation-duration: 0.2s;"></path><path class="fill1" d="M41.5 74.0102L26 58.5102C26 58.5102 32.5188 42.2617 39.75 34.0102C46.7768 25.992 61.5 17.5102 61.5 17.5102C61.5 17.5102 85.5 10.0102 88 12.5102C90.5 15.0102 82.5 38.5102 82.5 38.5102C82.5 38.5102 74.0182 53.2334 66 60.2602C57.7485 67.4914 41.5 74.0102 41.5 74.0102Z" fill="rgba(255,255,255,0)" stroke-width="5px" style="animation-duration: 0.2s;"></path><path class="stroke1" d="M82.5 38.5102C82.5 38.5102 90.5 15.0102 88 12.5102C85.5 10.0102 61.5 17.5102 61.5 17.5102M82.5 38.5102L61.5 17.5102M82.5 38.5102C82.5 38.5102 74.0182 53.2334 66 60.2602C57.7485 67.4914 41.5 74.0102 41.5 74.0102L26 58.5102C26 58.5102 32.5188 42.2617 39.75 34.0102C46.7768 25.992 61.5 17.5102 61.5 17.5102" stroke="#ffffff" stroke-width="5px" style="animation-duration: 0.2s;"></path><path class="stroke1 fill1" d="M48 61.0132V53.5103C48 52.958 47.5523 52.5103 47 52.5103H38.6092C38.2608 52.5103 37.9375 52.6916 37.7558 52.989L26.0548 72.146C25.5141 73.0313 26.5127 74.0528 27.41 73.5323L47.5017 61.8782C47.8102 61.6993 48 61.3697 48 61.0132Z" fill="rgba(255,255,255,0)" stroke="#ffffff" stroke-width="5px" style="animation-duration: 0.2s;"></path><circle class="stroke1 fill1" cx="60" cy="40.5103" r="10" fill="rgba(255,255,255,0)" stroke="#69F5B2" stroke-width="5px" style="animation-duration: 0.2s;"></circle></svg>