<svg id="blue" xmlns="http://www.w3.org/2000/svg" xmlns:xlink="http://www.w3.org/1999/xlink" viewBox="0 0 576 576"><defs><style>.cls-1{fill:url(#radial-gradient);}.cls-2{fill:#31dcff;}.cls-3{fill:url(#linear-gradient);}.cls-4{fill:url(#linear-gradient-2);}.cls-5{fill:#71d9ff;}.cls-6{fill:url(#radial-gradient-2);}.cls-7{fill:url(#radial-gradient-3);}.cls-8{opacity:0.3;fill:url(#linear-gradient-3);}</style><radialGradient id="radial-gradient" cx="-5376.99" cy="-1646.99" r="310.54" gradientTransform="translate(3068.85 1107.96) scale(0.51 0.51)" gradientUnits="userSpaceOnUse"><stop offset="0.02" stop-color="#0000e7"/><stop offset="0.26" stop-color="#0000e3"/><stop offset="0.49" stop-color="#0000d7"/><stop offset="0.72" stop-color="#0000c4"/><stop offset="0.94" stop-color="#0000a8"/><stop offset="1" stop-color="#0000a0"/></radialGradient><linearGradient id="linear-gradient" x1="377.71" y1="333.05" x2="158.7" y2="379.2" gradientUnits="userSpaceOnUse"><stop offset="0" stop-color="#0000e7"/><stop offset="0.37" stop-color="#3259f1"/><stop offset="0.67" stop-color="#579cf9"/><stop offset="0.89" stop-color="#6ec4fd"/><stop offset="1" stop-color="#77d4ff"/></linearGradient><linearGradient id="linear-gradient-2" x1="402.57" y1="290.65" x2="441.71" y2="155.83" gradientUnits="userSpaceOnUse"><stop offset="0" stop-color="#0000e7"/><stop offset="0.03" stop-color="#060be8"/><stop offset="0.24" stop-color="#2e52f0"/><stop offset="0.42" stop-color="#4d8af7"/><stop offset="0.58" stop-color="#64b2fb"/><stop offset="0.71" stop-color="#72cbfe"/><stop offset="0.78" stop-color="#77d4ff"/></linearGradient><radialGradient id="radial-gradient-2" cx="-5444.9" cy="-1634.88" r="426.62" gradientTransform="translate(3068.85 1107.96) scale(0.51 0.51)" gradientUnits="userSpaceOnUse"><stop offset="0.1" stop-color="#0000e7" stop-opacity="0"/><stop offset="0.44" stop-color="#0000e7" stop-opacity="0.01"/><stop offset="0.57" stop-color="#0000e7" stop-opacity="0.04"/><stop offset="0.65" stop-color="#0000e7" stop-opacity="0.09"/><stop offset="0.72" stop-color="#0000e7" stop-opacity="0.16"/><stop offset="0.79" stop-color="#0000e7" stop-opacity="0.26"/><stop offset="0.84" stop-color="#0000e7" stop-opacity="0.37"/><stop offset="0.89" stop-color="#0000e7" stop-opacity="0.52"/><stop offset="0.93" stop-color="#0000e7" stop-opacity="0.68"/><stop offset="0.97" stop-color="#0000e7" stop-opacity="0.86"/><stop offset="1" stop-color="#0000e7"/></radialGradient><radialGradient id="radial-gradient-3" cx="-5530.7" cy="-1596.73" r="1186.3" gradientTransform="matrix(0.33, 0.39, -0.66, 0.57, 1029.91, 3341.58)" gradientUnits="userSpaceOnUse"><stop offset="0" stop-color="#fff"/><stop offset="0.03" stop-color="#eefaff" stop-opacity="0.88"/><stop offset="0.08" stop-color="#d5f2ff" stop-opacity="0.69"/><stop offset="0.14" stop-color="#bfebff" stop-opacity="0.53"/><stop offset="0.2" stop-color="#abe5ff" stop-opacity="0.39"/><stop offset="0.27" stop-color="#9bdfff" stop-opacity="0.27"/><stop offset="0.34" stop-color="#8edbff" stop-opacity="0.17"/><stop offset="0.42" stop-color="#84d8ff" stop-opacity="0.09"/><stop offset="0.51" stop-color="#7cd6ff" stop-opacity="0.04"/><stop offset="0.63" stop-color="#78d4ff" stop-opacity="0.01"/><stop offset="0.85" stop-color="#77d4ff" stop-opacity="0"/></radialGradient><linearGradient id="linear-gradient-3" x1="-144.02" y1="552.04" x2="763.21" y2="-3.76" gradientUnits="userSpaceOnUse"><stop offset="0.15" stop-color="#00ffaf"/><stop offset="0.23" stop-color="#00ffaf" stop-opacity="0.82"/><stop offset="0.34" stop-color="#00ffaf" stop-opacity="0.57"/><stop offset="0.45" stop-color="#00ffaf" stop-opacity="0.37"/><stop offset="0.55" stop-color="#00ffaf" stop-opacity="0.21"/><stop offset="0.65" stop-color="#00ffaf" stop-opacity="0.09"/><stop offset="0.73" stop-color="#00ffaf" stop-opacity="0.02"/><stop offset="0.78" stop-color="#00ffaf" stop-opacity="0"/></linearGradient></defs><circle class="cls-1" cx="288" cy="287.35" r="158.53"/><path class="cls-2" d="M442,198.92l.06.11-.06-.11"/><path class="cls-3" d="M156.82,340C123.5,412.38,226.67,479,309.57,448.4c61-22.54,33.88-45.19.63-64.44-4.21-2.44-8.38-4.83-12.4-7.2-36.7,23.77-80.13,14.15-92.89-10.46-22.65-43.72,33.92-93.37,103.79-121h0C245.68,270.93,181.81,285.75,156.82,340Z"/><path class="cls-4" d="M377.35,285.21c56.25-14.44,81.39-57.42,68.76-83.94l.06.1a1.19,1.19,0,0,1-.08-.16c-5.7-9.29-12-13.57-18.4-13.57-13.8,0-29.81,21.49-36.58,54.73a209.84,209.84,0,0,1-13.78,42.85Z"/><path class="cls-5" d="M446.11,201.27c12.63,26.52-12.51,69.5-68.76,83.94C319.91,300,274.23,306.58,262.92,329s16.79,37.34,47.28,55c33.25,19.25,60.39,41.9-.63,64.44C226.67,479,123.5,412.38,156.82,340c25-54.28,88.86-69.1,151.88-94.74,36-14.66,68.68-41.86,65.8-77-3.78-46-70-70.7-132.94-54.88a180,180,0,1,0,204.55,87.83Z"/><path class="cls-6" d="M446.11,201.27c12.63,26.52-12.51,69.5-68.76,83.94C319.91,300,274.23,306.58,262.92,329s16.79,37.34,47.28,55c33.25,19.25,60.39,41.9-.63,64.44C226.67,479,123.5,412.38,156.82,340c25-54.28,88.86-69.1,151.88-94.74,36-14.66,68.68-41.86,65.8-77-3.78-46-70-70.7-132.94-54.88a180,180,0,1,0,204.55,87.83Z"/><path class="cls-7" d="M446.11,201.27c12.63,26.52-12.51,69.5-68.76,83.94C319.91,300,274.23,306.58,262.92,329s16.79,37.34,47.28,55c33.25,19.25,60.39,41.9-.63,64.44C226.67,479,123.5,412.38,156.82,340c25-54.28,88.86-69.1,151.88-94.74,36-14.66,68.68-41.86,65.8-77-3.78-46-70-70.7-132.94-54.88a180,180,0,1,0,204.55,87.83Z"/><path class="cls-8" d="M446.11,201.27c12.63,26.52-12.51,69.5-68.76,83.94C319.91,300,274.23,306.58,262.92,329s16.79,37.34,47.28,55c33.25,19.25,60.39,41.9-.63,64.44C226.67,479,123.5,412.38,156.82,340c25-54.28,88.86-69.1,151.88-94.74,36-14.66,68.68-41.86,65.8-77-3.78-46-70-70.7-132.94-54.88a180,180,0,1,0,204.55,87.83Z"/></svg>
