<svg width="100" height="100" viewBox="0 0 100 100" fill="none" xmlns="http://www.w3.org/2000/svg" style="width: 50px; height: 50px;"><style>
     .line-modem3-a {animation:line-modem3-a 2s infinite;}
     @keyframes line-modem3-a {
         0%{opacity: 0;}
         25%{opacity: 0;}
         50%{opacity: 1;}
         100%{opacity: 1;}
     }

     .line-modem3-b {animation:line-modem3-b 2s infinite;}
     @keyframes line-modem3-b {
         0%{opacity: 0;}
         45%{opacity: 0;}
         70%{opacity: 1;}
         100%{opacity: 1;}
     }

     .line-modem3-c {animation:line-modem3-c 2s infinite;}
     @keyframes line-modem3-c {
         0%{opacity: 0;}
         65%{opacity: 0;}
         90%{opacity: 1;}
         100%{opacity: 1;}
     }
     @media (prefers-reduced-motion: reduce) {
         .line-modem3-a, .line-modem3-b, .line-modem3-c {
             animation: none;
         }
     }
    </style><path class="line-modem3-a stroke2" d="M45 62.5C45 62.5 47 59.5 51 59.5C55 59.5 57 62.5 57 62.5" stroke="rgba(147,241,217,1)" stroke-width="4.0px" stroke-linecap="round" style="animation-duration: 2s;"></path><path class="line-modem3-b stroke2" d="M41 57C41 57 45 52.5 51.25 52.5C57.5 52.5 61.5 57 61.5 57" stroke="rgba(147,241,217,1)" stroke-width="4.0px" stroke-linecap="round" style="animation-duration: 2s;"></path><path class="line-modem3-c stroke2" d="M35.5 52C35.5 52 42 45 51.25 45C60.5 45 67 52 67 52" stroke="rgba(147,241,217,1)" stroke-width="4.0px" stroke-linecap="round" style="animation-duration: 2s;"></path><path class="fill1" d="M18 72C16.8954 72 16 72.8954 16 74V88.5C16 89.6046 16.8954 90.5 18 90.5H23.5H79H84C85.1046 90.5 86 89.6046 86 88.5V74C86 72.8954 85.1046 72 84 72H69.5H32H18Z" fill="rgba(255,255,255,1)" stroke-width="4.0px" style="animation-duration: 2s;"></path><path class="stroke1" d="M32 72H18C16.8954 72 16 72.8954 16 74V88.5C16 89.6046 16.8954 90.5 18 90.5H23.5M32 72L16 41.5M32 72H69.5M69.5 72H84C85.1046 72 86 72.8954 86 74V88.5C86 89.6046 85.1046 90.5 84 90.5H79M69.5 72L86 41.5M23.5 90.5V95.5M23.5 90.5H79M79 90.5V95.5" stroke="rgba(57,48,184,1)" stroke-width="4.0px" stroke-linecap="round" style="animation-duration: 2s;"></path><path class="stroke1" d="M79.5 77V86" stroke="rgba(57,48,184,1)" stroke-width="4.0px" style="animation-duration: 2s;"></path><circle class="stroke1 fill1" cx="70.5" cy="81.5" r="3.5" fill="rgba(255,255,255,1)" stroke="rgba(57,48,184,1)" stroke-width="4.0px" style="animation-duration: 2s;"></circle><path class="stroke1" d="M61.5 77V86" stroke="rgba(57,48,184,1)" stroke-width="4.0px" style="animation-duration: 2s;"></path><path class="stroke1" d="M55.5 77V86" stroke="rgba(57,48,184,1)" stroke-width="4.0px" style="animation-duration: 2s;"></path></svg>