<svg width="100" height="100" viewBox="0 0 100 100" fill="none" xmlns="http://www.w3.org/2000/svg" style="width: 50px; height: 50px;"><style>
     .line-network1-a {animation:line-network1-a 2s infinite;}
     @keyframes line-network1-a {
         0%{opacity: 0;}
         25%{opacity: 0;}
         50%{opacity: 1;}
         100%{opacity: 1;}
     }

     .line-network1-b {animation:line-network1-b 2s infinite;}
     @keyframes line-network1-b {
         0%{opacity: 0;}
         45%{opacity: 0;}
         70%{opacity: 1;}
         100%{opacity: 1;}
     }

     .line-network1-c {animation:line-network1-c 2s infinite;}
     @keyframes line-network1-c {
         0%{opacity: 0;}
         65%{opacity: 0;}
         90%{opacity: 1;}
         100%{opacity: 1;}
     }
     @media (prefers-reduced-motion: reduce) {
         .line-network1-a, .line-network1-b, .line-network1-c {
             animation: none;
         }
     }
    </style><path class="fill1" d="M55 77.5C55 75.2909 53.2091 73.5 51 73.5C48.7909 73.5 47 75.2909 47 77.5C47 79.7091 48.7909 81.5 51 81.5C53.2091 81.5 55 79.7091 55 77.5Z" fill="#FFF" stroke-width="4.0px" style="animation-duration: 3.8s;"></path><path class="stroke1" d="M51 50C51 50 51 64.3227 51 73.5M51 73.5C53.2091 73.5 55 75.2909 55 77.5C55 79.7091 53.2091 81.5 51 81.5C48.7909 81.5 47 79.7091 47 77.5C47 75.2909 48.7909 73.5 51 73.5Z" stroke="rgba(57,48,184,1)" stroke-width="4.0px" style="animation-duration: 3.8s;"></path><path class="fill1" d="M74.5 73.5C72.2909 73.5 70.5 75.2909 70.5 77.5C70.5 79.7091 72.2909 81.5 74.5 81.5C76.7091 81.5 78.5 79.7091 78.5 77.5C78.5 75.2909 76.7091 73.5 74.5 73.5Z" fill="#FFF" stroke-width="4.0px" style="animation-duration: 3.8s;"></path><path class="stroke1" d="M63 51V76.5C63 77.0523 63.4462 77.5 63.9984 77.5C65.5089 77.5 68.4189 77.5 70.5 77.5M70.5 77.5C70.5 75.2909 72.2909 73.5 74.5 73.5C76.7091 73.5 78.5 75.2909 78.5 77.5C78.5 79.7091 76.7091 81.5 74.5 81.5C72.2909 81.5 70.5 79.7091 70.5 77.5Z" stroke="rgba(57,48,184,1)" stroke-width="4.0px" style="animation-duration: 3.8s;"></path><path class="fill1" d="M27 73.5C29.2091 73.5 31 75.2909 31 77.5C31 79.7091 29.2091 81.5 27 81.5C24.7909 81.5 23 79.7091 23 77.5C23 75.2909 24.7909 73.5 27 73.5Z" fill="#FFF" stroke-width="4.0px" style="animation-duration: 3.8s;"></path><path class="stroke1" d="M38.5 51V76.5C38.5 77.0523 38.0538 77.5 37.5016 77.5C35.9911 77.5 33.0811 77.5 31 77.5M31 77.5C31 75.2909 29.2091 73.5 27 73.5C24.7909 73.5 23 75.2909 23 77.5C23 79.7091 24.7909 81.5 27 81.5C29.2091 81.5 31 79.7091 31 77.5Z" stroke="rgba(57,48,184,1)" stroke-width="4.0px" style="animation-duration: 3.8s;"></path><path class="fill1 stroke1" d="M73.0248 61H27.8882C27.8882 61 14 60.031 14 47.6761C14 35.3211 27.8882 34.3521 27.8882 34.3521C27.8882 34.3521 33.8403 18 48.1005 18C64.5927 18 68.3128 29.7493 68.3128 29.7493C68.3128 29.7493 70.0488 29.3309 73.0248 29.9915C83.937 32.4141 86.913 38.2282 86.913 45.4958C86.913 60.031 73.0248 61 73.0248 61Z" fill="#FFF" stroke="rgba(57,48,184,1)" stroke-width="4.0px" style="animation-duration: 3.8s;"></path><path class="line-network1-a stroke2" d="M57 54C57 54 56 50 50.5 50C45 50 44 54 44 54" stroke="rgba(147,241,217,1)" stroke-width="4.0px" stroke-linecap="round" style="animation-duration: 3.8s;"></path><path class="line-network1-b stroke2" d="M61 49C61 49 59.5 43 50.5 43C41.5 43 40 49 40 49" stroke="rgba(147,241,217,1)" stroke-width="4.0px" stroke-linecap="round" style="animation-duration: 3.8s;"></path><path class="line-network1-c stroke2" d="M65 44C65 44 62.5 36 50.5 36C38.5 36 36 44 36 44" stroke="rgba(147,241,217,1)" stroke-width="4.0px" stroke-linecap="round" style="animation-duration: 3.8s;"></path></svg>