<svg fill="none" height="37" viewBox="0 0 44 37" width="44" xmlns="http://www.w3.org/2000/svg" xmlns:xlink="http://www.w3.org/1999/xlink"><clipPath id="a"><path d="m0 0h44v36.9531h-44z"/></clipPath><g clip-path="url(#a)"><path d="m19.6376.464376-16.39668 6.784764c-.91179.37727-.90234 1.67235.0153 2.0362l16.46508 6.52936c1.4467.5738 3.0578.5738 4.5045 0l16.4655-6.52953c.9173-.36351.9269-1.65859.0148-2.03603l-16.3964-6.784936c-1.4959-.618939-3.1762-.618939-4.6721 0" fill="#ffbf00"/><path d="m23.4336 19.3801v16.3113c0 .7759.782 1.3071 1.5032 1.0213l18.3473-7.1216c.2046-.0812.3802-.2219.5038-.4039.1237-.1821.1898-.3972.1898-.6172v-16.3115c0-.7758-.7822-1.3069-1.5034-1.0211l-18.3473 7.1215c-.2046.0811-.3802.2219-.5038.404-.1237.1821-.1898.3971-.1898.6172" fill="#26b5f8"/><path d="m19.1508 20.2216-5.445 2.629-.5529.2672-11.49431 5.5074c-.728574.3515-1.65859-.1794-1.65859-.9888v-15.3097c0-.2929.150219-.5457.351656-.7362.082527-.0821.176131-.1523.278094-.2085.274656-.1648.66653-.2088.99962-.077l17.42983 6.906c.886.3515.9556 1.5929.0916 2.0104" fill="#ed3049"/><path d="m19.1548 20.2222-5.445 2.629-13.354331-11.2599c.082527-.0821.176131-.1523.278093-.2085.274657-.1648.666528-.2088.999628-.077l17.42981 6.906c.886.3515.9557 1.5929.0916 2.0104" fill="#000" fill-opacity=".25"/></g></svg>
