<svg width="100" height="100" viewBox="0 0 100 100" fill="none" xmlns="http://www.w3.org/2000/svg" style="width: 100px; height: 100px;"><style>
     .line-hard-drive1 {animation:line-hard-drive1-spin 500ms infinite linear; transform-origin: 51px 39px;}
     @keyframes line-hard-drive1-spin {
         100%{transform:rotate(360deg);}
     }
     @media (prefers-reduced-motion: reduce) {
         .line-hard-drive1 {
             animation: none;
         }
     }
    </style><rect class="stroke1 fill1" x="19" y="7" width="64" height="86" rx="4" fill="rgba(255,255,255,0)" stroke="rgba(255,255,255,1)" stroke-width="4.0px" style="animation-duration: 0.5s;"></rect><g class="line-hard-drive1" style="animation-duration: 0.5s;"><ellipse class="stroke2 fill2" cx="51" cy="39" rx="23" ry="23" transform="rotate(90 51 39)" fill="rgba(255,255,255,0)" stroke="rgba(105,245,178,1)" stroke-width="2" style="animation-duration: 0.5s;"></ellipse><ellipse class="stroke2 fill2" cx="51" cy="39" rx="6" ry="6" transform="rotate(90 51 39)" fill="rgba(255,255,255,0)" stroke="rgba(105,245,178,1)" stroke-width="2" style="animation-duration: 0.5s;"></ellipse><path class="stroke2 fill2" d="M49.75 23.5C49.75 23.5 56.9402 23.0401 62.2201 28.27C67.5 33.5 67 39.75 67 39.75" stroke="rgba(105,245,178,1)" stroke-width="4.0px" style="animation-duration: 0.5s;"></path></g><circle class="stroke2 fill2" cx="27.5" cy="15.5" r="3.5" fill="rgba(255,255,255,0)" stroke="rgba(105,245,178,1)" stroke-width="4.0px" style="animation-duration: 0.5s;"></circle><circle class="stroke2 fill2" cx="74.5" cy="15.5" r="3.5" fill="rgba(255,255,255,0)" stroke="rgba(105,245,178,1)" stroke-width="4.0px" style="animation-duration: 0.5s;"></circle><path class="stroke2 fill2" d="M29 69V63.5L57 51L39 69H29Z" fill="rgba(255,255,255,0)" stroke="rgba(105,245,178,1)" stroke-width="4.0px" style="animation-duration: 0.5s;"></path><path class="stroke2 fill2" d="M72.5 85H29.5H29V80L34.5 74.5H67L72.5 80V85Z" fill="rgba(255,255,255,0)" stroke="rgba(105,245,178,1)" stroke-width="4.0px" style="animation-duration: 0.5s;"></path></svg>
