<svg width="131" height="139" viewBox="0 0 131 139" fill="none" xmlns="http://www.w3.org/2000/svg">
<mask id="path-1-inside-1" fill="white">
<path fill-rule="evenodd" clip-rule="evenodd" d="M63.2385 131.862C108.239 158.112 145.738 105.612 125.113 56.8623C104.488 8.11232 63.2386 0.612277 63.2386 0.612277C63.2386 0.612277 16.3628 -6.88792 3.23784 30.6124C-9.88709 68.1126 18.2384 105.612 63.2385 131.862Z"/>
</mask>
<path d="M125.113 56.8623L136.165 52.1866L136.165 52.1866L125.113 56.8623ZM63.2385 131.862L69.285 121.497L69.285 121.497L63.2385 131.862ZM63.2386 0.612277L65.3852 -11.1942L65.2601 -11.2169L65.1345 -11.237L63.2386 0.612277ZM3.23784 30.6124L-8.08848 26.6482L3.23784 30.6124ZM114.062 61.538C122.792 82.1724 118.893 102.829 109.321 115.11C104.593 121.176 98.6861 124.998 92.3338 126.328C86.0861 127.635 78.3114 126.762 69.285 121.497L57.1921 142.228C70.6657 150.087 84.4535 152.496 97.2489 149.819C109.939 147.164 120.556 139.736 128.25 129.864C143.521 110.271 148.06 80.3022 136.165 52.1866L114.062 61.538ZM63.2386 0.612277C61.0919 12.4187 61.086 12.4176 61.0802 12.4166C61.0785 12.4163 61.0728 12.4152 61.0694 12.4146C61.0625 12.4133 61.0562 12.4122 61.0505 12.4111C61.0391 12.409 61.0302 12.4073 61.0236 12.406C61.0104 12.4035 61.0067 12.4028 61.0123 12.4039C61.0236 12.4061 61.0719 12.4159 61.1555 12.434C61.3228 12.4704 61.6304 12.5405 62.0638 12.6519C62.9316 12.875 64.297 13.2621 66.0454 13.8734C69.5495 15.0986 74.5398 17.2063 80.1317 20.6632C91.2251 27.5209 104.855 39.7758 114.062 61.538L136.165 52.1866C124.747 25.1988 107.439 9.32873 92.7515 0.248926C85.4529 -4.26299 78.8416 -7.07716 73.9668 -8.78165C71.5258 -9.63515 69.5074 -10.2149 68.0388 -10.5924C67.304 -10.7813 66.7053 -10.92 66.2582 -11.0172C66.0346 -11.0659 65.8488 -11.1042 65.7027 -11.1333C65.6297 -11.1479 65.5665 -11.1601 65.5135 -11.1702C65.487 -11.1753 65.4631 -11.1798 65.4417 -11.1838C65.431 -11.1858 65.4209 -11.1876 65.4115 -11.1893C65.4068 -11.1902 65.4002 -11.1914 65.3979 -11.1918C65.3915 -11.193 65.3852 -11.1942 63.2386 0.612277ZM14.5642 34.5765C19.2444 21.2042 29.6647 15.6012 40.6321 13.2923C46.1459 12.1316 51.4364 11.9213 55.4035 12.0224C57.3647 12.0724 58.9449 12.1968 59.9947 12.3027C60.5182 12.3555 60.9054 12.4032 61.1374 12.4338C61.2532 12.4492 61.3299 12.4601 61.365 12.4653C61.3825 12.4678 61.3897 12.4689 61.3861 12.4684C61.3842 12.4681 61.3798 12.4674 61.3725 12.4663C61.3689 12.4657 61.3646 12.4651 61.3597 12.4643C61.3572 12.4639 61.3529 12.4632 61.3517 12.463C61.3473 12.4623 61.3427 12.4616 63.2386 0.612277C65.1345 -11.237 65.1295 -11.2378 65.1244 -11.2386C65.1224 -11.2389 65.1171 -11.2398 65.1132 -11.2404C65.1054 -11.2416 65.0968 -11.243 65.0875 -11.2444C65.0689 -11.2474 65.0474 -11.2507 65.023 -11.2544C64.9743 -11.2619 64.9139 -11.271 64.8424 -11.2815C64.6993 -11.3024 64.5112 -11.329 64.2805 -11.3594C63.8194 -11.4204 63.1867 -11.4971 62.4027 -11.5762C60.8378 -11.734 58.6533 -11.9026 56.0148 -11.9698C50.7825 -12.1031 43.5338 -11.8446 35.688 -10.1929C19.9363 -6.87681 0.356197 2.52024 -8.08848 26.6482L14.5642 34.5765ZM69.285 121.497C47.8338 108.984 31.2391 94.2446 21.5708 79.0224C12.0605 64.0491 9.47446 49.1187 14.5642 34.5765L-8.08848 26.6482C-16.1237 49.6063 -11.2095 72.1759 1.31175 91.8899C13.675 111.355 33.6431 128.491 57.1921 142.228L69.285 121.497Z" fill="#5EC4EB" mask="url(#path-1-inside-1)"/>
</svg>
