<svg width="734" height="480" viewBox="0 0 734 480" fill="none" xmlns="http://www.w3.org/2000/svg">
<rect width="734" height="480" fill="#0D0F21"/>
<path d="M108.528 294.016C108.528 294.016 115.601 265.252 145.101 262.252C174.601 259.252 165.101 233.459 186.601 226.252C208.101 219.046 234.101 238.252 245.601 231.752C257.101 225.252 254.361 203.27 266.853 200.578C279.345 197.885 301.275 206.252 310.601 206.252C319.927 206.252 329.182 184.23 347.222 178.183C365.261 172.137 367.924 191.947 384.46 186.404C400.996 180.861 401.038 159.025 416 157C430.962 154.975 449.601 171.752 471.601 143.752C493.601 115.752 516.853 125.904 536 115C555.147 104.096 562.601 78.252 601.601 78.252C640.601 78.252 638.101 83.752 638.101 83.752" stroke="#F3B490" stroke-width="5"/>
<g filter="url(#filter0_d)">
<circle cx="108.112" cy="293.624" r="5" fill="#F3B490"/>
</g>
<g filter="url(#filter1_d)">
<circle cx="638.601" cy="83.252" r="5" fill="#F3B490"/>
</g>
<path d="M109.572 322.769C109.572 322.769 154.601 305.269 169.101 303.268C183.601 301.268 184.101 287.768 192.601 287.768C201.101 287.768 212.601 300.269 221.601 303.268C230.601 306.268 268.101 294.768 280.101 295.768C292.101 296.768 292.601 312.654 305.601 312.654C318.601 312.654 327.601 291.268 345.601 291.268C363.601 291.268 373.101 312.654 389.601 312.654C406.101 312.654 402.601 320.769 416.601 322.769C430.601 324.768 459.101 326.269 481.101 322.769C503.101 319.268 514.601 306.269 535.101 303.268C555.601 300.268 575.101 309.04 591.101 312.654C607.101 316.268 638.57 312.654 638.57 312.654" stroke="#F38ECB" stroke-width="5"/>
<g filter="url(#filter2_d)">
<circle cx="638.601" cy="312.268" r="5" fill="#F38ECB"/>
</g>
<g filter="url(#filter3_d)">
<circle cx="108.601" cy="324.268" r="5" fill="#F38ECB"/>
</g>
<path d="M220.481 401.604C221.345 401.604 222.097 401.753 222.737 402.052C223.387 402.34 223.889 402.767 224.241 403.332C224.603 403.887 224.785 404.559 224.785 405.348C224.785 406.009 224.641 406.655 224.353 407.284C224.065 407.913 223.579 408.404 222.897 408.756L225.729 413.252H223.569L220.945 409.204C220.881 409.204 220.817 409.204 220.753 409.204H219.073V413.252H217.201V401.604H220.481ZM220.737 407.412C221.291 407.412 221.723 407.305 222.033 407.092C222.342 406.868 222.555 406.601 222.673 406.292C222.801 405.972 222.865 405.679 222.865 405.412C222.865 405.156 222.806 404.873 222.689 404.564C222.571 404.244 222.363 403.972 222.065 403.748C221.766 403.513 221.345 403.396 220.801 403.396H219.073V407.412H220.737ZM227.824 413.252L232.976 401.124H233.088L238.24 413.252H236.096L235.024 410.516H230.784L229.664 413.252H227.824ZM231.44 408.916H234.4L232.944 405.252L231.44 408.916ZM241.347 413.252V401.188H241.363L247.171 409.428L253.075 401.188H253.107V413.252H251.251V406.516L247.171 412.308H247.139L243.155 406.788V413.252H241.347ZM265.473 413.54C264.855 413.54 264.343 413.353 263.937 412.98C263.532 412.596 263.319 412.105 263.297 411.508V406.484H265.089V410.868C265.111 411.209 265.207 411.487 265.377 411.7C265.548 411.903 265.82 412.004 266.193 412.004C266.727 412.004 267.164 411.764 267.505 411.284C267.847 410.804 268.017 410.201 268.017 409.476V406.484H269.809V413.252H268.193L268.065 412.052C267.852 412.489 267.516 412.847 267.057 413.124C266.599 413.401 266.071 413.54 265.473 413.54ZM275.434 413.396C274.922 413.396 274.431 413.305 273.962 413.124C273.503 412.943 273.114 412.676 272.794 412.324L273.562 411.316C273.86 411.604 274.154 411.817 274.442 411.956C274.74 412.084 275.023 412.148 275.29 412.148C275.588 412.148 275.844 412.095 276.058 411.988C276.282 411.871 276.394 411.679 276.394 411.412C276.394 411.199 276.319 411.033 276.17 410.916C276.02 410.788 275.828 410.687 275.594 410.612C275.359 410.527 275.114 410.447 274.858 410.372C274.271 410.191 273.834 409.924 273.546 409.572C273.258 409.22 273.114 408.815 273.114 408.356C273.114 408.004 273.204 407.668 273.386 407.348C273.567 407.017 273.839 406.745 274.202 406.532C274.575 406.319 275.05 406.212 275.626 406.212C276.127 406.212 276.57 406.271 276.954 406.388C277.338 406.505 277.695 406.692 278.026 406.948L277.338 408.02C277.146 407.839 276.916 407.7 276.65 407.604C276.394 407.497 276.159 407.439 275.946 407.428C275.658 407.417 275.418 407.476 275.226 407.604C275.034 407.732 274.938 407.903 274.938 408.116C274.927 408.329 274.996 408.5 275.146 408.628C275.306 408.756 275.508 408.857 275.754 408.932C275.999 409.007 276.244 409.087 276.49 409.172C276.98 409.332 277.386 409.561 277.706 409.86C278.026 410.148 278.186 410.553 278.186 411.076C278.186 411.492 278.084 411.876 277.882 412.228C277.679 412.58 277.375 412.863 276.97 413.076C276.564 413.289 276.052 413.396 275.434 413.396ZM284.135 413.428C283.495 413.428 282.919 413.295 282.407 413.028C281.895 412.761 281.485 412.367 281.175 411.844C280.877 411.321 280.727 410.665 280.727 409.876C280.727 409.108 280.882 408.452 281.191 407.908C281.511 407.353 281.927 406.927 282.439 406.628C282.962 406.329 283.527 406.18 284.135 406.18C284.765 406.18 285.271 406.303 285.655 406.548C286.05 406.783 286.365 407.065 286.599 407.396L286.727 406.484H288.375V413.252H286.583V412.26C286.466 412.399 286.295 412.559 286.071 412.74C285.847 412.921 285.57 413.081 285.239 413.22C284.919 413.359 284.551 413.428 284.135 413.428ZM284.631 411.956C285.111 411.956 285.522 411.828 285.863 411.572C286.205 411.316 286.445 410.964 286.583 410.516V409.044C286.455 408.628 286.21 408.292 285.847 408.036C285.485 407.78 285.058 407.652 284.567 407.652C284.194 407.652 283.853 407.743 283.543 407.924C283.245 408.095 282.999 408.345 282.807 408.676C282.626 408.996 282.535 409.364 282.535 409.78C282.535 410.185 282.631 410.553 282.823 410.884C283.015 411.215 283.266 411.476 283.575 411.668C283.895 411.86 284.247 411.956 284.631 411.956ZM295.346 416.628C294.791 416.628 294.316 416.564 293.922 416.436C293.527 416.308 293.175 416.143 292.866 415.94C292.567 415.737 292.284 415.519 292.018 415.284L293.074 414.052C293.383 414.34 293.708 414.58 294.05 414.772C294.402 414.964 294.823 415.06 295.314 415.06C295.975 415.06 296.503 414.9 296.898 414.58C297.292 414.26 297.495 413.817 297.506 413.252V412.116C297.292 412.489 296.956 412.804 296.498 413.06C296.039 413.305 295.484 413.428 294.834 413.428C294.215 413.428 293.644 413.273 293.122 412.964C292.599 412.644 292.183 412.212 291.874 411.668C291.564 411.124 291.41 410.511 291.41 409.828C291.41 409.124 291.575 408.5 291.906 407.956C292.236 407.401 292.668 406.969 293.202 406.66C293.735 406.34 294.306 406.18 294.914 406.18C295.511 406.18 296.039 406.287 296.498 406.5C296.967 406.703 297.308 406.959 297.522 407.268L297.65 406.484H299.298V413.284C299.298 413.913 299.127 414.479 298.786 414.98C298.455 415.492 297.991 415.892 297.394 416.18C296.796 416.479 296.114 416.628 295.346 416.628ZM293.218 409.78C293.218 410.185 293.308 410.553 293.49 410.884C293.682 411.215 293.938 411.476 294.258 411.668C294.588 411.86 294.956 411.956 295.362 411.956C295.895 411.956 296.343 411.828 296.706 411.572C297.079 411.305 297.346 410.959 297.506 410.532V409.06C297.367 408.633 297.1 408.292 296.706 408.036C296.322 407.78 295.874 407.652 295.362 407.652C294.754 407.652 294.242 407.849 293.826 408.244C293.42 408.639 293.218 409.151 293.218 409.78ZM306.119 413.428C305.319 413.428 304.636 413.273 304.071 412.964C303.505 412.655 303.073 412.228 302.775 411.684C302.476 411.129 302.327 410.505 302.327 409.812C302.327 409.14 302.497 408.532 302.839 407.988C303.18 407.433 303.639 406.996 304.215 406.676C304.791 406.345 305.436 406.18 306.151 406.18C307.079 406.18 307.841 406.452 308.439 406.996C309.047 407.529 309.452 408.287 309.655 409.268L304.455 411.028C304.839 411.604 305.404 411.892 306.151 411.892C306.428 411.892 306.689 411.844 306.935 411.748C307.191 411.652 307.436 411.524 307.671 411.364L308.487 412.692C308.124 412.916 307.735 413.097 307.319 413.236C306.903 413.364 306.503 413.428 306.119 413.428ZM304.087 409.716C304.087 409.801 304.092 409.892 304.103 409.988L307.655 408.724C307.527 408.425 307.335 408.164 307.079 407.94C306.823 407.705 306.465 407.588 306.007 407.588C305.441 407.588 304.977 407.785 304.615 408.18C304.263 408.575 304.087 409.087 304.087 409.716ZM321.679 413.428L317.791 406.484H319.919L321.791 410.34L323.471 406.484H325.471L321.759 413.428H321.679ZM330.091 413.396C329.579 413.396 329.088 413.305 328.619 413.124C328.16 412.943 327.771 412.676 327.451 412.324L328.219 411.316C328.518 411.604 328.811 411.817 329.099 411.956C329.398 412.084 329.68 412.148 329.947 412.148C330.246 412.148 330.502 412.095 330.715 411.988C330.939 411.871 331.051 411.679 331.051 411.412C331.051 411.199 330.976 411.033 330.827 410.916C330.678 410.788 330.486 410.687 330.251 410.612C330.016 410.527 329.771 410.447 329.515 410.372C328.928 410.191 328.491 409.924 328.203 409.572C327.915 409.22 327.771 408.815 327.771 408.356C327.771 408.004 327.862 407.668 328.043 407.348C328.224 407.017 328.496 406.745 328.859 406.532C329.232 406.319 329.707 406.212 330.283 406.212C330.784 406.212 331.227 406.271 331.611 406.388C331.995 406.505 332.352 406.692 332.683 406.948L331.995 408.02C331.803 407.839 331.574 407.7 331.307 407.604C331.051 407.497 330.816 407.439 330.603 407.428C330.315 407.417 330.075 407.476 329.883 407.604C329.691 407.732 329.595 407.903 329.595 408.116C329.584 408.329 329.654 408.5 329.803 408.628C329.963 408.756 330.166 408.857 330.411 408.932C330.656 409.007 330.902 409.087 331.147 409.172C331.638 409.332 332.043 409.561 332.363 409.86C332.683 410.148 332.843 410.553 332.843 411.076C332.843 411.492 332.742 411.876 332.539 412.228C332.336 412.58 332.032 412.863 331.627 413.076C331.222 413.289 330.71 413.396 330.091 413.396ZM335.129 412.276C335.129 412.009 335.23 411.78 335.433 411.588C335.635 411.396 335.859 411.3 336.105 411.3C336.329 411.3 336.542 411.396 336.745 411.588C336.947 411.78 337.049 412.009 337.049 412.276C337.049 412.575 336.947 412.815 336.745 412.996C336.542 413.167 336.329 413.252 336.105 413.252C335.859 413.252 335.635 413.167 335.433 412.996C335.23 412.815 335.129 412.575 335.129 412.276ZM347.644 406.484L347.772 407.7C348.007 407.241 348.354 406.879 348.812 406.612C349.271 406.335 349.815 406.196 350.444 406.196C351.074 406.196 351.596 406.388 352.012 406.772C352.439 407.145 352.658 407.631 352.668 408.228V413.252H350.876V408.868C350.855 408.527 350.754 408.255 350.572 408.052C350.402 407.839 350.119 407.727 349.724 407.716C349.17 407.716 348.711 407.956 348.348 408.436C347.996 408.905 347.82 409.508 347.82 410.244V413.252H346.028V406.484H347.644ZM358.434 413.54C357.815 413.54 357.303 413.353 356.898 412.98C356.492 412.596 356.279 412.105 356.258 411.508V406.484H358.05V410.868C358.071 411.209 358.167 411.487 358.338 411.7C358.508 411.903 358.78 412.004 359.154 412.004C359.687 412.004 360.125 411.764 360.466 411.284C360.807 410.804 360.978 410.201 360.978 409.476V406.484H362.77V413.252H361.154L361.026 412.052C360.813 412.489 360.477 412.847 360.018 413.124C359.559 413.401 359.031 413.54 358.434 413.54ZM367.978 406.484L368.106 407.684C368.362 407.215 368.709 406.847 369.146 406.58C369.584 406.313 370.09 406.18 370.666 406.18C371.221 406.18 371.685 406.303 372.058 406.548C372.432 406.793 372.661 407.135 372.746 407.572C373.034 407.145 373.386 406.809 373.802 406.564C374.229 406.308 374.677 406.18 375.146 406.18C375.818 406.18 376.346 406.372 376.73 406.756C377.125 407.129 377.328 407.615 377.338 408.212V413.252H375.562V408.9C375.541 408.58 375.466 408.313 375.338 408.1C375.21 407.876 374.976 407.753 374.634 407.732C374.25 407.732 373.92 407.855 373.642 408.1C373.365 408.335 373.146 408.644 372.986 409.028C372.837 409.401 372.762 409.796 372.762 410.212V413.252H370.954V408.9C370.944 408.58 370.869 408.313 370.73 408.1C370.592 407.876 370.346 407.753 369.994 407.732C369.621 407.732 369.296 407.855 369.018 408.1C368.741 408.335 368.528 408.644 368.378 409.028C368.229 409.401 368.154 409.796 368.154 410.212V413.252H366.362V406.484H367.978ZM385.192 413.428C384.637 413.428 384.152 413.332 383.736 413.14C383.33 412.937 382.989 412.676 382.712 412.356V413.252H380.92V400.772H382.712V407.204C382.978 406.905 383.346 406.66 383.816 406.468C384.296 406.276 384.834 406.18 385.432 406.18C386.029 406.18 386.573 406.324 387.064 406.612C387.565 406.889 387.965 407.295 388.264 407.828C388.562 408.361 388.712 409.001 388.712 409.748C388.712 410.516 388.546 411.177 388.216 411.732C387.885 412.276 387.453 412.697 386.92 412.996C386.386 413.284 385.81 413.428 385.192 413.428ZM384.808 411.908C385.192 411.908 385.538 411.812 385.848 411.62C386.168 411.428 386.418 411.172 386.6 410.852C386.792 410.521 386.888 410.148 386.888 409.732C386.888 409.327 386.792 408.964 386.6 408.644C386.418 408.324 386.168 408.068 385.848 407.876C385.538 407.684 385.192 407.588 384.808 407.588C384.296 407.588 383.853 407.721 383.48 407.988C383.106 408.244 382.85 408.58 382.712 408.996V410.5C382.861 410.916 383.117 411.257 383.48 411.524C383.842 411.78 384.285 411.908 384.808 411.908ZM394.959 413.428C394.159 413.428 393.477 413.273 392.911 412.964C392.346 412.655 391.914 412.228 391.615 411.684C391.317 411.129 391.167 410.505 391.167 409.812C391.167 409.14 391.338 408.532 391.679 407.988C392.021 407.433 392.479 406.996 393.055 406.676C393.631 406.345 394.277 406.18 394.991 406.18C395.919 406.18 396.682 406.452 397.279 406.996C397.887 407.529 398.293 408.287 398.495 409.268L393.295 411.028C393.679 411.604 394.245 411.892 394.991 411.892C395.269 411.892 395.53 411.844 395.775 411.748C396.031 411.652 396.277 411.524 396.511 411.364L397.327 412.692C396.965 412.916 396.575 413.097 396.159 413.236C395.743 413.364 395.343 413.428 394.959 413.428ZM392.927 409.716C392.927 409.801 392.933 409.892 392.943 409.988L396.495 408.724C396.367 408.425 396.175 408.164 395.919 407.94C395.663 407.705 395.306 407.588 394.847 407.588C394.282 407.588 393.818 407.785 393.455 408.18C393.103 408.575 392.927 409.087 392.927 409.716ZM402.994 406.484L403.122 408.052C403.314 407.668 403.576 407.337 403.906 407.06C404.237 406.772 404.573 406.553 404.914 406.404C405.266 406.255 405.554 406.18 405.778 406.18L405.698 407.972C405.186 407.929 404.738 408.02 404.354 408.244C403.981 408.468 403.688 408.772 403.474 409.156C403.272 409.529 403.17 409.924 403.17 410.34V413.252H401.378V406.484H402.994ZM414.418 409.796C414.418 409.113 414.578 408.5 414.898 407.956C415.229 407.412 415.677 406.98 416.242 406.66C416.818 406.34 417.479 406.18 418.226 406.18C418.983 406.18 419.639 406.34 420.194 406.66C420.759 406.98 421.197 407.412 421.506 407.956C421.815 408.5 421.97 409.113 421.97 409.796C421.97 410.479 421.815 411.097 421.506 411.652C421.197 412.196 420.759 412.628 420.194 412.948C419.629 413.268 418.967 413.428 418.21 413.428C417.474 413.428 416.818 413.284 416.242 412.996C415.677 412.697 415.229 412.276 414.898 411.732C414.578 411.188 414.418 410.543 414.418 409.796ZM416.226 409.812C416.226 410.217 416.311 410.585 416.482 410.916C416.653 411.236 416.882 411.492 417.17 411.684C417.469 411.865 417.805 411.956 418.178 411.956C418.765 411.956 419.239 411.753 419.602 411.348C419.965 410.932 420.146 410.42 420.146 409.812C420.146 409.204 419.965 408.692 419.602 408.276C419.239 407.86 418.765 407.652 418.178 407.652C417.805 407.652 417.469 407.753 417.17 407.956C416.882 408.148 416.653 408.409 416.482 408.74C416.311 409.06 416.226 409.417 416.226 409.812ZM425.565 413.252V408.052H424.413V406.468H425.565V403.812C425.565 402.873 425.799 402.137 426.269 401.604C426.749 401.06 427.442 400.788 428.349 400.788C428.605 400.788 428.882 400.825 429.181 400.9C429.49 400.975 429.767 401.092 430.013 401.252L429.261 402.548C429.154 402.441 429.037 402.367 428.909 402.324C428.781 402.281 428.658 402.26 428.541 402.26C428.178 402.26 427.89 402.383 427.677 402.628C427.463 402.873 427.357 403.284 427.357 403.86V406.468H429.469V408.052H427.357V413.252H425.565ZM439.431 403.508H441.223V406.484H442.983V407.892H441.223V413.252H439.431V407.892H438.263V406.484H439.431V403.508ZM448.712 413.428C448.072 413.428 447.496 413.295 446.984 413.028C446.472 412.761 446.061 412.367 445.752 411.844C445.453 411.321 445.304 410.665 445.304 409.876C445.304 409.108 445.459 408.452 445.768 407.908C446.088 407.353 446.504 406.927 447.016 406.628C447.539 406.329 448.104 406.18 448.712 406.18C449.341 406.18 449.848 406.303 450.232 406.548C450.627 406.783 450.941 407.065 451.176 407.396L451.304 406.484H452.952V413.252H451.16V412.26C451.043 412.399 450.872 412.559 450.648 412.74C450.424 412.921 450.147 413.081 449.816 413.22C449.496 413.359 449.128 413.428 448.712 413.428ZM449.208 411.956C449.688 411.956 450.099 411.828 450.44 411.572C450.781 411.316 451.021 410.964 451.16 410.516V409.044C451.032 408.628 450.787 408.292 450.424 408.036C450.061 407.78 449.635 407.652 449.144 407.652C448.771 407.652 448.429 407.743 448.12 407.924C447.821 408.095 447.576 408.345 447.384 408.676C447.203 408.996 447.112 409.364 447.112 409.78C447.112 410.185 447.208 410.553 447.4 410.884C447.592 411.215 447.843 411.476 448.152 411.668C448.472 411.86 448.824 411.956 449.208 411.956ZM460.819 413.428C460.264 413.428 459.779 413.332 459.363 413.14C458.957 412.937 458.616 412.676 458.339 412.356V413.252H456.547V400.772H458.339V407.204C458.605 406.905 458.973 406.66 459.443 406.468C459.923 406.276 460.461 406.18 461.059 406.18C461.656 406.18 462.2 406.324 462.691 406.612C463.192 406.889 463.592 407.295 463.891 407.828C464.189 408.361 464.339 409.001 464.339 409.748C464.339 410.516 464.173 411.177 463.843 411.732C463.512 412.276 463.08 412.697 462.547 412.996C462.013 413.284 461.437 413.428 460.819 413.428ZM460.435 411.908C460.819 411.908 461.165 411.812 461.475 411.62C461.795 411.428 462.045 411.172 462.227 410.852C462.419 410.521 462.515 410.148 462.515 409.732C462.515 409.327 462.419 408.964 462.227 408.644C462.045 408.324 461.795 408.068 461.475 407.876C461.165 407.684 460.819 407.588 460.435 407.588C459.923 407.588 459.48 407.721 459.107 407.988C458.733 408.244 458.477 408.58 458.339 408.996V410.5C458.488 410.916 458.744 411.257 459.107 411.524C459.469 411.78 459.912 411.908 460.435 411.908ZM469.386 413.396C468.874 413.396 468.383 413.305 467.914 413.124C467.455 412.943 467.066 412.676 466.746 412.324L467.514 411.316C467.813 411.604 468.106 411.817 468.394 411.956C468.693 412.084 468.975 412.148 469.242 412.148C469.541 412.148 469.797 412.095 470.01 411.988C470.234 411.871 470.346 411.679 470.346 411.412C470.346 411.199 470.271 411.033 470.122 410.916C469.973 410.788 469.781 410.687 469.546 410.612C469.311 410.527 469.066 410.447 468.81 410.372C468.223 410.191 467.786 409.924 467.498 409.572C467.21 409.22 467.066 408.815 467.066 408.356C467.066 408.004 467.157 407.668 467.338 407.348C467.519 407.017 467.791 406.745 468.154 406.532C468.527 406.319 469.002 406.212 469.578 406.212C470.079 406.212 470.522 406.271 470.906 406.388C471.29 406.505 471.647 406.692 471.978 406.948L471.29 408.02C471.098 407.839 470.869 407.7 470.602 407.604C470.346 407.497 470.111 407.439 469.898 407.428C469.61 407.417 469.37 407.476 469.178 407.604C468.986 407.732 468.89 407.903 468.89 408.116C468.879 408.329 468.949 408.5 469.098 408.628C469.258 408.756 469.461 408.857 469.706 408.932C469.951 409.007 470.197 409.087 470.442 409.172C470.933 409.332 471.338 409.561 471.658 409.86C471.978 410.148 472.138 410.553 472.138 411.076C472.138 411.492 472.037 411.876 471.834 412.228C471.631 412.58 471.327 412.863 470.922 413.076C470.517 413.289 470.005 413.396 469.386 413.396ZM480.925 409.796C480.925 409.113 481.085 408.5 481.405 407.956C481.735 407.412 482.183 406.98 482.749 406.66C483.325 406.34 483.986 406.18 484.733 406.18C485.49 406.18 486.146 406.34 486.701 406.66C487.266 406.98 487.703 407.412 488.013 407.956C488.322 408.5 488.477 409.113 488.477 409.796C488.477 410.479 488.322 411.097 488.013 411.652C487.703 412.196 487.266 412.628 486.701 412.948C486.135 413.268 485.474 413.428 484.717 413.428C483.981 413.428 483.325 413.284 482.749 412.996C482.183 412.697 481.735 412.276 481.405 411.732C481.085 411.188 480.925 410.543 480.925 409.796ZM482.733 409.812C482.733 410.217 482.818 410.585 482.989 410.916C483.159 411.236 483.389 411.492 483.677 411.684C483.975 411.865 484.311 411.956 484.685 411.956C485.271 411.956 485.746 411.753 486.109 411.348C486.471 410.932 486.653 410.42 486.653 409.812C486.653 409.204 486.471 408.692 486.109 408.276C485.746 407.86 485.271 407.652 484.685 407.652C484.311 407.652 483.975 407.753 483.677 407.956C483.389 408.148 483.159 408.409 482.989 408.74C482.818 409.06 482.733 409.417 482.733 409.812ZM495.592 413.428C495.144 413.428 494.706 413.337 494.28 413.156C493.864 412.975 493.528 412.719 493.272 412.388V416.5H491.48V406.356H493.032L493.192 407.364C493.522 407.023 493.917 406.74 494.376 406.516C494.834 406.292 495.352 406.18 495.928 406.18C496.568 406.18 497.138 406.329 497.64 406.628C498.141 406.927 498.536 407.353 498.824 407.908C499.122 408.452 499.272 409.097 499.272 409.844C499.272 410.591 499.112 411.231 498.792 411.764C498.472 412.297 498.034 412.708 497.48 412.996C496.925 413.284 496.296 413.428 495.592 413.428ZM495.24 412.004C495.634 412.004 495.997 411.913 496.328 411.732C496.669 411.551 496.941 411.3 497.144 410.98C497.346 410.649 497.448 410.281 497.448 409.876C497.448 409.449 497.352 409.071 497.16 408.74C496.978 408.409 496.728 408.153 496.408 407.972C496.098 407.791 495.752 407.7 495.368 407.7C494.834 407.7 494.386 407.833 494.024 408.1C493.672 408.356 493.421 408.708 493.272 409.156V410.516C493.368 410.953 493.597 411.311 493.96 411.588C494.322 411.865 494.749 412.004 495.24 412.004ZM505.519 413.428C504.719 413.428 504.037 413.273 503.471 412.964C502.906 412.655 502.474 412.228 502.175 411.684C501.877 411.129 501.727 410.505 501.727 409.812C501.727 409.14 501.898 408.532 502.239 407.988C502.581 407.433 503.039 406.996 503.615 406.676C504.191 406.345 504.837 406.18 505.551 406.18C506.479 406.18 507.242 406.452 507.839 406.996C508.447 407.529 508.853 408.287 509.055 409.268L503.855 411.028C504.239 411.604 504.805 411.892 505.551 411.892C505.829 411.892 506.09 411.844 506.335 411.748C506.591 411.652 506.837 411.524 507.071 411.364L507.887 412.692C507.525 412.916 507.135 413.097 506.719 413.236C506.303 413.364 505.903 413.428 505.519 413.428ZM503.487 409.716C503.487 409.801 503.493 409.892 503.503 409.988L507.055 408.724C506.927 408.425 506.735 408.164 506.479 407.94C506.223 407.705 505.866 407.588 505.407 407.588C504.842 407.588 504.378 407.785 504.015 408.18C503.663 408.575 503.487 409.087 503.487 409.716ZM513.554 406.484L513.682 407.7C513.917 407.241 514.264 406.879 514.722 406.612C515.181 406.335 515.725 406.196 516.354 406.196C516.984 406.196 517.506 406.388 517.922 406.772C518.349 407.145 518.568 407.631 518.578 408.228V413.252H516.786V408.868C516.765 408.527 516.664 408.255 516.482 408.052C516.312 407.839 516.029 407.727 515.634 407.716C515.08 407.716 514.621 407.956 514.258 408.436C513.906 408.905 513.73 409.508 513.73 410.244V413.252H511.938V406.484H513.554Z" fill="#D1D5DB"/>
<rect x="481.601" y="242.252" width="230" height="46" rx="5" fill="#111827"/>
<path d="M529.001 259.06H535.189V260.628H530.639V263.498H534.601V265.052H530.639V269.252H529.001V259.06ZM539.194 263.33L539.306 264.702C539.474 264.366 539.703 264.077 539.992 263.834C540.281 263.582 540.575 263.391 540.874 263.26C541.182 263.129 541.434 263.064 541.63 263.064L541.56 264.632C541.112 264.595 540.72 264.674 540.384 264.87C540.057 265.066 539.801 265.332 539.614 265.668C539.437 265.995 539.348 266.34 539.348 266.704V269.252H537.78V263.33H539.194ZM546.543 269.406C545.983 269.406 545.479 269.289 545.031 269.056C544.583 268.823 544.224 268.477 543.953 268.02C543.692 267.563 543.561 266.989 543.561 266.298C543.561 265.626 543.696 265.052 543.967 264.576C544.247 264.091 544.611 263.717 545.059 263.456C545.516 263.195 546.011 263.064 546.543 263.064C547.094 263.064 547.537 263.171 547.873 263.386C548.218 263.591 548.494 263.839 548.699 264.128L548.811 263.33H550.253V269.252H548.685V268.384C548.582 268.505 548.433 268.645 548.237 268.804C548.041 268.963 547.798 269.103 547.509 269.224C547.229 269.345 546.907 269.406 546.543 269.406ZM546.977 268.118C547.397 268.118 547.756 268.006 548.055 267.782C548.354 267.558 548.564 267.25 548.685 266.858V265.57C548.573 265.206 548.358 264.912 548.041 264.688C547.724 264.464 547.35 264.352 546.921 264.352C546.594 264.352 546.296 264.431 546.025 264.59C545.764 264.739 545.549 264.959 545.381 265.248C545.222 265.528 545.143 265.85 545.143 266.214C545.143 266.569 545.227 266.891 545.395 267.18C545.563 267.469 545.782 267.698 546.053 267.866C546.333 268.034 546.641 268.118 546.977 268.118ZM558.298 268.706C558.037 268.921 557.715 269.093 557.332 269.224C556.959 269.345 556.581 269.406 556.198 269.406C555.545 269.406 554.971 269.28 554.476 269.028C553.981 268.776 553.594 268.417 553.314 267.95C553.043 267.483 552.908 266.928 552.908 266.284C552.908 265.64 553.053 265.085 553.342 264.618C553.641 264.151 554.028 263.797 554.504 263.554C554.98 263.302 555.493 263.176 556.044 263.176C556.539 263.176 556.977 263.246 557.36 263.386C557.743 263.517 558.074 263.699 558.354 263.932L557.57 264.954C557.421 264.833 557.225 264.721 556.982 264.618C556.749 264.506 556.483 264.45 556.184 264.45C555.867 264.45 555.577 264.529 555.316 264.688C555.064 264.847 554.859 265.066 554.7 265.346C554.551 265.617 554.476 265.929 554.476 266.284C554.476 266.788 554.649 267.222 554.994 267.586C555.339 267.941 555.787 268.118 556.338 268.118C556.795 268.118 557.187 267.987 557.514 267.726L558.298 268.706ZM561.46 260.726H563.028V263.33H564.568V264.562H563.028V269.252H561.46V264.562H560.438V263.33H561.46V260.726ZM569.581 269.406C569.021 269.406 568.517 269.289 568.069 269.056C567.621 268.823 567.261 268.477 566.991 268.02C566.729 267.563 566.599 266.989 566.599 266.298C566.599 265.626 566.734 265.052 567.005 264.576C567.285 264.091 567.649 263.717 568.097 263.456C568.554 263.195 569.049 263.064 569.581 263.064C570.131 263.064 570.575 263.171 570.911 263.386C571.256 263.591 571.531 263.839 571.737 264.128L571.849 263.33H573.291V269.252H571.723V268.384C571.62 268.505 571.471 268.645 571.275 268.804C571.079 268.963 570.836 269.103 570.547 269.224C570.267 269.345 569.945 269.406 569.581 269.406ZM570.015 268.118C570.435 268.118 570.794 268.006 571.093 267.782C571.391 267.558 571.601 267.25 571.723 266.858V265.57C571.611 265.206 571.396 264.912 571.079 264.688C570.761 264.464 570.388 264.352 569.959 264.352C569.632 264.352 569.333 264.431 569.063 264.59C568.801 264.739 568.587 264.959 568.419 265.248C568.26 265.528 568.181 265.85 568.181 266.214C568.181 266.569 568.265 266.891 568.433 267.18C568.601 267.469 568.82 267.698 569.091 267.866C569.371 268.034 569.679 268.118 570.015 268.118ZM576.436 258.332H578.004V269.252H576.436V258.332ZM588.503 269.504C587.962 269.504 587.514 269.341 587.159 269.014C586.804 268.678 586.618 268.249 586.599 267.726V263.33H588.167V267.166C588.186 267.465 588.27 267.707 588.419 267.894C588.568 268.071 588.806 268.16 589.133 268.16C589.6 268.16 589.982 267.95 590.281 267.53C590.58 267.11 590.729 266.583 590.729 265.948V263.33H592.297V269.252H590.883L590.771 268.202C590.584 268.585 590.29 268.897 589.889 269.14C589.488 269.383 589.026 269.504 588.503 269.504ZM597.218 269.378C596.77 269.378 596.341 269.299 595.93 269.14C595.529 268.981 595.188 268.748 594.908 268.44L595.58 267.558C595.842 267.81 596.098 267.997 596.35 268.118C596.612 268.23 596.859 268.286 597.092 268.286C597.354 268.286 597.578 268.239 597.764 268.146C597.96 268.043 598.058 267.875 598.058 267.642C598.058 267.455 597.993 267.311 597.862 267.208C597.732 267.096 597.564 267.007 597.358 266.942C597.153 266.867 596.938 266.797 596.714 266.732C596.201 266.573 595.818 266.34 595.566 266.032C595.314 265.724 595.188 265.369 595.188 264.968C595.188 264.66 595.268 264.366 595.426 264.086C595.585 263.797 595.823 263.559 596.14 263.372C596.467 263.185 596.882 263.092 597.386 263.092C597.825 263.092 598.212 263.143 598.548 263.246C598.884 263.349 599.197 263.512 599.486 263.736L598.884 264.674C598.716 264.515 598.516 264.394 598.282 264.31C598.058 264.217 597.853 264.165 597.666 264.156C597.414 264.147 597.204 264.198 597.036 264.31C596.868 264.422 596.784 264.571 596.784 264.758C596.775 264.945 596.836 265.094 596.966 265.206C597.106 265.318 597.284 265.407 597.498 265.472C597.713 265.537 597.928 265.607 598.142 265.682C598.572 265.822 598.926 266.023 599.206 266.284C599.486 266.536 599.626 266.891 599.626 267.348C599.626 267.712 599.538 268.048 599.36 268.356C599.183 268.664 598.917 268.911 598.562 269.098C598.208 269.285 597.76 269.378 597.218 269.378ZM605.168 269.406C604.468 269.406 603.871 269.271 603.376 269C602.881 268.729 602.503 268.356 602.242 267.88C601.981 267.395 601.85 266.849 601.85 266.242C601.85 265.654 601.999 265.122 602.298 264.646C602.597 264.161 602.998 263.778 603.502 263.498C604.006 263.209 604.571 263.064 605.196 263.064C606.008 263.064 606.675 263.302 607.198 263.778C607.73 264.245 608.085 264.907 608.262 265.766L603.712 267.306C604.048 267.81 604.543 268.062 605.196 268.062C605.439 268.062 605.667 268.02 605.882 267.936C606.106 267.852 606.321 267.74 606.526 267.6L607.24 268.762C606.923 268.958 606.582 269.117 606.218 269.238C605.854 269.35 605.504 269.406 605.168 269.406ZM603.39 266.158C603.39 266.233 603.395 266.312 603.404 266.396L606.512 265.29C606.4 265.029 606.232 264.8 606.008 264.604C605.784 264.399 605.471 264.296 605.07 264.296C604.575 264.296 604.169 264.469 603.852 264.814C603.544 265.159 603.39 265.607 603.39 266.158ZM612.563 269.378C612.115 269.378 611.686 269.299 611.275 269.14C610.874 268.981 610.533 268.748 610.253 268.44L610.925 267.558C611.186 267.81 611.443 267.997 611.695 268.118C611.956 268.23 612.204 268.286 612.437 268.286C612.698 268.286 612.922 268.239 613.109 268.146C613.305 268.043 613.403 267.875 613.403 267.642C613.403 267.455 613.338 267.311 613.207 267.208C613.076 267.096 612.908 267.007 612.703 266.942C612.498 266.867 612.283 266.797 612.059 266.732C611.546 266.573 611.163 266.34 610.911 266.032C610.659 265.724 610.533 265.369 610.533 264.968C610.533 264.66 610.612 264.366 610.771 264.086C610.93 263.797 611.168 263.559 611.485 263.372C611.812 263.185 612.227 263.092 612.731 263.092C613.17 263.092 613.557 263.143 613.893 263.246C614.229 263.349 614.542 263.512 614.831 263.736L614.229 264.674C614.061 264.515 613.86 264.394 613.627 264.31C613.403 264.217 613.198 264.165 613.011 264.156C612.759 264.147 612.549 264.198 612.381 264.31C612.213 264.422 612.129 264.571 612.129 264.758C612.12 264.945 612.18 265.094 612.311 265.206C612.451 265.318 612.628 265.407 612.843 265.472C613.058 265.537 613.272 265.607 613.487 265.682C613.916 265.822 614.271 266.023 614.551 266.284C614.831 266.536 614.971 266.891 614.971 267.348C614.971 267.712 614.882 268.048 614.705 268.356C614.528 268.664 614.262 268.911 613.907 269.098C613.552 269.285 613.104 269.378 612.563 269.378ZM626.453 269.28C625.707 269.289 625.039 269.112 624.451 268.748C623.873 268.384 623.411 267.852 623.065 267.152C622.729 266.452 622.561 265.598 622.561 264.59C622.561 263.489 622.725 262.593 623.051 261.902C623.378 261.211 623.831 260.707 624.409 260.39C624.997 260.063 625.679 259.905 626.453 259.914C627.191 259.905 627.853 260.082 628.441 260.446C629.029 260.81 629.491 261.342 629.827 262.042C630.163 262.733 630.331 263.582 630.331 264.59C630.331 265.626 630.159 266.494 629.813 267.194C629.477 267.894 629.015 268.421 628.427 268.776C627.849 269.121 627.191 269.289 626.453 269.28ZM626.439 267.726C626.953 267.726 627.368 267.591 627.685 267.32C628.012 267.049 628.25 266.676 628.399 266.2C628.558 265.715 628.637 265.164 628.637 264.548C628.637 263.951 628.558 263.423 628.399 262.966C628.25 262.499 628.012 262.135 627.685 261.874C627.359 261.613 626.943 261.482 626.439 261.482C625.926 261.482 625.511 261.617 625.193 261.888C624.876 262.149 624.638 262.513 624.479 262.98C624.33 263.447 624.255 263.983 624.255 264.59C624.255 265.187 624.33 265.724 624.479 266.2C624.638 266.676 624.876 267.049 625.193 267.32C625.511 267.591 625.926 267.726 626.439 267.726ZM632.165 268.398C632.165 268.165 632.254 267.964 632.431 267.796C632.609 267.628 632.805 267.544 633.019 267.544C633.215 267.544 633.402 267.628 633.579 267.796C633.757 267.964 633.845 268.165 633.845 268.398C633.845 268.659 633.757 268.869 633.579 269.028C633.402 269.177 633.215 269.252 633.019 269.252C632.805 269.252 632.609 269.177 632.431 269.028C632.254 268.869 632.165 268.659 632.165 268.398ZM641.39 260.012L639.416 263.4C639.808 263.447 640.172 263.568 640.508 263.764C640.844 263.96 641.115 264.254 641.32 264.646C641.535 265.038 641.642 265.547 641.642 266.172C641.642 266.835 641.488 267.404 641.18 267.88C640.882 268.356 640.48 268.725 639.976 268.986C639.482 269.238 638.94 269.364 638.352 269.364C637.895 269.364 637.433 269.271 636.966 269.084C636.5 268.897 636.122 268.65 635.832 268.342L636.658 266.998C636.817 267.194 637.046 267.376 637.344 267.544C637.652 267.712 637.974 267.796 638.31 267.796C638.74 267.796 639.122 267.647 639.458 267.348C639.794 267.04 639.962 266.615 639.962 266.074C639.962 265.598 639.818 265.22 639.528 264.94C639.248 264.651 638.866 264.506 638.38 264.506C638.11 264.506 637.89 264.525 637.722 264.562C637.554 264.59 637.396 264.627 637.246 264.674L637.204 264.632L639.038 261.58H636.462V260.012H641.39ZM653.002 268.314C652.824 268.482 652.544 268.645 652.162 268.804C651.779 268.963 651.359 269.098 650.902 269.21C650.454 269.313 650.029 269.364 649.628 269.364C648.536 269.364 647.588 269.149 646.786 268.72C645.983 268.281 645.362 267.689 644.924 266.942C644.485 266.195 644.266 265.346 644.266 264.394C644.266 263.507 644.406 262.723 644.686 262.042C644.966 261.361 645.348 260.791 645.834 260.334C646.319 259.877 646.874 259.531 647.5 259.298C648.134 259.065 648.802 258.948 649.502 258.948C650.118 258.948 650.687 259.018 651.21 259.158C651.732 259.298 652.185 259.475 652.568 259.69L652.036 261.202C651.849 261.099 651.616 261.001 651.336 260.908C651.065 260.805 650.785 260.726 650.496 260.67C650.206 260.614 649.945 260.586 649.712 260.586C648.554 260.586 647.635 260.908 646.954 261.552C646.282 262.196 645.946 263.097 645.946 264.254C645.946 264.954 646.104 265.565 646.422 266.088C646.739 266.611 647.173 267.017 647.724 267.306C648.284 267.595 648.932 267.74 649.67 267.74C649.987 267.74 650.295 267.712 650.594 267.656C650.892 267.6 651.149 267.511 651.364 267.39V265.696H649.446V264.128H653.002V268.314ZM659.244 259.06C660.28 259.06 661.096 259.275 661.694 259.704C662.3 260.124 662.604 260.763 662.604 261.622C662.604 262.154 662.487 262.616 662.254 263.008C662.02 263.4 661.698 263.708 661.288 263.932C661.838 264.165 662.277 264.487 662.604 264.898C662.94 265.299 663.108 265.775 663.108 266.326C663.108 267.035 662.94 267.605 662.604 268.034C662.277 268.454 661.848 268.762 661.316 268.958C660.793 269.154 660.233 269.252 659.636 269.252H656.458V259.06H659.244ZM659.51 263.4C659.995 263.4 660.35 263.26 660.574 262.98C660.807 262.691 660.924 262.355 660.924 261.972C660.924 261.505 660.779 261.165 660.49 260.95C660.2 260.735 659.808 260.628 659.314 260.628H658.096V263.4H659.51ZM659.566 267.74C660.079 267.74 660.518 267.628 660.882 267.404C661.246 267.171 661.428 266.816 661.428 266.34C661.428 265.985 661.33 265.71 661.134 265.514C660.938 265.318 660.686 265.178 660.378 265.094C660.079 265.01 659.771 264.968 659.454 264.968H658.096V267.74H659.566Z" fill="#EAEAEA"/>
<rect x="481.601" y="142.252" width="230" height="46" rx="5" fill="#111827"/>
<path d="M541.561 168.454C541.411 168.557 541.187 168.683 540.889 168.832C540.599 168.981 540.249 169.112 539.839 169.224C539.428 169.327 538.98 169.373 538.495 169.364C537.701 169.355 536.987 169.215 536.353 168.944C535.718 168.664 535.177 168.291 534.729 167.824C534.29 167.348 533.954 166.807 533.721 166.2C533.487 165.584 533.371 164.931 533.371 164.24C533.371 163.465 533.492 162.756 533.735 162.112C533.987 161.468 534.332 160.913 534.771 160.446C535.219 159.97 535.746 159.601 536.353 159.34C536.969 159.079 537.645 158.948 538.383 158.948C539.027 158.948 539.601 159.037 540.105 159.214C540.618 159.382 541.047 159.573 541.393 159.788L540.749 161.314C540.487 161.137 540.161 160.959 539.769 160.782C539.377 160.605 538.933 160.516 538.439 160.516C537.832 160.516 537.272 160.679 536.759 161.006C536.255 161.323 535.844 161.757 535.527 162.308C535.219 162.849 535.065 163.461 535.065 164.142C535.065 164.851 535.205 165.481 535.485 166.032C535.774 166.583 536.175 167.017 536.689 167.334C537.211 167.642 537.827 167.796 538.537 167.796C539.069 167.796 539.531 167.717 539.923 167.558C540.315 167.39 540.632 167.203 540.875 166.998L541.561 168.454ZM544.393 169.252V158.332H545.933V164.352C546.139 163.979 546.437 163.675 546.829 163.442C547.231 163.199 547.707 163.078 548.257 163.078C548.808 163.078 549.265 163.246 549.629 163.582C550.003 163.909 550.194 164.333 550.203 164.856V169.252H548.635V165.416C548.617 165.117 548.528 164.879 548.369 164.702C548.22 164.515 547.973 164.417 547.627 164.408C547.142 164.408 546.741 164.618 546.423 165.038C546.115 165.458 545.961 165.985 545.961 166.62V169.252H544.393ZM554.758 163.33L554.87 164.702C555.038 164.366 555.267 164.077 555.556 163.834C555.845 163.582 556.139 163.391 556.438 163.26C556.746 163.129 556.998 163.064 557.194 163.064L557.124 164.632C556.676 164.595 556.284 164.674 555.948 164.87C555.621 165.066 555.365 165.332 555.178 165.668C555.001 165.995 554.912 166.34 554.912 166.704V169.252H553.344V163.33H554.758ZM559.029 166.228C559.029 165.631 559.169 165.094 559.449 164.618C559.739 164.142 560.131 163.764 560.625 163.484C561.129 163.204 561.708 163.064 562.361 163.064C563.024 163.064 563.598 163.204 564.083 163.484C564.578 163.764 564.961 164.142 565.231 164.618C565.502 165.094 565.637 165.631 565.637 166.228C565.637 166.825 565.502 167.367 565.231 167.852C564.961 168.328 564.578 168.706 564.083 168.986C563.589 169.266 563.01 169.406 562.347 169.406C561.703 169.406 561.129 169.28 560.625 169.028C560.131 168.767 559.739 168.398 559.449 167.922C559.169 167.446 559.029 166.881 559.029 166.228ZM560.611 166.242C560.611 166.597 560.686 166.919 560.835 167.208C560.985 167.488 561.185 167.712 561.437 167.88C561.699 168.039 561.993 168.118 562.319 168.118C562.833 168.118 563.248 167.941 563.565 167.586C563.883 167.222 564.041 166.774 564.041 166.242C564.041 165.71 563.883 165.262 563.565 164.898C563.248 164.534 562.833 164.352 562.319 164.352C561.993 164.352 561.699 164.441 561.437 164.618C561.185 164.786 560.985 165.015 560.835 165.304C560.686 165.584 560.611 165.897 560.611 166.242ZM569.679 163.33L569.791 164.38C570.015 163.969 570.318 163.647 570.701 163.414C571.084 163.181 571.527 163.064 572.031 163.064C572.516 163.064 572.922 163.171 573.249 163.386C573.576 163.601 573.776 163.899 573.851 164.282C574.103 163.909 574.411 163.615 574.775 163.4C575.148 163.176 575.54 163.064 575.951 163.064C576.539 163.064 577.001 163.232 577.337 163.568C577.682 163.895 577.86 164.319 577.869 164.842V169.252H576.315V165.444C576.296 165.164 576.231 164.931 576.119 164.744C576.007 164.548 575.802 164.441 575.503 164.422C575.167 164.422 574.878 164.529 574.635 164.744C574.392 164.949 574.201 165.22 574.061 165.556C573.93 165.883 573.865 166.228 573.865 166.592V169.252H572.283V165.444C572.274 165.164 572.208 164.931 572.087 164.744C571.966 164.548 571.751 164.441 571.443 164.422C571.116 164.422 570.832 164.529 570.589 164.744C570.346 164.949 570.16 165.22 570.029 165.556C569.898 165.883 569.833 166.228 569.833 166.592V169.252H568.265V163.33H569.679ZM583.831 169.406C583.131 169.406 582.533 169.271 582.039 169C581.544 168.729 581.166 168.356 580.905 167.88C580.643 167.395 580.513 166.849 580.513 166.242C580.513 165.654 580.662 165.122 580.961 164.646C581.259 164.161 581.661 163.778 582.165 163.498C582.669 163.209 583.233 163.064 583.859 163.064C584.671 163.064 585.338 163.302 585.861 163.778C586.393 164.245 586.747 164.907 586.925 165.766L582.375 167.306C582.711 167.81 583.205 168.062 583.859 168.062C584.101 168.062 584.33 168.02 584.545 167.936C584.769 167.852 584.983 167.74 585.189 167.6L585.903 168.762C585.585 168.958 585.245 169.117 584.881 169.238C584.517 169.35 584.167 169.406 583.831 169.406ZM582.053 166.158C582.053 166.233 582.057 166.312 582.067 166.396L585.175 165.29C585.063 165.029 584.895 164.8 584.671 164.604C584.447 164.399 584.134 164.296 583.733 164.296C583.238 164.296 582.832 164.469 582.515 164.814C582.207 165.159 582.053 165.607 582.053 166.158ZM596.816 169.504C596.275 169.504 595.827 169.341 595.472 169.014C595.117 168.678 594.931 168.249 594.912 167.726V163.33H596.48V167.166C596.499 167.465 596.583 167.707 596.732 167.894C596.881 168.071 597.119 168.16 597.446 168.16C597.913 168.16 598.295 167.95 598.594 167.53C598.893 167.11 599.042 166.583 599.042 165.948V163.33H600.61V169.252H599.196L599.084 168.202C598.897 168.585 598.603 168.897 598.202 169.14C597.801 169.383 597.339 169.504 596.816 169.504ZM605.531 169.378C605.083 169.378 604.654 169.299 604.243 169.14C603.842 168.981 603.501 168.748 603.221 168.44L603.893 167.558C604.155 167.81 604.411 167.997 604.663 168.118C604.925 168.23 605.172 168.286 605.405 168.286C605.667 168.286 605.891 168.239 606.077 168.146C606.273 168.043 606.371 167.875 606.371 167.642C606.371 167.455 606.306 167.311 606.175 167.208C606.045 167.096 605.877 167.007 605.671 166.942C605.466 166.867 605.251 166.797 605.027 166.732C604.514 166.573 604.131 166.34 603.879 166.032C603.627 165.724 603.501 165.369 603.501 164.968C603.501 164.66 603.581 164.366 603.739 164.086C603.898 163.797 604.136 163.559 604.453 163.372C604.78 163.185 605.195 163.092 605.699 163.092C606.138 163.092 606.525 163.143 606.861 163.246C607.197 163.349 607.51 163.512 607.799 163.736L607.197 164.674C607.029 164.515 606.829 164.394 606.595 164.31C606.371 164.217 606.166 164.165 605.979 164.156C605.727 164.147 605.517 164.198 605.349 164.31C605.181 164.422 605.097 164.571 605.097 164.758C605.088 164.945 605.149 165.094 605.279 165.206C605.419 165.318 605.597 165.407 605.811 165.472C606.026 165.537 606.241 165.607 606.455 165.682C606.885 165.822 607.239 166.023 607.519 166.284C607.799 166.536 607.939 166.891 607.939 167.348C607.939 167.712 607.851 168.048 607.673 168.356C607.496 168.664 607.23 168.911 606.875 169.098C606.521 169.285 606.073 169.378 605.531 169.378ZM613.481 169.406C612.781 169.406 612.184 169.271 611.689 169C611.194 168.729 610.816 168.356 610.555 167.88C610.294 167.395 610.163 166.849 610.163 166.242C610.163 165.654 610.312 165.122 610.611 164.646C610.91 164.161 611.311 163.778 611.815 163.498C612.319 163.209 612.884 163.064 613.509 163.064C614.321 163.064 614.988 163.302 615.511 163.778C616.043 164.245 616.398 164.907 616.575 165.766L612.025 167.306C612.361 167.81 612.856 168.062 613.509 168.062C613.752 168.062 613.98 168.02 614.195 167.936C614.419 167.852 614.634 167.74 614.839 167.6L615.553 168.762C615.236 168.958 614.895 169.117 614.531 169.238C614.167 169.35 613.817 169.406 613.481 169.406ZM611.703 166.158C611.703 166.233 611.708 166.312 611.717 166.396L614.825 165.29C614.713 165.029 614.545 164.8 614.321 164.604C614.097 164.399 613.784 164.296 613.383 164.296C612.888 164.296 612.482 164.469 612.165 164.814C611.857 165.159 611.703 165.607 611.703 166.158ZM620.876 169.378C620.428 169.378 619.999 169.299 619.588 169.14C619.187 168.981 618.846 168.748 618.566 168.44L619.238 167.558C619.499 167.81 619.756 167.997 620.008 168.118C620.269 168.23 620.517 168.286 620.75 168.286C621.011 168.286 621.235 168.239 621.422 168.146C621.618 168.043 621.716 167.875 621.716 167.642C621.716 167.455 621.651 167.311 621.52 167.208C621.389 167.096 621.221 167.007 621.016 166.942C620.811 166.867 620.596 166.797 620.372 166.732C619.859 166.573 619.476 166.34 619.224 166.032C618.972 165.724 618.846 165.369 618.846 164.968C618.846 164.66 618.925 164.366 619.084 164.086C619.243 163.797 619.481 163.559 619.798 163.372C620.125 163.185 620.54 163.092 621.044 163.092C621.483 163.092 621.87 163.143 622.206 163.246C622.542 163.349 622.855 163.512 623.144 163.736L622.542 164.674C622.374 164.515 622.173 164.394 621.94 164.31C621.716 164.217 621.511 164.165 621.324 164.156C621.072 164.147 620.862 164.198 620.694 164.31C620.526 164.422 620.442 164.571 620.442 164.758C620.433 164.945 620.493 165.094 620.624 165.206C620.764 165.318 620.941 165.407 621.156 165.472C621.371 165.537 621.585 165.607 621.8 165.682C622.229 165.822 622.584 166.023 622.864 166.284C623.144 166.536 623.284 166.891 623.284 167.348C623.284 167.712 623.195 168.048 623.018 168.356C622.841 168.664 622.575 168.911 622.22 169.098C621.865 169.285 621.417 169.378 620.876 169.378ZM636.614 160.012L634.64 163.4C635.032 163.447 635.396 163.568 635.732 163.764C636.068 163.96 636.339 164.254 636.544 164.646C636.759 165.038 636.866 165.547 636.866 166.172C636.866 166.835 636.712 167.404 636.404 167.88C636.106 168.356 635.704 168.725 635.2 168.986C634.706 169.238 634.164 169.364 633.576 169.364C633.119 169.364 632.657 169.271 632.19 169.084C631.724 168.897 631.346 168.65 631.056 168.342L631.882 166.998C632.041 167.194 632.27 167.376 632.568 167.544C632.876 167.712 633.198 167.796 633.534 167.796C633.964 167.796 634.346 167.647 634.682 167.348C635.018 167.04 635.186 166.615 635.186 166.074C635.186 165.598 635.042 165.22 634.752 164.94C634.472 164.651 634.09 164.506 633.604 164.506C633.334 164.506 633.114 164.525 632.946 164.562C632.778 164.59 632.62 164.627 632.47 164.674L632.428 164.632L634.262 161.58H631.686V160.012H636.614ZM648.226 168.314C648.048 168.482 647.768 168.645 647.386 168.804C647.003 168.963 646.583 169.098 646.126 169.21C645.678 169.313 645.253 169.364 644.852 169.364C643.76 169.364 642.812 169.149 642.01 168.72C641.207 168.281 640.586 167.689 640.148 166.942C639.709 166.195 639.49 165.346 639.49 164.394C639.49 163.507 639.63 162.723 639.91 162.042C640.19 161.361 640.572 160.791 641.058 160.334C641.543 159.877 642.098 159.531 642.724 159.298C643.358 159.065 644.026 158.948 644.726 158.948C645.342 158.948 645.911 159.018 646.434 159.158C646.956 159.298 647.409 159.475 647.792 159.69L647.26 161.202C647.073 161.099 646.84 161.001 646.56 160.908C646.289 160.805 646.009 160.726 645.72 160.67C645.43 160.614 645.169 160.586 644.936 160.586C643.778 160.586 642.859 160.908 642.178 161.552C641.506 162.196 641.17 163.097 641.17 164.254C641.17 164.954 641.328 165.565 641.646 166.088C641.963 166.611 642.397 167.017 642.948 167.306C643.508 167.595 644.156 167.74 644.894 167.74C645.211 167.74 645.519 167.712 645.818 167.656C646.116 167.6 646.373 167.511 646.588 167.39V165.696H644.67V164.128H648.226V168.314ZM654.468 159.06C655.504 159.06 656.32 159.275 656.918 159.704C657.524 160.124 657.828 160.763 657.828 161.622C657.828 162.154 657.711 162.616 657.478 163.008C657.244 163.4 656.922 163.708 656.512 163.932C657.062 164.165 657.501 164.487 657.828 164.898C658.164 165.299 658.332 165.775 658.332 166.326C658.332 167.035 658.164 167.605 657.828 168.034C657.501 168.454 657.072 168.762 656.54 168.958C656.017 169.154 655.457 169.252 654.86 169.252H651.682V159.06H654.468ZM654.734 163.4C655.219 163.4 655.574 163.26 655.798 162.98C656.031 162.691 656.148 162.355 656.148 161.972C656.148 161.505 656.003 161.165 655.714 160.95C655.424 160.735 655.032 160.628 654.538 160.628H653.32V163.4H654.734ZM654.79 167.74C655.303 167.74 655.742 167.628 656.106 167.404C656.47 167.171 656.652 166.816 656.652 166.34C656.652 165.985 656.554 165.71 656.358 165.514C656.162 165.318 655.91 165.178 655.602 165.094C655.303 165.01 654.995 164.968 654.678 164.968H653.32V167.74H654.79Z" fill="#EAEAEA"/>
<defs>
<filter id="filter0_d" x="86.1118" y="271.624" width="44" height="44" filterUnits="userSpaceOnUse" color-interpolation-filters="sRGB">
<feFlood flood-opacity="0" result="BackgroundImageFix"/>
<feColorMatrix in="SourceAlpha" type="matrix" values="0 0 0 0 0 0 0 0 0 0 0 0 0 0 0 0 0 0 127 0" result="hardAlpha"/>
<feMorphology radius="2" operator="dilate" in="SourceAlpha" result="effect1_dropShadow"/>
<feOffset/>
<feGaussianBlur stdDeviation="7.5"/>
<feColorMatrix type="matrix" values="0 0 0 0 1 0 0 0 0 1 0 0 0 0 1 0 0 0 1 0"/>
<feBlend mode="normal" in2="BackgroundImageFix" result="effect1_dropShadow"/>
<feBlend mode="normal" in="SourceGraphic" in2="effect1_dropShadow" result="shape"/>
</filter>
<filter id="filter1_d" x="616.601" y="61.252" width="44" height="44" filterUnits="userSpaceOnUse" color-interpolation-filters="sRGB">
<feFlood flood-opacity="0" result="BackgroundImageFix"/>
<feColorMatrix in="SourceAlpha" type="matrix" values="0 0 0 0 0 0 0 0 0 0 0 0 0 0 0 0 0 0 127 0" result="hardAlpha"/>
<feMorphology radius="2" operator="dilate" in="SourceAlpha" result="effect1_dropShadow"/>
<feOffset/>
<feGaussianBlur stdDeviation="7.5"/>
<feColorMatrix type="matrix" values="0 0 0 0 1 0 0 0 0 1 0 0 0 0 1 0 0 0 1 0"/>
<feBlend mode="normal" in2="BackgroundImageFix" result="effect1_dropShadow"/>
<feBlend mode="normal" in="SourceGraphic" in2="effect1_dropShadow" result="shape"/>
</filter>
<filter id="filter2_d" x="616.601" y="290.268" width="44" height="44" filterUnits="userSpaceOnUse" color-interpolation-filters="sRGB">
<feFlood flood-opacity="0" result="BackgroundImageFix"/>
<feColorMatrix in="SourceAlpha" type="matrix" values="0 0 0 0 0 0 0 0 0 0 0 0 0 0 0 0 0 0 127 0" result="hardAlpha"/>
<feMorphology radius="2" operator="dilate" in="SourceAlpha" result="effect1_dropShadow"/>
<feOffset/>
<feGaussianBlur stdDeviation="7.5"/>
<feColorMatrix type="matrix" values="0 0 0 0 1 0 0 0 0 1 0 0 0 0 1 0 0 0 1 0"/>
<feBlend mode="normal" in2="BackgroundImageFix" result="effect1_dropShadow"/>
<feBlend mode="normal" in="SourceGraphic" in2="effect1_dropShadow" result="shape"/>
</filter>
<filter id="filter3_d" x="86.6008" y="302.268" width="44" height="44" filterUnits="userSpaceOnUse" color-interpolation-filters="sRGB">
<feFlood flood-opacity="0" result="BackgroundImageFix"/>
<feColorMatrix in="SourceAlpha" type="matrix" values="0 0 0 0 0 0 0 0 0 0 0 0 0 0 0 0 0 0 127 0" result="hardAlpha"/>
<feMorphology radius="2" operator="dilate" in="SourceAlpha" result="effect1_dropShadow"/>
<feOffset/>
<feGaussianBlur stdDeviation="7.5"/>
<feColorMatrix type="matrix" values="0 0 0 0 1 0 0 0 0 1 0 0 0 0 1 0 0 0 1 0"/>
<feBlend mode="normal" in2="BackgroundImageFix" result="effect1_dropShadow"/>
<feBlend mode="normal" in="SourceGraphic" in2="effect1_dropShadow" result="shape"/>
</filter>
</defs>
</svg>
